mtllib Wall_Hini_0.0_Slope_1.0.mtl
g 1
usemtl 1
v 25.125 -24.0 -11.096405
v 25.125 -24.0 -8.231323
v 27.75 -25.0 -8.231323
v 27.75 -25.0 -11.096405
v 38.125 3.0 -14.899902
v 38.125 3.0 -8.231323
v 35.375 4.0 -8.231323
v 35.375 4.0 -14.899902
v 27.75 -25.0 -5.3814697
v 32.25 -13.0 -5.3814697
v 32.25 -13.0 -8.231323
v 36.125 -2.5 -5.3814697
v 36.125 -2.5 -8.231323
v 29.375 -31.5 -14.899902
v 29.375 -31.5 -11.096405
v 31.25 -26.5 -11.096405
v 31.25 -26.5 -14.899902
v 20.5 -28.5 -14.899902
v 20.5 -28.5 -11.096405
v 30.625 -0.5 -14.899902
v 30.625 -0.5 -11.096405
v 33.25 -1.5 -14.899902
v 33.25 -1.5 -11.096405
v 33.25 -1.5 -8.231323
v 31.25 -26.5 -5.3814697
v 41.75 1.5 -5.3814697
v 41.75 1.5 -14.899902
v 38.125 3.0 -5.3814697
vn -0.39971685 -0.9166387 0.0
vn 0.39471608 0.9188032 0.0
vn 0.93748224 -0.3480331 0.0
vn 0.9385207 -0.34522292 0.0
vn 0.9338876 -0.35756683 0.0
vn -0.340794 -0.940138 0.0
vn -0.940138 0.340794 0.0
vn 0.340794 0.940138 0.0
vn 0.939551 -0.342409 0.0
vn 0.39083818 0.9204594 0.0
vn 0.93631995 -0.35114798 0.0
vn 0.38722098 0.92198694 0.0
vn -0.939551 0.342409 0.0
vn 0.9385509 -0.34514096 0.0
f 1//1 1//1 2//1
f 2//1 1//1 3//1
f 3//1 1//1 4//1
f 5//2 5//2 6//2
f 6//2 5//2 7//2
f 7//2 5//2 8//2
f 3//3 3//3 9//3
f 9//3 3//3 10//3
f 10//3 3//3 11//3
f 11//4 11//4 10//4
f 10//4 11//4 12//4
f 12//4 11//4 13//4
f 14//5 14//5 15//5
f 15//5 14//5 16//5
f 16//5 14//5 17//5
f 18//6 18//6 19//6
f 19//6 18//6 15//6
f 15//6 18//6 14//6
f 20//7 20//7 21//7
f 21//7 20//7 19//7
f 19//7 20//7 18//7
f 22//8 22//8 23//8
f 23//8 22//8 21//8
f 21//8 22//8 20//8
f 1//9 1//9 2//9
f 2//9 1//9 24//9
f 24//9 1//9 23//9
f 16//10 16//10 25//10
f 25//10 16//10 9//10
f 9//10 16//10 4//10
f 17//11 17//11 25//11
f 25//11 17//11 26//11
f 26//11 17//11 27//11
f 27//12 27//12 26//12
f 26//12 27//12 28//12
f 28//12 27//12 5//12
f 8//13 8//13 7//13
f 7//13 8//13 24//13
f 24//13 8//13 22//13
f 13//14 13//14 12//14
f 12//14 13//14 28//14
f 28//14 13//14 6//14
g 2
usemtl 1
v 26.375 9.0 -14.899902
v 26.375 9.0 -12.552872
v 24.375 9.5 -12.552872
v 24.375 9.5 -14.899902
v 20.0 -8.0 -14.899902
v 20.0 -8.0 -12.552872
v 18.125 -7.0 -14.899902
v 18.125 -7.0 -12.552872
v 24.375 9.5 -10.539352
v 18.125 -7.0 -10.539352
v 12.25 -5.0 -14.899902
v 12.25 -5.0 -12.552872
v 14.125 -5.5 -12.552872
v 14.125 -5.5 -14.899902
v 18.625 12.0 -14.899902
v 18.625 12.0 -12.552872
v 20.375 11.0 -14.899902
v 20.375 11.0 -12.552872
v 14.125 -5.5 -10.539352
v 20.375 11.0 -10.539352
vn 0.37220484 0.92815065 0.0
vn 0.9340601 -0.35711604 0.0
vn -0.31328896 -0.94965786 0.0
vn -0.93623513 0.35137403 0.0
vn -0.40514886 -0.91425073 0.0
vn -0.9340601 0.35711604 0.0
vn 0.34691992 0.93789476 0.0
vn 0.93623513 -0.35137403 0.0
vn -0.35424697 -0.9351519 0.0
vn 0.35424697 0.9351519 0.0
f 29//15 29//15 30//15
f 30//15 29//15 31//15
f 31//15 29//15 32//15
f 33//16 33//16 34//16
f 34//16 33//16 30//16
f 30//16 33//16 29//16
f 35//17 35//17 36//17
f 36//17 35//17 34//17
f 34//17 35//17 33//17
f 31//18 31//18 37//18
f 37//18 31//18 38//18
f 38//18 31//18 36//18
f 39//19 39//19 40//19
f 40//19 39//19 41//19
f 41//19 39//19 42//19
f 43//20 43//20 44//20
f 44//20 43//20 40//20
f 40//20 43//20 39//20
f 45//21 45//21 46//21
f 46//21 45//21 44//21
f 44//21 45//21 43//21
f 41//22 41//22 47//22
f 47//22 41//22 48//22
f 48//22 41//22 46//22
f 42//23 42//23 47//23
f 47//23 42//23 38//23
f 38//23 42//23 35//23
f 32//24 32//24 37//24
f 37//24 32//24 48//24
f 48//24 32//24 45//24
g 3
usemtl 1
v -0.5 21.5 -14.899902
v -0.5 21.5 -12.387985
v -2.5 22.0 -12.387985
v -2.5 22.0 -14.899902
v -6.875 4.5 -14.899902
v -6.875 4.5 -12.387985
v -9.0 5.5 -14.899902
v -9.0 5.5 -12.387985
v -2.5 22.0 -10.327469
v -9.0 5.5 -10.327469
v -15.125 8.0 -14.899902
v -15.125 8.0 -12.387985
v -13.25 7.0 -12.387985
v -13.25 7.0 -14.899902
v -8.625 24.5 -14.899902
v -8.625 24.5 -12.387985
v -6.75 24.0 -14.899902
v -6.75 24.0 -12.387985
v -13.25 7.0 -10.327469
v -6.75 24.0 -10.327469
vn 0.3824099 0.92399275 0.0
vn 0.93246937 -0.36124912 0.0
vn -0.3481491 -0.93743926 0.0
vn -0.93311465 0.35957888 0.0
vn -0.37676787 -0.9263077 0.0
vn -0.93246937 0.36124912 0.0
vn 0.34005013 0.94040734 0.0
vn 0.93311465 -0.35957888 0.0
vn -0.36041418 -0.9327924 0.0
vn 0.36041504 0.9327921 0.0
f 49//25 49//25 50//25
f 50//25 49//25 51//25
f 51//25 49//25 52//25
f 53//26 53//26 54//26
f 54//26 53//26 50//26
f 50//26 53//26 49//26
f 55//27 55//27 56//27
f 56//27 55//27 54//27
f 54//27 55//27 53//27
f 51//28 51//28 57//28
f 57//28 51//28 58//28
f 58//28 51//28 56//28
f 59//29 59//29 60//29
f 60//29 59//29 61//29
f 61//29 59//29 62//29
f 63//30 63//30 64//30
f 64//30 63//30 60//30
f 60//30 63//30 59//30
f 65//31 65//31 66//31
f 66//31 65//31 64//31
f 64//31 65//31 63//31
f 61//32 61//32 67//32
f 67//32 61//32 68//32
f 68//32 61//32 66//32
f 62//33 62//33 67//33
f 67//33 62//33 58//33
f 58//33 62//33 55//33
f 52//34 52//34 57//34
f 57//34 52//34 68//34
f 68//34 52//34 65//34
g 4
usemtl 1
v 13.375 15.0 -14.899902
v 13.375 15.0 -12.310471
v 11.25 16.0 -12.310471
v 11.25 16.0 -14.899902
v 6.75 -2.0 -14.899902
v 6.75 -2.0 -12.310471
v -1.375 1.5 -14.899902
v -1.375 1.5 -12.310471
v 5.125 18.0 -14.899902
v 5.125 18.0 -12.310471
v 7.25 17.5 -14.899902
v 7.25 17.5 -12.310471
v 0.75 0.5 -12.310471
v 0.75 0.5 -10.06012
v 7.25 17.5 -10.06012
v 4.75 -1.0 -12.310471
v 4.75 -1.0 -10.06012
v 11.25 16.0 -10.06012
vn 0.39430898 0.9189779 0.0
vn 0.9318219 -0.36291596 0.0
vn -0.36291596 -0.9318219 0.0
vn -0.9318219 0.36291596 0.0
vn 0.33089012 0.9436694 0.0
vn 0.9320386 -0.36235884 0.0
vn 0.36235884 0.9320386 0.0
vn -0.9320386 0.36235884 0.0
vn -0.36263803 -0.9319301 0.0
f 69//35 69//35 70//35
f 70//35 69//35 71//35
f 71//35 69//35 72//35
f 73//36 73//36 74//36
f 74//36 73//36 70//36
f 70//36 73//36 69//36
f 75//37 75//37 76//37
f 76//37 75//37 74//37
f 74//37 75//37 73//37
f 77//38 77//38 78//38
f 78//38 77//38 76//38
f 76//38 77//38 75//38
f 79//39 79//39 80//39
f 80//39 79//39 78//39
f 78//39 79//39 77//39
f 81//40 81//40 82//40
f 82//40 81//40 83//40
f 83//40 81//40 80//40
f 84//41 84//41 85//41
f 85//41 84//41 82//41
f 82//41 84//41 81//41
f 71//42 71//42 86//42
f 86//42 71//42 85//42
f 85//42 71//42 84//42
f 79//43 79//43 83//43
f 83//43 79//43 86//43
f 86//43 79//43 72//43
g 5
usemtl 1
v -13.875 27.5 -14.899902
v -13.875 27.5 -12.418152
v -16.5 28.5 -12.418152
v -16.5 28.5 -14.899902
v -21.125 11.0 -14.899902
v -21.125 11.0 -12.418152
v -23.25 12.0 -14.899902
v -23.25 12.0 -12.418152
v -16.5 28.5 -9.41301
v -23.25 12.0 -9.41301
v -30.125 15.0 -14.899902
v -30.125 15.0 -12.418152
v -27.75 14.0 -12.418152
v -27.75 14.0 -14.899902
v -23.0 31.5 -14.899902
v -23.0 31.5 -12.418152
v -20.75 30.5 -14.899902
v -20.75 30.5 -9.41301
v -27.75 14.0 -9.41301
v -20.75 30.5 -12.418152
v -27.875 0.5 -14.899902
v -27.875 0.5 -9.41301
v -29.125 1.0 -9.41301
v -29.125 1.0 -14.899902
v -29.875 -5.0 -14.899902
v -29.875 -5.0 -9.41301
v -48.125 2.0 -14.899902
v -48.125 2.0 -9.41301
v -46.125 7.5 -14.899902
v -46.125 7.5 -9.41301
v -35.875 3.5 -14.899902
v -35.875 3.5 -9.41301
v -31.375 5.0 -14.899902
v -31.375 5.0 -9.41301
v -28.375 1.0 -14.899902
v -28.375 1.0 -9.41301
v -27.75 1.0 -9.41301
v -27.75 1.0 -14.899902
vn 0.39554814 0.91844535 0.0
vn 0.91844535 -0.39554814 0.0
vn -0.39554814 -0.91844535 0.0
vn -0.9261571 0.37713805 0.0
vn -0.91844535 0.39554814 0.0
vn -0.38658696 -0.92225295 0.0
vn 0.9224029 -0.38622898 0.0
vn 0.35009593 0.9367138 0.0
vn 0.93671423 -0.3500951 0.0
vn -0.3500951 -0.93671423 0.0
vn -0.93671423 0.3500951 0.0
vn 0.3500951 0.93671423 0.0
vn -0.343439 0.939175 0.0
vn 0.061191007 -0.9981261 0.0
vn 0.343439 -0.939175 0.0
vn 0.41224095 0.9110749 0.0
vn -0.9224029 0.38622898 0.0
vn 0.9226142 -0.3857241 0.0
f 87//44 87//44 88//44
f 88//44 87//44 89//44
f 89//44 87//44 90//44
f 91//45 91//45 92//45
f 92//45 91//45 88//45
f 88//45 91//45 87//45
f 93//46 93//46 94//46
f 94//46 93//46 92//46
f 92//46 93//46 91//46
f 89//47 89//47 95//47
f 95//47 89//47 96//47
f 96//47 89//47 94//47
f 97//46 97//46 98//46
f 98//46 97//46 99//46
f 99//46 97//46 100//46
f 101//48 101//48 102//48
f 102//48 101//48 98//48
f 98//48 101//48 97//48
f 103//49 103//49 104//49
f 104//49 103//49 95//49
f 95//49 103//49 90//49
f 99//50 99//50 105//50
f 105//50 99//50 104//50
f 104//50 99//50 106//50
f 107//51 107//51 108//51
f 108//51 107//51 109//51
f 109//51 107//51 110//51
f 111//52 111//52 112//52
f 112//52 111//52 108//52
f 108//52 111//52 107//52
f 113//53 113//53 114//53
f 114//53 113//53 112//53
f 112//53 113//53 111//53
f 115//54 115//54 116//54
f 116//54 115//54 114//54
f 114//54 115//54 113//54
f 117//55 117//55 118//55
f 118//55 117//55 116//55
f 116//55 117//55 115//55
f 119//56 119//56 120//56
f 120//56 119//56 118//56
f 118//56 119//56 117//56
f 121//57 121//57 122//57
f 122//57 121//57 123//57
f 123//57 121//57 124//57
f 110//58 110//58 109//58
f 109//58 110//58 122//58
f 122//58 110//58 121//58
f 103//59 103//59 106//59
f 106//59 103//59 102//59
f 102//59 103//59 101//59
f 100//60 100//60 105//60
f 105//60 100//60 120//60
f 120//60 100//60 119//60
f 124//61 124//61 123//61
f 123//61 124//61 96//61
f 96//61 124//61 93//61
g 6
usemtl 1
v -43.25 20.5 -14.899902
v -43.25 20.5 -12.424271
v -41.375 20.0 -12.424271
v -41.375 20.0 -14.899902
v -35.625 37.5 -14.899902
v -35.625 37.5 -12.424271
v -33.75 36.5 -14.899902
v -33.75 36.5 -12.424271
v -41.375 20.0 -10.335098
v -33.75 36.5 -10.335098
v -28.375 34.0 -14.899902
v -28.375 34.0 -12.424271
v -30.375 35.0 -12.424271
v -30.375 35.0 -14.899902
v -36.0 17.5 -14.899902
v -36.0 17.5 -12.424271
v -37.875 18.5 -14.899902
v -37.875 18.5 -12.424271
v -30.375 35.0 -10.335098
v -37.875 18.5 -10.335098
vn -0.4224582 -0.90638244 0.0
vn -0.9097097 0.41524485 0.0
vn 0.40703195 0.9134139 0.0
vn 0.9114884 -0.41132572 0.0
vn 0.4263821 0.9045432 0.0
vn 0.9097097 -0.41524485 0.0
vn -0.41169405 -0.9113221 0.0
vn -0.9114888 0.41132492 0.0
vn -0.4132861 -0.91060126 0.0
vn 0.4132861 0.91060126 0.0
f 125//62 125//62 126//62
f 126//62 125//62 127//62
f 127//62 125//62 128//62
f 129//63 129//63 130//63
f 130//63 129//63 126//63
f 126//63 129//63 125//63
f 131//64 131//64 132//64
f 132//64 131//64 130//64
f 130//64 131//64 129//64
f 127//65 127//65 133//65
f 133//65 127//65 134//65
f 134//65 127//65 132//65
f 135//66 135//66 136//66
f 136//66 135//66 137//66
f 137//66 135//66 138//66
f 139//67 139//67 140//67
f 140//67 139//67 136//67
f 136//67 139//67 135//67
f 141//68 141//68 142//68
f 142//68 141//68 140//68
f 140//68 141//68 139//68
f 137//69 137//69 143//69
f 143//69 137//69 144//69
f 144//69 137//69 142//69
f 128//70 128//70 133//70
f 133//70 128//70 144//70
f 144//70 128//70 141//70
f 138//71 138//71 143//71
f 143//71 138//71 134//71
f 134//71 138//71 131//71
g 7
usemtl 1
v -77.5 36.5 -14.899902
v -77.5 36.5 -12.444489
v -75.375 35.5 -12.444489
v -75.375 35.5 -14.899902
v -70.125 53.0 -14.899902
v -70.125 53.0 -12.444489
v -70.5 33.5 -14.899902
v -70.5 33.5 -12.444489
v -63.125 50.0 -12.444489
v -63.125 50.0 -14.899902
v -72.25 34.0 -14.899902
v -72.25 34.0 -12.444489
v -65.0 51.0 -12.444489
v -65.0 51.0 -10.4028015
v -72.25 34.0 -10.4028015
v -68.25 52.0 -12.444489
v -68.25 52.0 -10.4028015
v -75.375 35.5 -10.4028015
v -65.0 51.0 -14.899902
vn -0.411754 -0.911295 0.0
vn -0.9154283 0.40248114 0.0
vn 0.9154283 -0.40248114 0.0
vn -0.3995021 -0.91673225 0.0
vn -0.91934437 0.39345413 0.0
vn -0.39345413 -0.91934437 0.0
vn 0.91934437 -0.39345413 0.0
vn 0.39797306 0.91739714 0.0
vn 0.41657516 0.9091013 0.0
vn 0.36359504 0.9315571 0.0
f 145//72 145//72 146//72
f 146//72 145//72 147//72
f 147//72 145//72 148//72
f 149//73 149//73 150//73
f 150//73 149//73 146//73
f 146//73 149//73 145//73
f 151//74 151//74 152//74
f 152//74 151//74 153//74
f 153//74 151//74 154//74
f 155//75 155//75 156//75
f 156//75 155//75 152//75
f 152//75 155//75 151//75
f 157//76 157//76 158//76
f 158//76 157//76 159//76
f 159//76 157//76 156//76
f 160//77 160//77 161//77
f 161//77 160//77 158//77
f 158//77 160//77 157//77
f 147//78 147//78 162//78
f 162//78 147//78 161//78
f 161//78 147//78 160//78
f 155//79 155//79 159//79
f 159//79 155//79 162//79
f 162//79 155//79 148//79
f 163//80 163//80 157//80
f 157//80 163//80 150//80
f 150//80 163//80 149//80
f 154//81 154//81 153//81
f 153//81 154//81 157//81
f 157//81 154//81 163//81
g 8
usemtl 1
v -87.875 46.0 -11.5155945
v -87.875 46.0 -8.927521
v -89.125 43.0 -8.927521
v -89.125 43.0 -11.5155945
v -93.5 45.0 -14.899902
v -93.5 45.0 -8.927521
v -92.125 48.0 -8.927521
v -92.125 48.0 -14.899902
v -89.75 47.0 -8.927521
v -89.75 47.0 -5.7736664
v -91.125 47.5 -5.7736664
v -91.125 47.5 -8.927521
v -78.0 56.5 -14.899902
v -78.0 56.5 -10.060547
v -79.5 57.5 -10.060547
v -79.5 57.5 -14.899902
v -85.25 40.0 -11.5155945
v -85.25 40.0 -10.060547
v -78.0 56.5 -11.5155945
v -86.75 41.0 -11.5155945
v -86.75 41.0 -10.060547
v -86.125 42.5 -11.5155945
v -86.125 42.5 -10.060547
v -79.5 57.5 -8.317337
v -86.125 42.5 -8.317337
v -76.625 56.0 -14.899902
v -76.625 56.0 -11.5155945
v -84.5 38.0 -14.899902
v -84.5 38.0 -11.5155945
v -93.5 42.0 -14.899902
v -93.5 42.0 -11.5155945
v -92.375 44.5 -14.899902
v -92.375 44.5 -11.5155945
v -92.375 44.5 -8.927521
v -84.5 53.0 -11.5155945
v -84.5 53.0 -5.7736664
v -87.875 46.0 -5.7736664
v -88.625 43.5 -11.5155945
v -88.625 43.5 -8.317337
v -84.5 53.0 -8.317337
v -81.875 58.5 -8.317337
v -81.875 58.5 -14.899902
v -81.875 58.5 -5.7736664
v -85.75 60.5 -14.899902
v -85.75 60.5 -5.7736664
v -92.125 48.0 -5.7736664
vn -0.9192561 0.39366007 0.0
vn 0.9090325 -0.41672525 0.0
vn 0.4251848 0.9051066 0.0
vn 0.5065491 0.86221117 0.0
vn 0.91570026 -0.40186208 0.0
vn -0.40186208 -0.91570026 0.0
vn -0.91242677 0.40923992 0.0
vn -0.9153342 0.4026951 0.0
vn 0.4679709 0.8837438 0.0
vn 0.91465074 -0.4042449 0.0
vn -0.4042449 -0.91465074 0.0
vn -0.91465074 0.4042449 0.0
vn 0.39661297 0.9179859 0.0
vn -0.8915868 0.45284986 0.0
vn 0.91565627 -0.40196216 0.0
vn 0.40196177 0.91565645 0.0
vn 0.3622119 0.93209577 0.0
vn -0.90801626 0.4189351 0.0
vn -0.8891221 0.45767006 0.0
vn 0.4327871 0.90149623 0.0
vn -0.42332613 -0.9059773 0.0
vn -0.4156291 -0.9095342 0.0
f 164//82 164//82 165//82
f 165//82 164//82 166//82
f 166//82 164//82 167//82
f 168//83 168//83 169//83
f 169//83 168//83 170//83
f 170//83 168//83 171//83
f 172//84 172//84 173//84
f 173//84 172//84 174//84
f 174//84 172//84 175//84
f 176//85 176//85 177//85
f 177//85 176//85 178//85
f 178//85 176//85 179//85
f 180//86 180//86 181//86
f 181//86 180//86 177//86
f 177//86 180//86 182//86
f 183//87 183//87 184//87
f 184//87 183//87 181//87
f 181//87 183//87 180//87
f 185//88 185//88 186//88
f 186//88 185//88 184//88
f 184//88 185//88 183//88
f 178//89 178//89 187//89
f 187//89 178//89 188//89
f 188//89 178//89 186//89
f 189//90 189//90 190//90
f 190//90 189//90 182//90
f 182//90 189//90 176//90
f 191//91 191//91 192//91
f 192//91 191//91 190//91
f 190//91 191//91 189//91
f 193//92 193//92 194//92
f 194//92 193//92 192//92
f 192//92 193//92 191//92
f 195//93 195//93 196//93
f 196//93 195//93 194//93
f 194//93 195//93 193//93
f 167//94 167//94 166//94
f 166//94 167//94 197//94
f 197//94 167//94 196//94
f 198//95 198//95 199//95
f 199//95 198//95 200//95
f 200//95 198//95 164//95
f 201//96 201//96 202//96
f 202//96 201//96 203//96
f 203//96 201//96 198//96
f 185//97 185//97 188//97
f 188//97 185//97 202//97
f 202//97 185//97 201//97
f 179//98 179//98 187//98
f 187//98 179//98 204//98
f 204//98 179//98 205//98
f 204//99 204//99 206//99
f 206//99 204//99 199//99
f 199//99 204//99 203//99
f 207//100 207//100 208//100
f 208//100 207//100 209//100
f 209//100 207//100 171//100
f 205//101 205//101 206//101
f 206//101 205//101 208//101
f 208//101 205//101 207//101
f 195//94 195//94 197//94
f 197//94 195//94 169//94
f 169//94 195//94 168//94
f 170//102 170//102 209//102
f 209//102 170//102 174//102
f 174//102 170//102 175//102
f 172//103 172//103 173//103
f 173//103 172//103 200//103
f 200//103 172//103 165//103
