mtllib Wall_Hini_4.0_Slope_0.0.mtl
g 1
usemtl 1
v 39.875 -4.0 -14.899902
v 39.875 -4.0 -10.903549
v 29.125 -31.5 -10.903549
v 29.125 -31.5 -14.899902
v 29.5 0.0 -14.899902
v 29.5 0.0 -10.903549
v 18.75 -27.5 -14.899902
v 18.75 -27.5 -10.903549
vn -0.9314712 0.3638151 0.0
vn -0.3638151 -0.9314712 0.0
vn 0.9314712 -0.3638151 0.0
vn 0.3638151 0.9314712 0.0
f 1//1 1//1 2//1
f 2//1 1//1 3//1
f 3//1 1//1 4//1
f 5//2 5//2 6//2
f 6//2 5//2 2//2
f 2//2 5//2 1//2
f 7//3 7//3 8//3
f 8//3 7//3 6//3
f 6//3 7//3 5//3
f 4//4 4//4 3//4
f 3//4 4//4 8//4
f 8//4 4//4 7//4
g 2
usemtl 1
v -29.875 -5.0 -14.899902
v -29.875 -5.0 -10.907288
v -28.5 -1.5 -10.907288
v -28.5 -1.5 -14.899902
v -48.0 2.0 -14.899902
v -48.0 2.0 -10.907288
v -46.0 7.5 -14.899902
v -46.0 7.5 -10.907288
v -36.0 3.5 -14.899902
v -36.0 3.5 -10.907288
v -30.875 5.5 -14.899902
v -30.875 5.5 -10.907288
v -27.75 14.0 -14.899902
v -27.75 14.0 -10.907288
v -30.375 15.0 -14.899902
v -30.375 15.0 -10.907288
v -23.125 31.5 -14.899902
v -23.125 31.5 -10.907288
v -13.625 27.5 -14.899902
v -13.625 27.5 -10.907288
v -20.75 11.0 -14.899902
v -20.75 11.0 -10.907288
v -23.25 12.0 -14.899902
v -23.25 12.0 -10.907288
vn 0.9341858 -0.35678694 0.0
vn -0.35311288 -0.93558073 0.0
vn -0.93558073 0.35311288 0.0
vn 0.35311288 0.93558073 0.0
vn -0.3682679 0.9297197 0.0
vn -0.9322064 0.36192718 0.0
vn -0.397835 -0.917457 0.0
vn -0.917457 0.397835 0.0
vn 0.397835 0.917457 0.0
vn 0.917457 -0.397835 0.0
vn 0.93184096 -0.36286697 0.0
f 9//5 9//5 10//5
f 10//5 9//5 11//5
f 11//5 9//5 12//5
f 13//6 13//6 14//6
f 14//6 13//6 10//6
f 10//6 13//6 9//6
f 15//7 15//7 16//7
f 16//7 15//7 14//7
f 14//7 15//7 13//7
f 17//8 17//8 18//8
f 18//8 17//8 16//8
f 16//8 17//8 15//8
f 19//9 19//9 20//9
f 20//9 19//9 18//9
f 18//9 19//9 17//9
f 21//10 21//10 22//10
f 22//10 21//10 20//10
f 20//10 21//10 19//10
f 23//11 23//11 24//11
f 24//11 23//11 22//11
f 22//11 23//11 21//11
f 25//12 25//12 26//12
f 26//12 25//12 24//12
f 24//12 25//12 23//12
f 27//13 27//13 28//13
f 28//13 27//13 26//13
f 26//13 27//13 25//13
f 29//14 29//14 30//14
f 30//14 29//14 28//14
f 28//14 29//14 27//14
f 31//11 31//11 32//11
f 32//11 31//11 30//11
f 30//11 31//11 29//11
f 12//15 12//15 11//15
f 11//15 12//15 32//15
f 32//15 12//15 31//15
g 3
usemtl 1
v -43.25 21.0 -14.899902
v -43.25 21.0 -10.93425
v -35.75 37.5 -10.93425
v -35.75 37.5 -14.899902
v -36.0 17.5 -14.899902
v -36.0 17.5 -10.93425
v -28.5 34.0 -14.899902
v -28.5 34.0 -10.93425
vn 0.9120851 -0.41000107 0.0
vn 0.41000107 0.9120851 0.0
vn -0.9120851 0.41000107 0.0
vn -0.41000107 -0.9120851 0.0
f 33//16 33//16 34//16
f 34//16 33//16 35//16
f 35//16 33//16 36//16
f 37//17 37//17 38//17
f 38//17 37//17 34//17
f 34//17 37//17 33//17
f 39//18 39//18 40//18
f 40//18 39//18 38//18
f 38//18 39//18 37//18
f 36//19 36//19 35//19
f 35//19 36//19 40//19
f 40//19 36//19 39//19
g 4
usemtl 1
v -58.25 28.0 -14.899902
v -58.25 28.0 -10.900604
v -55.5 34.0 -10.900604
v -55.5 34.0 -14.899902
v -64.875 30.5 -14.899902
v -64.875 30.5 -10.900604
v -57.625 47.5 -14.899902
v -57.625 47.5 -10.900604
v -53.25 45.5 -14.899902
v -53.25 45.5 -10.900604
v -51.0 44.5 -14.899902
v -51.0 44.5 -10.900604
v -49.875 44.0 -14.899902
v -49.875 44.0 -10.900604
v -54.375 33.5 -14.899902
v -54.375 33.5 -10.900604
vn 0.9172969 -0.39820394 0.0
vn -0.39820394 -0.9172969 0.0
vn -0.9172969 0.39820394 0.0
vn 0.39820394 0.9172969 0.0
vn 0.40045887 0.9163147 0.0
vn 0.9163793 -0.40031114 0.0
vn -0.40031075 -0.91637945 0.0
f 41//20 41//20 42//20
f 42//20 41//20 43//20
f 43//20 41//20 44//20
f 45//21 45//21 46//21
f 46//21 45//21 42//21
f 42//21 45//21 41//21
f 47//22 47//22 48//22
f 48//22 47//22 46//22
f 46//22 47//22 45//22
f 49//23 49//23 50//23
f 50//23 49//23 48//23
f 48//23 49//23 47//23
f 51//23 51//23 52//23
f 52//23 51//23 50//23
f 50//23 51//23 49//23
f 53//24 53//24 54//24
f 54//24 53//24 52//24
f 52//24 53//24 51//24
f 55//25 55//25 56//25
f 56//25 55//25 54//25
f 54//25 55//25 53//25
f 44//26 44//26 43//26
f 43//26 44//26 56//26
f 56//26 44//26 55//26
g 5
usemtl 1
v -75.625 43.5 -14.899902
v -75.625 43.5 -10.900436
v -74.75 43.0 -10.900436
v -74.75 43.0 -14.899902
v -71.0 53.5 -14.899902
v -71.0 53.5 -10.900436
v -62.125 49.5 -14.899902
v -62.125 49.5 -10.900436
v -66.625 39.5 -14.899902
v -66.625 39.5 -10.900436
v -67.625 40.0 -14.899902
v -67.625 40.0 -10.900436
v -70.375 33.5 -14.899902
v -70.375 33.5 -10.900436
v -77.625 36.5 -14.899902
v -77.625 36.5 -10.900436
vn -0.41025496 -0.91197085 0.0
vn -0.91197085 0.41025496 0.0
vn 0.41025496 0.91197085 0.0
vn 0.91197085 -0.41025496 0.0
vn 0.9171284 -0.39859214 0.0
vn -0.39859214 -0.9171284 0.0
vn -0.9171284 0.39859214 0.0
f 57//27 57//27 58//27
f 58//27 57//27 59//27
f 59//27 57//27 60//27
f 61//28 61//28 62//28
f 62//28 61//28 58//28
f 58//28 61//28 57//28
f 63//29 63//29 64//29
f 64//29 63//29 62//29
f 62//29 63//29 61//29
f 65//30 65//30 66//30
f 66//30 65//30 64//30
f 64//30 65//30 63//30
f 67//27 67//27 68//27
f 68//27 67//27 66//27
f 66//27 67//27 65//27
f 69//31 69//31 70//31
f 70//31 69//31 68//31
f 68//31 69//31 67//31
f 71//32 71//32 72//32
f 72//32 71//32 70//32
f 70//32 71//32 69//32
f 60//33 60//33 59//33
f 59//33 60//33 72//33
f 72//33 60//33 71//33
g 6
usemtl 1
v -76.75 53.5 -14.899902
v -76.75 53.5 -10.901642
v -85.625 36.5 -10.901642
v -85.625 36.5 -14.899902
v -86.375 58.5 -14.899902
v -86.375 58.5 -10.901642
v -95.125 41.5 -14.899902
v -95.125 41.5 -10.901642
vn -0.8875409 0.46072894 0.0
vn -0.46072894 -0.8875409 0.0
vn 0.8875409 -0.46072894 0.0
vn 0.46072894 0.8875409 0.0
f 73//34 73//34 74//34
f 74//34 73//34 75//34
f 75//34 73//34 76//34
f 77//35 77//35 78//35
f 78//35 77//35 74//35
f 74//35 77//35 73//35
f 79//36 79//36 80//36
f 80//36 79//36 78//36
f 78//36 79//36 77//36
f 76//37 76//37 75//37
f 75//37 76//37 80//37
f 80//37 76//37 79//37
g 7
usemtl 1
v 26.625 8.5 -14.899902
v 26.625 8.5 -10.945358
v 19.625 -8.0 -10.945358
v 19.625 -8.0 -14.899902
v 19.25 11.5 -14.899902
v 19.25 11.5 -10.945358
v 12.25 -5.0 -14.899902
v 12.25 -5.0 -10.945358
vn -0.91952825 0.3930241 0.0
vn -0.3930241 -0.91952825 0.0
vn 0.91952825 -0.3930241 0.0
vn 0.3930241 0.91952825 0.0
f 81//38 81//38 82//38
f 82//38 81//38 83//38
f 83//38 81//38 84//38
f 85//39 85//39 86//39
f 86//39 85//39 82//39
f 82//39 85//39 81//39
f 87//40 87//40 88//40
f 88//40 87//40 86//40
f 86//40 87//40 85//40
f 84//41 84//41 83//41
f 83//41 84//41 88//41
f 88//41 84//41 87//41
g 8
usemtl 1
v 0.375 21.0 -14.899902
v 0.375 21.0 -10.905853
v -7.375 24.5 -10.905853
v -7.375 24.5 -14.899902
v -7.5 4.0 -14.899902
v -7.5 4.0 -10.905853
v -15.25 8.0 -14.899902
v -15.25 8.0 -10.905853
v -12.125 14.0 -14.899902
v -12.125 14.0 -10.905853
v -13.625 15.0 -14.899902
v -13.625 15.0 -10.905853
v -9.625 25.5 -14.899902
v -9.625 25.5 -10.905853
vn 0.42180485 0.9066867 0.0
vn 0.9044455 -0.42658928 0.0
vn -0.42658928 -0.9044455 0.0
vn -0.9044455 0.42658928 0.0
vn -0.3609061 -0.9326022 0.0
vn -0.9326022 0.3609061 0.0
vn 0.34310293 0.9392978 0.0
f 89//42 89//42 90//42
f 90//42 89//42 91//42
f 91//42 89//42 92//42
f 93//43 93//43 94//43
f 94//43 93//43 90//43
f 90//43 93//43 89//43
f 95//44 95//44 96//44
f 96//44 95//44 94//44
f 94//44 95//44 93//44
f 97//45 97//45 98//45
f 98//45 97//45 96//45
f 96//45 97//45 95//45
f 99//46 99//46 100//46
f 100//46 99//46 98//46
f 98//46 99//46 97//46
f 101//47 101//47 102//47
f 102//47 101//47 100//47
f 100//47 101//47 99//47
f 92//48 92//48 91//48
f 91//48 92//48 102//48
f 102//48 92//48 101//48
g 9
usemtl 1
v 6.625 -2.0 -14.899902
v 6.625 -2.0 -10.903519
v 9.625 5.0 -10.903519
v 9.625 5.0 -14.899902
v -1.375 1.5 -14.899902
v -1.375 1.5 -10.903519
v 1.5 8.5 -14.899902
v 1.5 8.5 -10.903519
v 0.125 9.0 -14.899902
v 0.125 9.0 -10.903519
v 3.875 18.5 -14.899902
v 3.875 18.5 -10.903519
v 5.625 18.0 -14.899902
v 5.625 18.0 -10.903519
v 13.75 14.5 -14.899902
v 13.75 14.5 -10.903519
v 14.375 14.5 -14.899902
v 14.375 14.5 -10.903519
v 10.625 5.0 -14.899902
v 10.625 5.0 -10.903519
vn 0.91935325 -0.3934331 0.0
vn -0.3934331 -0.91935325 0.0
vn -0.91935325 0.3934331 0.0
vn -0.3613002 -0.9324495 0.0
vn -0.93244964 0.36129987 0.0
vn 0.27404007 0.96171826 0.0
vn 0.37741885 0.9260426 0.0
vn 0.388907 0.921277 0.0
vn 0.93244964 -0.36129987 0.0
f 103//49 103//49 104//49
f 104//49 103//49 105//49
f 105//49 103//49 106//49
f 107//50 107//50 108//50
f 108//50 107//50 104//50
f 104//50 107//50 103//50
f 109//51 109//51 110//51
f 110//51 109//51 108//51
f 108//51 109//51 107//51
f 111//52 111//52 112//52
f 112//52 111//52 110//52
f 110//52 111//52 109//52
f 113//53 113//53 114//53
f 114//53 113//53 112//53
f 112//53 113//53 111//53
f 115//54 115//54 116//54
f 116//54 115//54 114//54
f 114//54 115//54 113//54
f 117//55 117//55 118//55
f 118//55 117//55 116//55
f 116//55 117//55 115//55
f 119//56 119//56 120//56
f 120//56 119//56 118//56
f 118//56 119//56 117//56
f 121//57 121//57 122//57
f 122//57 121//57 120//57
f 120//57 121//57 119//57
f 106//52 106//52 105//52
f 105//52 106//52 122//52
f 122//52 106//52 121//52
