mtllib Wall_Hini_2.0_Slope_3.0.mtl
g 1
usemtl 1
v 29.25 -32.0 -14.899902
v 29.25 -32.0 -2.901825
v 38.75 -4.5 -2.901825
v 38.75 -4.5 -14.899902
v 20.0 -28.5 -14.899902
v 20.0 -28.5 -2.901825
v 29.875 -1.5 -14.899902
v 29.875 -1.5 -2.901825
v 31.5 3.5 -14.899902
v 31.5 3.5 -2.901825
v 40.375 0.5 -14.899902
v 40.375 0.5 -2.901825
vn 0.9427615 -0.33346814 0.0
vn -0.3380908 -0.94111353 0.0
vn -0.93989015 0.34147704 0.0
vn -0.94278085 0.33341298 0.0
vn 0.31426987 0.94933367 0.0
vn 0.9572811 -0.28915903 0.0
f 1//1 1//1 2//1
f 2//1 1//1 3//1
f 3//1 1//1 4//1
f 5//2 5//2 6//2
f 6//2 5//2 2//2
f 2//2 5//2 1//2
f 7//3 7//3 8//3
f 8//3 7//3 6//3
f 6//3 7//3 5//3
f 9//4 9//4 10//4
f 10//4 9//4 8//4
f 8//4 9//4 7//4
f 11//5 11//5 12//5
f 12//5 11//5 10//5
f 10//5 11//5 9//5
f 4//6 4//6 3//6
f 3//6 4//6 12//6
f 12//6 4//6 11//6
g 2
usemtl 1
v -85.75 60.0 -14.899902
v -85.75 60.0 -2.9052887
v -88.375 54.5 -2.9052887
v -88.375 54.5 -14.899902
v -76.5 56.0 -14.899902
v -76.5 56.0 -2.9052887
v -84.625 38.0 -14.899902
v -84.625 38.0 -2.9052887
v -93.875 42.5 -14.899902
v -93.875 42.5 -2.9052887
v -93.25 44.0 -14.899902
v -93.25 44.0 -2.9052887
v -94.0 44.5 -14.899902
v -94.0 44.5 -2.9052887
vn -0.90476924 0.4259021 0.0
vn 0.41617322 0.9092854 0.0
vn 0.9092854 -0.41617322 0.0
vn -0.41617322 -0.9092854 0.0
vn -0.90928555 0.4161728 0.0
vn -0.47558412 -0.87967026 0.0
vn -0.8769817 0.48052382 0.0
f 13//7 13//7 14//7
f 14//7 13//7 15//7
f 15//7 13//7 16//7
f 17//8 17//8 18//8
f 18//8 17//8 14//8
f 14//8 17//8 13//8
f 19//9 19//9 20//9
f 20//9 19//9 18//9
f 18//9 19//9 17//9
f 21//10 21//10 22//10
f 22//10 21//10 20//10
f 20//10 21//10 19//10
f 23//11 23//11 24//11
f 24//11 23//11 22//11
f 22//11 23//11 21//11
f 25//12 25//12 26//12
f 26//12 25//12 24//12
f 24//12 25//12 23//12
f 16//13 16//13 15//13
f 15//13 16//13 26//13
f 26//13 16//13 25//13
g 3
usemtl 1
v 22.375 -1.5 -8.639847
v 22.375 -1.5 -5.6372833
v 21.375 -1.0 -5.6372833
v 21.375 -1.0 -8.639847
v 20.125 -7.5 -14.899902
v 20.125 -7.5 -5.6372833
v 22.375 -1.5 -14.899902
v 18.875 -7.5 -14.899902
v 18.875 -7.5 -5.6372833
v 21.375 -1.0 -2.9029846
v 18.875 -7.5 -2.9029846
v 27.125 8.5 -14.899902
v 27.125 8.5 -8.639847
v 25.375 9.0 -8.639847
v 25.375 9.0 -14.899902
v 23.125 -1.5 -14.899902
v 23.125 -1.5 -8.639847
v 25.375 9.0 -2.9029846
v 13.75 2.0 -14.899902
v 13.75 2.0 -8.639847
v 15.5 1.5 -8.639847
v 15.5 1.5 -14.899902
v 17.75 12.0 -14.899902
v 17.75 12.0 -8.639847
v 19.5 11.5 -14.899902
v 19.5 11.5 -8.639847
v 15.5 1.5 -2.9029846
v 19.5 11.5 -2.9029846
v 12.875 -5.0 -14.899902
v 12.875 -5.0 -2.9029846
vn 0.3684832 0.9296344 0.0
vn 0.94006836 -0.34098613 0.0
vn -0.17283398 -0.98495096 0.0
vn -0.93121344 0.36447418 0.0
vn 0.3887068 0.9213615 0.0
vn 0.93044525 -0.3664311 0.0
vn -0.3664311 -0.93044525 0.0
vn -0.93044525 0.3664311 0.0
vn 0.34686086 0.9379166 0.0
vn 0.93121344 -0.36447418 0.0
vn -0.33148515 -0.94346046 0.0
vn 0.36545295 0.9308298 0.0
vn -0.32664415 -0.94514745 0.0
f 27//14 27//14 28//14
f 28//14 27//14 29//14
f 29//14 27//14 30//14
f 31//15 31//15 32//15
f 32//15 31//15 28//15
f 28//15 31//15 33//15
f 34//16 34//16 35//16
f 35//16 34//16 32//16
f 32//16 34//16 31//16
f 29//17 29//17 36//17
f 36//17 29//17 37//17
f 37//17 29//17 35//17
f 38//18 38//18 39//18
f 39//18 38//18 40//18
f 40//18 38//18 41//18
f 42//19 42//19 43//19
f 43//19 42//19 39//19
f 39//19 42//19 38//19
f 40//17 40//17 44//17
f 44//17 40//17 36//17
f 36//17 40//17 30//17
f 45//20 45//20 46//20
f 46//20 45//20 47//20
f 47//20 45//20 48//20
f 49//21 49//21 50//21
f 50//21 49//21 46//21
f 46//21 49//21 45//21
f 51//22 51//22 52//22
f 52//22 51//22 50//22
f 50//22 51//22 49//22
f 47//23 47//23 53//23
f 53//23 47//23 54//23
f 54//23 47//23 52//23
f 55//24 55//24 56//24
f 56//24 55//24 37//24
f 37//24 55//24 34//24
f 41//25 41//25 44//25
f 44//25 41//25 54//25
f 54//25 41//25 51//25
f 33//26 33//26 27//26
f 27//26 33//26 43//26
f 43//26 33//26 42//26
f 48//17 48//17 53//17
f 53//17 48//17 56//17
f 56//17 48//17 55//17
g 4
usemtl 1
v -15.125 8.0 -14.899902
v -15.125 8.0 -5.5650787
v -14.375 7.5 -5.5650787
v -14.375 7.5 -14.899902
v -8.75 24.5 -14.899902
v -8.75 24.5 -5.5650787
v -7.875 24.0 -14.899902
v -7.875 24.0 -5.5650787
v -14.375 7.5 -2.9064026
v -7.875 24.0 -2.9064026
v -0.375 21.5 -14.899902
v -0.375 21.5 -5.5650787
v -1.25 21.5 -5.5650787
v -1.25 21.5 -14.899902
v -6.75 4.5 -14.899902
v -6.75 4.5 -5.5650787
v -7.75 5.0 -14.899902
v -7.75 5.0 -5.5650787
v -1.25 21.5 -2.9064026
v -7.75 5.0 -2.9064026
vn -0.43356192 -0.90112376 0.0
vn -0.93403757 0.3571748 0.0
vn 0.29091313 0.9567495 0.0
vn 0.93031526 -0.3667611 0.0
vn 0.38973916 0.9209254 0.0
vn 0.93403757 -0.3571748 0.0
vn -0.26646793 -0.96384376 0.0
vn -0.93031526 0.3667611 0.0
vn -0.36197287 -0.93218863 0.0
vn 0.36197287 0.93218863 0.0
f 57//27 57//27 58//27
f 58//27 57//27 59//27
f 59//27 57//27 60//27
f 61//28 61//28 62//28
f 62//28 61//28 58//28
f 58//28 61//28 57//28
f 63//29 63//29 64//29
f 64//29 63//29 62//29
f 62//29 63//29 61//29
f 59//30 59//30 65//30
f 65//30 59//30 66//30
f 66//30 59//30 64//30
f 67//31 67//31 68//31
f 68//31 67//31 69//31
f 69//31 67//31 70//31
f 71//32 71//32 72//32
f 72//32 71//32 68//32
f 68//32 71//32 67//32
f 73//33 73//33 74//33
f 74//33 73//33 72//33
f 72//33 73//33 71//33
f 69//34 69//34 75//34
f 75//34 69//34 76//34
f 76//34 69//34 74//34
f 60//35 60//35 65//35
f 65//35 60//35 76//35
f 76//35 60//35 73//35
f 70//36 70//36 75//36
f 75//36 70//36 66//36
f 66//36 70//36 63//36
g 5
usemtl 1
v -1.5 1.5 -14.899902
v -1.5 1.5 -5.4664154
v -0.625 1.0 -5.4664154
v -0.625 1.0 -14.899902
v 4.875 17.5 -14.899902
v 4.875 17.5 -5.4664154
v 5.875 17.5 -14.899902
v 5.875 17.5 -5.4664154
v -0.625 1.0 -2.9169464
v 5.875 17.5 -2.9169464
v 13.25 14.5 -14.899902
v 13.25 14.5 -5.4664154
v 12.5 15.0 -5.4664154
v 12.5 15.0 -14.899902
v 6.875 -2.0 -14.899902
v 6.875 -2.0 -5.4664154
v 5.875 -1.5 -14.899902
v 5.875 -1.5 -5.4664154
v 12.5 15.0 -2.9169464
v 5.875 -1.5 -2.9169464
v 6.0 18.0 -2.9169464
v 6.0 18.0 -14.899902
vn -0.45901406 -0.8884291 0.0
vn -0.931744 0.363116 0.0
vn 0.363116 0.931744 0.0
vn 0.9277614 -0.37317413 0.0
vn 0.59666806 0.80248815 0.0
vn 0.931744 -0.363116 0.0
vn -0.24220598 -0.97022486 0.0
vn -0.9277614 0.37317413 0.0
vn -0.36815012 -0.92976636 0.0
vn 0.40273407 0.9153171 0.0
f 77//37 77//37 78//37
f 78//37 77//37 79//37
f 79//37 77//37 80//37
f 81//38 81//38 82//38
f 82//38 81//38 78//38
f 78//38 81//38 77//38
f 83//39 83//39 84//39
f 84//39 83//39 82//39
f 82//39 83//39 81//39
f 79//40 79//40 85//40
f 85//40 79//40 86//40
f 86//40 79//40 84//40
f 87//41 87//41 88//41
f 88//41 87//41 89//41
f 89//41 87//41 90//41
f 91//42 91//42 92//42
f 92//42 91//42 88//42
f 88//42 91//42 87//42
f 93//43 93//43 94//43
f 94//43 93//43 92//43
f 92//43 93//43 91//43
f 89//44 89//44 95//44
f 95//44 89//44 96//44
f 96//44 89//44 94//44
f 80//45 80//45 85//45
f 85//45 80//45 96//45
f 96//45 80//45 93//45
f 90//46 90//46 95//46
f 95//46 90//46 97//46
f 97//46 90//46 98//46
f 98//44 98//44 97//44
f 97//44 98//44 86//44
f 86//44 98//44 83//44
g 6
usemtl 1
v -25.625 28.5 -14.899902
v -25.625 28.5 -8.768143
v -24.625 28.0 -8.768143
v -24.625 28.0 -14.899902
v -23.875 32.0 -14.899902
v -23.875 32.0 -8.768143
v -21.875 31.0 -14.899902
v -21.875 31.0 -8.768143
v -23.125 31.5 -14.899902
v -23.125 31.5 -8.768143
v -24.625 28.0 -5.561981
v -23.125 31.5 -5.561981
v -30.25 15.0 -14.899902
v -30.25 15.0 -5.561981
v -27.75 14.0 -5.561981
v -27.75 14.0 -14.899902
v -27.75 14.0 -2.9006653
v -21.0 30.5 -2.9006653
v -21.0 30.5 -5.561981
v -13.0 27.0 -14.899902
v -13.0 27.0 -8.622147
v -13.875 27.5 -8.622147
v -13.875 27.5 -14.899902
v -17.125 16.5 -14.899902
v -17.125 16.5 -8.622147
v -18.5 17.0 -14.899902
v -18.5 17.0 -8.622147
v -13.875 27.5 -5.561981
v -18.5 17.0 -5.561981
v -16.5 28.5 -5.561981
v -16.5 28.5 -2.9006653
v -18.875 22.5 -2.9006653
v -18.875 22.5 -5.561981
v -27.75 0.5 -14.899902
v -27.75 0.5 -2.9006653
v -27.875 1.0 -2.9006653
v -27.875 1.0 -14.899902
v -29.875 -5.0 -14.899902
v -29.875 -5.0 -2.9006653
v -48.125 2.0 -14.899902
v -48.125 2.0 -2.9006653
v -46.125 7.5 -14.899902
v -46.125 7.5 -2.9006653
v -35.75 3.5 -14.899902
v -35.75 3.5 -2.9006653
v -30.875 6.0 -14.899902
v -30.875 6.0 -2.9006653
v -16.5 28.5 -14.899902
v -21.0 30.5 -14.899902
v -23.25 12.0 -14.899902
v -23.25 12.0 -5.561981
v -21.125 11.0 -5.561981
v -21.125 11.0 -14.899902
v -18.875 22.5 -14.899902
vn -0.40950984 -0.9123057 0.0
vn -0.9123057 0.40950984 0.0
vn 0.4630869 0.88631284 0.0
vn -0.29625285 -0.95510954 0.0
vn 0.91781735 -0.39700314 0.0
vn -0.39700314 -0.91781735 0.0
vn 0.9272314 -0.37448913 0.0
vn 0.4397481 0.89812124 0.0
vn 0.9310361 -0.36492702 0.0
vn -0.36492702 -0.9310361 0.0
vn -0.91781735 0.39700314 0.0
vn -0.92817014 0.37215602 0.0
vn 0.982239 0.187634 0.0
vn 0.9351178 -0.35433692 0.0
vn -0.3502741 -0.93664724 0.0
vn -0.93664724 0.3502741 0.0
vn 0.3502741 0.93664724 0.0
vn -0.46080396 0.88750196 0.0
vn 0.4058139 0.91395575 0.0
vn 0.38432205 0.9231991 0.0
vn 0.4265601 0.90445924 0.0
vn 0.9237471 -0.38300306 0.0
vn -0.9272314 0.37448913 0.0
f 99//47 99//47 100//47
f 100//47 99//47 101//47
f 101//47 99//47 102//47
f 103//48 103//48 104//48
f 104//48 103//48 100//48
f 100//48 103//48 99//48
f 105//49 105//49 106//49
f 106//49 105//49 104//49
f 104//49 105//49 103//49
f 107//50 107//50 108//50
f 108//50 107//50 106//50
f 106//50 107//50 105//50
f 101//51 101//51 109//51
f 109//51 101//51 110//51
f 110//51 101//51 108//51
f 111//52 111//52 112//52
f 112//52 111//52 113//52
f 113//52 111//52 114//52
f 113//53 113//53 115//53
f 115//53 113//53 116//53
f 116//53 113//53 117//53
f 118//54 118//54 119//54
f 119//54 118//54 120//54
f 120//54 118//54 121//54
f 122//55 122//55 123//55
f 123//55 122//55 119//55
f 119//55 122//55 118//55
f 124//56 124//56 125//56
f 125//56 124//56 123//56
f 123//56 124//56 122//56
f 120//57 120//57 126//57
f 126//57 120//57 127//57
f 127//57 120//57 125//57
f 128//58 128//58 129//58
f 129//58 128//58 130//58
f 130//58 128//58 131//58
f 132//59 132//59 133//59
f 133//59 132//59 134//59
f 134//59 132//59 135//59
f 136//60 136//60 137//60
f 137//60 136//60 133//60
f 133//60 136//60 132//60
f 138//61 138//61 139//61
f 139//61 138//61 137//61
f 137//61 138//61 136//61
f 140//62 140//62 141//62
f 141//62 140//62 139//62
f 139//62 140//62 138//62
f 142//63 142//63 143//63
f 143//63 142//63 141//63
f 141//63 142//63 140//63
f 144//64 144//64 145//64
f 145//64 144//64 143//64
f 143//64 144//64 142//64
f 146//65 146//65 129//65
f 129//65 146//65 116//65
f 116//65 146//65 147//65
f 121//66 121//66 126//66
f 126//66 121//66 128//66
f 128//66 121//66 146//66
f 148//52 148//52 149//52
f 149//52 148//52 150//52
f 150//52 148//52 151//52
f 102//57 102//57 109//57
f 109//57 102//57 112//57
f 112//57 102//57 111//57
f 147//67 147//67 117//67
f 117//67 147//67 110//67
f 110//67 147//67 107//67
f 135//68 135//68 134//68
f 134//68 135//68 130//68
f 130//68 135//68 152//68
f 114//69 114//69 115//69
f 115//69 114//69 145//69
f 145//69 114//69 144//69
f 151//51 151//51 150//51
f 150//51 151//51 127//51
f 127//51 151//51 124//51
f 152//69 152//69 131//69
f 131//69 152//69 149//69
f 149//69 152//69 148//69
g 7
usemtl 1
v -51.0 32.0 -14.899902
v -51.0 32.0 -8.570633
v -49.75 31.5 -8.570633
v -49.75 31.5 -14.899902
v -46.25 42.5 -14.899902
v -46.25 42.5 -8.570633
v -44.875 29.0 -14.899902
v -44.875 29.0 -8.570633
v -40.25 39.5 -8.570633
v -40.25 39.5 -14.899902
v -46.125 30.0 -14.899902
v -46.125 30.0 -8.570633
v -41.5 40.0 -8.570633
v -41.5 40.0 -4.6539154
v -46.125 30.0 -4.6539154
v -45.125 42.0 -14.899902
v -45.125 42.0 -4.6539154
v -41.5 40.0 -14.899902
v -49.75 31.5 -4.6539154
v -45.125 42.0 -8.570633
v -49.0 23.5 -14.899902
v -49.0 23.5 -4.6539154
v -52.625 25.0 -4.6539154
v -52.625 25.0 -14.899902
vn -0.41080508 -0.91172326 0.0
vn -0.91172326 0.41080508 0.0
vn 0.91172326 -0.41080508 0.0
vn -0.4108039 -0.91172373 0.0
vn -0.9122051 0.40973407 0.0
vn -0.40973407 -0.9122051 0.0
vn 0.9122051 -0.40973407 0.0
vn 0.40973407 0.9122051 0.0
vn 0.3888641 0.9212952 0.0
vn 0.4357471 0.90006924 0.0
f 153//70 153//70 154//70
f 154//70 153//70 155//70
f 155//70 153//70 156//70
f 157//71 157//71 158//71
f 158//71 157//71 154//71
f 154//71 157//71 153//71
f 159//72 159//72 160//72
f 160//72 159//72 161//72
f 161//72 159//72 162//72
f 163//73 163//73 164//73
f 164//73 163//73 160//73
f 160//73 163//73 159//73
f 165//74 165//74 166//74
f 166//74 165//74 167//74
f 167//74 165//74 164//74
f 168//75 168//75 169//75
f 169//75 168//75 166//75
f 166//75 168//75 170//75
f 155//76 155//76 171//76
f 171//76 155//76 169//76
f 169//76 155//76 172//76
f 173//77 173//77 174//77
f 174//77 173//77 175//77
f 175//77 173//77 176//77
f 162//78 162//78 161//78
f 161//78 162//78 165//78
f 165//78 162//78 170//78
f 168//79 168//79 172//79
f 172//79 168//79 158//79
f 158//79 168//79 157//79
f 176//76 176//76 175//76
f 175//76 176//76 171//76
f 171//76 176//76 156//76
f 163//74 163//74 167//74
f 167//74 163//74 174//74
f 174//74 163//74 173//74
g 8
usemtl 1
v -43.25 21.0 -14.899902
v -43.25 21.0 -5.572342
v -42.5 20.5 -5.572342
v -42.5 20.5 -14.899902
v -35.75 37.5 -14.899902
v -35.75 37.5 -5.572342
v -34.875 37.0 -14.899902
v -34.875 37.0 -5.572342
v -42.5 20.5 -2.9056244
v -34.875 37.0 -2.9056244
v -28.375 34.0 -14.899902
v -28.375 34.0 -5.572342
v -29.125 34.5 -5.572342
v -29.125 34.5 -14.899902
v -36.0 17.5 -14.899902
v -36.0 17.5 -5.572342
v -36.75 18.0 -14.899902
v -36.75 18.0 -5.572342
v -29.125 34.5 -2.9056244
v -36.75 18.0 -2.9056244
vn -0.4737848 -0.8806406 0.0
vn -0.91035783 0.41382194 0.0
vn 0.39738294 0.91765285 0.0
vn 0.9105713 -0.41335216 0.0
vn 0.4311219 0.9022937 0.0
vn 0.91035783 -0.41382194 0.0
vn -0.3549392 -0.93488944 0.0
vn -0.9105713 0.41335216 0.0
vn -0.41358685 -0.9104647 0.0
vn 0.41358685 0.9104647 0.0
f 177//80 177//80 178//80
f 178//80 177//80 179//80
f 179//80 177//80 180//80
f 181//81 181//81 182//81
f 182//81 181//81 178//81
f 178//81 181//81 177//81
f 183//82 183//82 184//82
f 184//82 183//82 182//82
f 182//82 183//82 181//82
f 179//83 179//83 185//83
f 185//83 179//83 186//83
f 186//83 179//83 184//83
f 187//84 187//84 188//84
f 188//84 187//84 189//84
f 189//84 187//84 190//84
f 191//85 191//85 192//85
f 192//85 191//85 188//85
f 188//85 191//85 187//85
f 193//86 193//86 194//86
f 194//86 193//86 192//86
f 192//86 193//86 191//86
f 189//87 189//87 195//87
f 195//87 189//87 196//87
f 196//87 189//87 194//87
f 180//88 180//88 185//88
f 185//88 180//88 196//88
f 196//88 180//88 193//88
f 190//89 190//89 195//89
f 195//89 190//89 186//89
f 186//89 190//89 183//89
g 9
usemtl 1
v -64.875 31.0 -14.899902
v -64.875 31.0 -5.5252075
v -64.125 30.5 -5.5252075
v -64.125 30.5 -14.899902
v -57.625 47.5 -14.899902
v -57.625 47.5 -5.5252075
v -56.75 47.0 -14.899902
v -56.75 47.0 -5.5252075
v -64.125 30.5 -2.9359283
v -56.75 47.0 -2.9359283
v -50.875 44.5 -14.899902
v -50.875 44.5 -5.5252075
v -51.625 45.0 -5.5252075
v -51.625 45.0 -14.899902
v -58.125 28.0 -14.899902
v -58.125 28.0 -5.5252075
v -59.0 28.0 -14.899902
v -59.0 28.0 -5.5252075
v -51.625 45.0 -2.9359283
v -59.0 28.0 -2.9359283
vn -0.5215139 -0.8532428 0.0
vn -0.9161017 0.40094587 0.0
vn 0.34720597 0.9377889 0.0
vn 0.91294086 -0.40809193 0.0
vn 0.44151777 0.8972525 0.0
vn 0.9161017 -0.40094587 0.0
vn -0.26116902 -0.9652931 0.0
vn -0.91294086 0.40809193 0.0
vn -0.4045221 -0.91452825 0.0
vn 0.4045221 0.91452825 0.0
f 197//90 197//90 198//90
f 198//90 197//90 199//90
f 199//90 197//90 200//90
f 201//91 201//91 202//91
f 202//91 201//91 198//91
f 198//91 201//91 197//91
f 203//92 203//92 204//92
f 204//92 203//92 202//92
f 202//92 203//92 201//92
f 199//93 199//93 205//93
f 205//93 199//93 206//93
f 206//93 199//93 204//93
f 207//94 207//94 208//94
f 208//94 207//94 209//94
f 209//94 207//94 210//94
f 211//95 211//95 212//95
f 212//95 211//95 208//95
f 208//95 211//95 207//95
f 213//96 213//96 214//96
f 214//96 213//96 212//96
f 212//96 213//96 211//96
f 209//97 209//97 215//97
f 215//97 209//97 216//97
f 216//97 209//97 214//97
f 200//98 200//98 205//98
f 205//98 200//98 216//98
f 216//98 200//98 213//98
f 210//99 210//99 215//99
f 215//99 210//99 206//99
f 206//99 210//99 203//99
g 10
usemtl 1
v -63.0 50.0 -14.899902
v -63.0 50.0 -5.690796
v -63.875 50.5 -5.690796
v -63.875 50.5 -14.899902
v -70.5 33.5 -14.899902
v -70.5 33.5 -5.690796
v -71.25 33.5 -14.899902
v -71.25 33.5 -2.9530334
v -73.875 35.0 -2.9530334
v -73.875 35.0 -14.899902
v -63.875 50.5 -2.9530334
v -71.25 33.5 -5.690796
v -77.625 36.5 -14.899902
v -77.625 36.5 -5.690796
v -76.75 36.0 -5.690796
v -76.75 36.0 -14.899902
v -70.25 53.0 -14.899902
v -70.25 53.0 -5.690796
v -69.375 53.0 -14.899902
v -69.375 53.0 -5.690796
v -76.75 36.0 -2.9530334
v -69.375 53.0 -2.9530334
vn 0.43596083 0.89996564 0.0
vn 0.9144407 -0.4047199 0.0
vn 0.40111488 0.9160277 0.0
vn -0.9160277 0.40111488 0.0
vn -0.41057006 -0.9118291 0.0
vn -0.9144407 0.4047199 0.0
vn 0.38484016 0.92298335 0.0
vn 0.9160277 -0.40111488 0.0
vn 0.40291807 0.9152361 0.0
vn -0.41692498 -0.9089409 0.0
vn -0.40291807 -0.9152361 0.0
f 217//100 217//100 218//100
f 218//100 217//100 219//100
f 219//100 217//100 220//100
f 221//101 221//101 222//101
f 222//101 221//101 218//101
f 218//101 221//101 217//101
f 223//102 223//102 224//102
f 224//102 223//102 225//102
f 225//102 223//102 226//102
f 219//103 219//103 227//103
f 227//103 219//103 224//103
f 224//103 219//103 228//103
f 229//104 229//104 230//104
f 230//104 229//104 231//104
f 231//104 229//104 232//104
f 233//105 233//105 234//105
f 234//105 233//105 230//105
f 230//105 233//105 229//105
f 235//106 235//106 236//106
f 236//106 235//106 234//106
f 234//106 235//106 233//106
f 231//107 231//107 237//107
f 237//107 231//107 238//107
f 238//107 231//107 236//107
f 220//108 220//108 227//108
f 227//108 220//108 238//108
f 238//108 220//108 235//108
f 223//109 223//109 228//109
f 228//109 223//109 222//109
f 222//109 223//109 221//109
f 232//110 232//110 237//110
f 237//110 232//110 225//110
f 225//110 232//110 226//110
