mtllib Wall_Hini_4.0_Slope_2.5.mtl
g 1
usemtl 1
v 32.25 5.0 -14.899902
v 32.25 5.0 -2.9210358
v 22.5 -21.5 -2.9210358
v 22.5 -21.5 -14.899902
v 41.75 1.5 -14.899902
v 41.75 1.5 -2.9210358
v 31.75 -25.0 -14.899902
v 31.75 -25.0 -2.9210358
v 29.5 -24.0 -14.899902
v 29.5 -24.0 -2.9210358
v 27.375 -29.5 -14.899902
v 27.375 -29.5 -2.9210358
v 20.625 -27.0 -14.899902
v 20.625 -27.0 -2.9210358
vn -0.9381925 0.3461142 0.0
vn 0.3531982 0.93554854 0.0
vn 0.93554854 -0.3531982 0.0
vn -0.3531982 -0.93554854 0.0
vn 0.9324466 -0.36130783 0.0
vn -0.36130783 -0.9324466 0.0
vn -0.94530326 0.3261931 0.0
f 1//1 1//1 2//1
f 2//1 1//1 3//1
f 3//1 1//1 4//1
f 5//2 5//2 6//2
f 6//2 5//2 2//2
f 2//2 5//2 1//2
f 7//3 7//3 8//3
f 8//3 7//3 6//3
f 6//3 7//3 5//3
f 9//4 9//4 10//4
f 10//4 9//4 8//4
f 8//4 9//4 7//4
f 11//5 11//5 12//5
f 12//5 11//5 10//5
f 10//5 11//5 9//5
f 13//6 13//6 14//6
f 14//6 13//6 12//6
f 12//6 13//6 11//6
f 4//7 4//7 3//7
f 3//7 4//7 14//7
f 14//7 4//7 13//7
g 2
usemtl 1
v 12.25 -4.5 -14.899902
v 12.25 -4.5 -4.8468018
v 12.875 -5.0 -4.8468018
v 12.875 -5.0 -14.899902
v 18.5 11.5 -14.899902
v 18.5 11.5 -4.8468018
v 19.25 11.5 -14.899902
v 19.25 11.5 -4.8468018
v 12.875 -5.0 -2.9154358
v 19.25 11.5 -2.9154358
v 27.125 8.5 -14.899902
v 27.125 8.5 -7.774399
v 26.125 9.0 -7.774399
v 26.125 9.0 -14.899902
v 23.25 -2.5 -14.899902
v 23.25 -2.5 -7.774399
v 22.25 -2.0 -14.899902
v 22.25 -2.0 -7.774399
v 26.125 9.0 -4.8468018
v 22.25 -2.0 -4.8468018
v 25.5 9.0 -4.8468018
v 25.5 9.0 -14.899902
v 19.125 -7.5 -14.899902
v 19.125 -7.5 -4.8468018
v 20.0 -7.5 -4.8468018
v 20.0 -7.5 -14.899902
v 25.5 9.0 -2.9154358
v 19.125 -7.5 -2.9154358
vn -0.57929796 -0.81511587 0.0
vn -0.9342308 0.35666895 0.0
vn 0.21561891 0.97647756 0.0
vn 0.9323399 -0.36158296 0.0
vn 0.3229111 0.9464294 0.0
vn 0.9373229 -0.34846196 0.0
vn -0.34846196 -0.9373229 0.0
vn -0.9363634 0.35103217 0.0
vn 0.45833996 0.88877696 0.0
vn -0.15269798 -0.9882729 0.0
vn -0.9323399 0.36158296 0.0
vn -0.3591269 -0.9332887 0.0
vn 0.3591269 0.9332887 0.0
vn 0.9342308 -0.35666895 0.0
f 15//8 15//8 16//8
f 16//8 15//8 17//8
f 17//8 15//8 18//8
f 19//9 19//9 20//9
f 20//9 19//9 16//9
f 16//9 19//9 15//9
f 21//10 21//10 22//10
f 22//10 21//10 20//10
f 20//10 21//10 19//10
f 17//11 17//11 23//11
f 23//11 17//11 24//11
f 24//11 17//11 22//11
f 25//12 25//12 26//12
f 26//12 25//12 27//12
f 27//12 25//12 28//12
f 29//13 29//13 30//13
f 30//13 29//13 26//13
f 26//13 29//13 25//13
f 31//14 31//14 32//14
f 32//14 31//14 30//14
f 30//14 31//14 29//14
f 27//15 27//15 33//15
f 33//15 27//15 34//15
f 34//15 27//15 32//15
f 28//16 28//16 33//16
f 33//16 28//16 35//16
f 35//16 28//16 36//16
f 37//17 37//17 38//17
f 38//17 37//17 39//17
f 39//17 37//17 40//17
f 35//18 35//18 41//18
f 41//18 35//18 42//18
f 42//18 35//18 38//18
f 18//19 18//19 23//19
f 23//19 18//19 42//19
f 42//19 18//19 37//19
f 36//20 36//20 41//20
f 41//20 36//20 24//20
f 24//20 36//20 21//20
f 40//21 40//21 39//21
f 39//21 40//21 34//21
f 34//21 40//21 31//21
g 3
usemtl 1
v -9.75 24.5 -14.899902
v -9.75 24.5 -7.326523
v -13.625 15.0 -7.326523
v -13.625 15.0 -14.899902
v -8.125 24.0 -14.899902
v -8.125 24.0 -7.326523
v -12.0 14.0 -7.326523
v -12.0 14.0 -2.9304352
v -8.125 24.0 -2.9304352
v 0.5 21.0 -14.899902
v 0.5 21.0 -7.326523
v -1.125 21.5 -7.326523
v -1.125 21.5 -14.899902
v -3.375 11.0 -14.899902
v -3.375 11.0 -7.326523
v -5.0 11.0 -14.899902
v -5.0 11.0 -7.326523
v -1.125 21.5 -2.9304352
v -5.0 11.0 -2.9304352
v -4.375 10.5 -14.899902
v -4.375 10.5 -4.6845093
v -5.0 11.0 -4.6845093
v -7.125 4.5 -14.899902
v -7.125 4.5 -4.6845093
v -14.25 7.5 -14.899902
v -14.25 7.5 -4.6845093
v -7.5 5.0 -4.6845093
v -7.5 5.0 -2.9304352
v -14.25 7.5 -2.9304352
v -15.25 8.0 -14.899902
v -15.25 8.0 -4.6845093
v -12.5 14.0 -14.899902
v -12.5 14.0 -4.6845093
v -12.0 14.0 -4.6845093
v -12.5 14.0 -7.326523
vn -0.93167025 0.3633051 0.0
vn 0.32887515 0.9443735 0.0
vn 0.9342778 -0.35654593 0.0
vn 0.4115982 0.9113654 0.0
vn 0.93167025 -0.3633051 0.0
vn -0.24778102 -0.9688161 0.0
vn -0.9342778 0.35654593 0.0
vn 0.6162009 0.78758895 0.0
vn 0.9201738 -0.39150995 0.0
vn -0.39080688 -0.9204727 0.0
vn 0.3573091 0.93398625 0.0
vn -0.39702615 -0.91780734 0.0
vn -0.9201738 0.39150995 0.0
vn 0.24477711 0.96957946 0.0
vn 0.9420797 -0.3353889 0.0
vn 0.35992804 0.9329801 0.0
vn -0.47856975 -0.87804955 0.0
f 43//22 43//22 44//22
f 44//22 43//22 45//22
f 45//22 43//22 46//22
f 47//23 47//23 48//23
f 48//23 47//23 44//23
f 44//23 47//23 43//23
f 49//24 49//24 50//24
f 50//24 49//24 51//24
f 51//24 49//24 48//24
f 52//25 52//25 53//25
f 53//25 52//25 54//25
f 54//25 52//25 55//25
f 56//26 56//26 57//26
f 57//26 56//26 53//26
f 53//26 56//26 52//26
f 58//27 58//27 59//27
f 59//27 58//27 57//27
f 57//27 58//27 56//27
f 54//28 54//28 60//28
f 60//28 54//28 61//28
f 61//28 54//28 59//28
f 62//29 62//29 63//29
f 63//29 62//29 64//29
f 64//29 62//29 58//29
f 65//30 65//30 66//30
f 66//30 65//30 63//30
f 63//30 65//30 62//30
f 67//31 67//31 68//31
f 68//31 67//31 66//31
f 66//31 67//31 65//31
f 69//32 69//32 70//32
f 70//32 69//32 71//32
f 71//32 69//32 68//32
f 64//28 64//28 61//28
f 61//28 64//28 70//28
f 70//28 64//28 69//28
f 72//33 72//33 73//33
f 73//33 72//33 68//33
f 68//33 72//33 67//33
f 74//34 74//34 75//34
f 75//34 74//34 73//34
f 73//34 74//34 72//34
f 49//35 49//35 76//35
f 76//35 49//35 75//35
f 75//35 49//35 77//35
f 68//36 68//36 71//36
f 71//36 68//36 50//36
f 50//36 68//36 76//36
f 55//37 55//37 60//37
f 60//37 55//37 51//37
f 51//37 55//37 47//37
f 46//38 46//38 45//38
f 45//38 46//38 77//38
f 77//38 46//38 74//38
g 4
usemtl 1
v 14.375 14.5 -14.899902
v 14.375 14.5 -7.403473
v 12.75 15.0 -7.403473
v 12.75 15.0 -14.899902
v 10.5 4.5 -14.899902
v 10.5 4.5 -7.403473
v 8.875 5.0 -14.899902
v 8.875 5.0 -7.403473
v 12.75 15.0 -2.9527893
v 8.875 5.0 -2.9527893
v 0.0 8.5 -14.899902
v 0.0 8.5 -7.403473
v 1.75 7.5 -7.403473
v 1.75 7.5 -14.899902
v 3.875 18.5 -14.899902
v 3.875 18.5 -7.403473
v 5.625 18.0 -14.899902
v 5.625 18.0 -7.403473
v 1.75 7.5 -2.9527893
v 5.625 18.0 -2.9527893
v -0.875 1.0 -14.899902
v -0.875 1.0 -2.9527893
v 6.25 -1.5 -2.9527893
v 6.25 -1.5 -14.899902
vn 0.38088685 0.92462164 0.0
vn 0.9339774 -0.35733217 0.0
vn -0.35733217 -0.9339774 0.0
vn -0.93234265 0.36157587 0.0
vn -0.9339774 0.35733217 0.0
vn 0.32718092 0.9449617 0.0
vn 0.93234265 -0.36157587 0.0
vn -0.36157587 -0.93234265 0.0
vn 0.35945517 0.9331624 0.0
f 78//39 78//39 79//39
f 79//39 78//39 80//39
f 80//39 78//39 81//39
f 82//40 82//40 83//40
f 83//40 82//40 79//40
f 79//40 82//40 78//40
f 84//41 84//41 85//41
f 85//41 84//41 83//41
f 83//41 84//41 82//41
f 80//42 80//42 86//42
f 86//42 80//42 87//42
f 87//42 80//42 85//42
f 88//41 88//41 89//41
f 89//41 88//41 90//41
f 90//41 88//41 91//41
f 92//43 92//43 93//43
f 93//43 92//43 89//43
f 89//43 92//43 88//43
f 94//44 94//44 95//44
f 95//44 94//44 93//44
f 93//44 94//44 92//44
f 90//45 90//45 96//45
f 96//45 90//45 97//45
f 97//45 90//45 95//45
f 98//46 98//46 99//46
f 99//46 98//46 100//46
f 100//46 98//46 101//46
f 81//47 81//47 86//47
f 86//47 81//47 97//47
f 97//47 81//47 94//47
f 101//45 101//45 100//45
f 100//45 101//45 87//45
f 87//45 101//45 84//45
f 91//42 91//42 96//42
f 96//42 91//42 99//42
f 99//42 91//42 98//42
g 5
usemtl 1
v -26.75 26.0 -14.899902
v -26.75 26.0 -7.4042206
v -25.75 25.5 -7.4042206
v -25.75 25.5 -14.899902
v -24.0 32.0 -14.899902
v -24.0 32.0 -7.4042206
v -13.0 27.0 -14.899902
v -13.0 27.0 -7.4042206
v -15.75 21.0 -14.899902
v -15.75 21.0 -7.4042206
v -16.5 21.5 -14.899902
v -16.5 21.5 -7.4042206
v -13.875 27.5 -7.4042206
v -13.875 27.5 -4.8464813
v -16.5 21.5 -4.8464813
v -23.125 31.5 -7.4042206
v -23.125 31.5 -4.8464813
v -25.75 25.5 -4.8464813
v -30.25 15.0 -14.899902
v -30.25 15.0 -4.8464813
v -27.75 14.0 -4.8464813
v -27.75 14.0 -14.899902
v -23.25 12.0 -14.899902
v -23.25 12.0 -4.8464813
v -21.0 11.0 -4.8464813
v -21.0 11.0 -14.899902
v -19.125 22.5 -4.8464813
v -19.125 22.5 -2.9128876
v -23.25 12.0 -2.9128876
v -23.625 24.5 -4.8464813
v -23.625 24.5 -2.9128876
v -27.75 14.0 -2.9128876
v -48.125 2.0 -14.899902
v -48.125 2.0 -2.9128876
v -34.25 -3.0 -2.9128876
v -34.25 -3.0 -14.899902
v -46.125 7.5 -14.899902
v -46.125 7.5 -2.9128876
v -35.5 3.5 -14.899902
v -35.5 3.5 -2.9128876
v -30.75 6.0 -14.899902
v -30.75 6.0 -2.9128876
v -29.875 -5.0 -2.9128876
v -29.875 -5.0 -14.899902
vn -0.40947798 -0.91231996 0.0
vn -0.91231996 0.40947798 0.0
vn 0.40947798 0.91231996 0.0
vn 0.91231996 -0.40947798 0.0
vn -0.91916573 0.3938709 0.0
vn -0.3938709 -0.91916573 0.0
vn 0.91916573 -0.3938709 0.0
vn -0.932407 0.36141 0.0
vn -0.3614109 -0.93240666 0.0
vn 0.932407 -0.36141 0.0
vn -0.34308094 -0.93930584 0.0
vn -0.93983275 0.3416349 0.0
vn 0.3416349 0.93983275 0.0
vn -0.46887675 0.8832636 0.0
vn -0.36580104 -0.9306931 0.0
f 102//48 102//48 103//48
f 103//48 102//48 104//48
f 104//48 102//48 105//48
f 106//49 106//49 107//49
f 107//49 106//49 103//49
f 103//49 106//49 102//49
f 108//50 108//50 109//50
f 109//50 108//50 107//50
f 107//50 108//50 106//50
f 110//51 110//51 111//51
f 111//51 110//51 109//51
f 109//51 110//51 108//51
f 112//48 112//48 113//48
f 113//48 112//48 111//48
f 111//48 112//48 110//48
f 114//52 114//52 115//52
f 115//52 114//52 116//52
f 116//52 114//52 113//52
f 117//53 117//53 118//53
f 118//53 117//53 115//53
f 115//53 117//53 114//53
f 104//54 104//54 119//54
f 119//54 104//54 118//54
f 118//54 104//54 117//54
f 120//53 120//53 121//53
f 121//53 120//53 122//53
f 122//53 120//53 123//53
f 124//53 124//53 125//53
f 125//53 124//53 126//53
f 126//53 124//53 127//53
f 128//55 128//55 129//55
f 129//55 128//55 130//55
f 130//55 128//55 125//55
f 131//56 131//56 132//56
f 132//56 131//56 129//56
f 129//56 131//56 128//56
f 122//57 122//57 133//57
f 133//57 122//57 132//57
f 132//57 122//57 131//57
f 134//58 134//58 135//58
f 135//58 134//58 136//58
f 136//58 134//58 137//58
f 138//59 138//59 139//59
f 139//59 138//59 135//59
f 135//59 138//59 134//59
f 140//60 140//60 141//60
f 141//60 140//60 139//60
f 139//60 140//60 138//60
f 142//61 142//61 143//61
f 143//61 142//61 141//61
f 141//61 142//61 140//61
f 137//62 137//62 136//62
f 136//62 137//62 144//62
f 144//62 137//62 145//62
f 105//52 105//52 119//52
f 119//52 105//52 121//52
f 121//52 105//52 120//52
f 127//54 127//54 126//54
f 126//54 127//54 116//54
f 116//54 127//54 112//54
f 123//55 123//55 133//55
f 133//55 123//55 143//55
f 143//55 123//55 142//55
f 145//57 145//57 144//57
f 144//57 145//57 130//57
f 130//57 145//57 124//57
g 6
usemtl 1
v -40.25 39.5 -14.899902
v -40.25 39.5 -7.479492
v -41.25 40.0 -7.479492
v -41.25 40.0 -14.899902
v -44.875 29.0 -14.899902
v -44.875 29.0 -7.479492
v -46.0 29.5 -14.899902
v -46.0 29.5 -7.479492
v -41.25 40.0 -4.623993
v -46.0 29.5 -4.623993
v -51.0 32.0 -14.899902
v -51.0 32.0 -7.479492
v -50.0 31.5 -7.479492
v -50.0 31.5 -14.899902
v -46.375 42.5 -14.899902
v -46.375 42.5 -7.479492
v -45.375 42.0 -14.899902
v -45.375 42.0 -7.479492
v -50.0 31.5 -4.623993
v -45.375 42.0 -4.623993
v -52.875 25.0 -14.899902
v -52.875 25.0 -4.623993
v -48.875 23.5 -4.623993
v -48.875 23.5 -14.899902
vn 0.41739914 0.9087233 0.0
vn 0.9129703 -0.40802616 0.0
vn -0.40802616 -0.9129703 0.0
vn -0.9119997 0.41019085 0.0
vn -0.40802693 -0.9129699 0.0
vn -0.9129703 0.40802616 0.0
vn 0.3950272 0.9186694 0.0
vn 0.9119997 -0.41019085 0.0
vn -0.41019085 -0.9119997 0.0
vn 0.4091088 0.9124856 0.0
f 146//63 146//63 147//63
f 147//63 146//63 148//63
f 148//63 146//63 149//63
f 150//64 150//64 151//64
f 151//64 150//64 147//64
f 147//64 150//64 146//64
f 152//65 152//65 153//65
f 153//65 152//65 151//65
f 151//65 152//65 150//65
f 148//66 148//66 154//66
f 154//66 148//66 155//66
f 155//66 148//66 153//66
f 156//67 156//67 157//67
f 157//67 156//67 158//67
f 158//67 156//67 159//67
f 160//68 160//68 161//68
f 161//68 160//68 157//68
f 157//68 160//68 156//68
f 162//69 162//69 163//69
f 163//69 162//69 161//69
f 161//69 162//69 160//69
f 158//70 158//70 164//70
f 164//70 158//70 165//70
f 165//70 158//70 163//70
f 166//71 166//71 167//71
f 167//71 166//71 168//71
f 168//71 166//71 169//71
f 149//72 149//72 154//72
f 154//72 149//72 165//72
f 165//72 149//72 162//72
f 169//70 169//70 168//70
f 168//70 169//70 155//70
f 155//70 169//70 152//70
f 159//66 159//66 164//66
f 164//66 159//66 167//66
f 167//66 159//66 166//66
g 7
usemtl 1
v -28.375 34.5 -14.899902
v -28.375 34.5 -4.75531
v -29.0 34.5 -4.75531
v -29.0 34.5 -14.899902
v -35.875 17.5 -14.899902
v -35.875 17.5 -4.75531
v -36.625 18.0 -14.899902
v -36.625 18.0 -4.75531
v -29.0 34.5 -2.9001465
v -36.625 18.0 -2.9001465
v -43.25 21.0 -14.899902
v -43.25 21.0 -4.75531
v -42.625 20.5 -4.75531
v -42.625 20.5 -14.899902
v -35.75 37.5 -14.899902
v -35.75 37.5 -4.75531
v -35.125 37.5 -14.899902
v -35.125 37.5 -4.75531
v -42.625 20.5 -2.9001465
v -35.125 37.5 -2.9001465
vn 0.4158029 0.90945476 0.0
vn 0.9111667 -0.41203785 0.0
vn -0.3498221 -0.9368162 0.0
vn -0.9114621 0.41138405 0.0
vn -0.47604617 -0.8794203 0.0
vn -0.9111667 0.41203785 0.0
vn 0.4120391 0.91116625 0.0
vn 0.9114621 -0.41138405 0.0
vn 0.41161615 0.9113573 0.0
vn -0.41171122 -0.9113144 0.0
f 170//73 170//73 171//73
f 171//73 170//73 172//73
f 172//73 170//73 173//73
f 174//74 174//74 175//74
f 175//74 174//74 171//74
f 171//74 174//74 170//74
f 176//75 176//75 177//75
f 177//75 176//75 175//75
f 175//75 176//75 174//75
f 172//76 172//76 178//76
f 178//76 172//76 179//76
f 179//76 172//76 177//76
f 180//77 180//77 181//77
f 181//77 180//77 182//77
f 182//77 180//77 183//77
f 184//78 184//78 185//78
f 185//78 184//78 181//78
f 181//78 184//78 180//78
f 186//79 186//79 187//79
f 187//79 186//79 185//79
f 185//79 186//79 184//79
f 182//80 182//80 188//80
f 188//80 182//80 189//80
f 189//80 182//80 187//80
f 173//81 173//81 178//81
f 178//81 173//81 189//81
f 189//81 173//81 186//81
f 183//82 183//82 188//82
f 188//82 183//82 179//82
f 179//82 183//82 176//82
g 8
usemtl 1
v -64.875 30.5 -14.899902
v -64.875 30.5 -4.6529083
v -64.25 30.5 -4.6529083
v -64.25 30.5 -14.899902
v -57.625 47.5 -14.899902
v -57.625 47.5 -4.6529083
v -50.875 44.5 -14.899902
v -50.875 44.5 -4.6529083
v -58.25 28.0 -14.899902
v -58.25 28.0 -4.6529083
v -58.875 28.0 -14.899902
v -58.875 28.0 -4.6529083
v -51.5 44.5 -4.6529083
v -51.5 44.5 -2.900528
v -58.875 28.0 -2.900528
v -57.0 47.0 -4.6529083
v -57.0 47.0 -2.900528
v -64.25 30.5 -2.900528
vn -0.41331908 -0.91058624 0.0
vn -0.9171458 0.3985519 0.0
vn 0.3985519 0.9171458 0.0
vn 0.9171458 -0.3985519 0.0
vn -0.35664797 -0.93423885 0.0
vn -0.9142493 0.40515214 0.0
vn -0.40515214 -0.9142493 0.0
vn 0.9142493 -0.40515214 0.0
vn 0.40185514 0.9157033 0.0
f 190//83 190//83 191//83
f 191//83 190//83 192//83
f 192//83 190//83 193//83
f 194//84 194//84 195//84
f 195//84 194//84 191//84
f 191//84 194//84 190//84
f 196//85 196//85 197//85
f 197//85 196//85 195//85
f 195//85 196//85 194//85
f 198//86 198//86 199//86
f 199//86 198//86 197//86
f 197//86 198//86 196//86
f 200//87 200//87 201//87
f 201//87 200//87 199//87
f 199//87 200//87 198//87
f 202//88 202//88 203//88
f 203//88 202//88 204//88
f 204//88 202//88 201//88
f 205//89 205//89 206//89
f 206//89 205//89 203//89
f 203//89 205//89 202//89
f 192//90 192//90 207//90
f 207//90 192//90 206//90
f 206//90 192//90 205//90
f 200//91 200//91 204//91
f 204//91 200//91 207//91
f 207//91 200//91 193//91
g 9
usemtl 1
v -77.625 36.5 -14.899902
v -77.625 36.5 -5.1160736
v -76.875 36.0 -5.1160736
v -76.875 36.0 -14.899902
v -70.25 53.5 -14.899902
v -70.25 53.5 -5.1160736
v -69.5 53.0 -14.899902
v -69.5 53.0 -5.1160736
v -76.875 36.0 -2.9056702
v -69.5 53.0 -2.9056702
v -62.0 49.5 -14.899902
v -62.0 49.5 -7.4025116
v -63.0 50.0 -7.4025116
v -63.0 50.0 -14.899902
v -66.625 39.0 -14.899902
v -66.625 39.0 -7.4025116
v -67.625 39.5 -14.899902
v -67.625 39.5 -7.4025116
v -63.0 50.0 -5.1160736
v -67.625 39.5 -5.1160736
v -71.125 33.5 -14.899902
v -71.125 33.5 -5.1160736
v -70.375 33.5 -5.1160736
v -70.375 33.5 -14.899902
v -63.75 50.5 -5.1160736
v -63.75 50.5 -2.9056702
v -71.125 33.5 -2.9056702
v -64.875 51.0 -14.899902
v -64.875 51.0 -2.9056702
v -63.75 50.5 -14.899902
vn -0.4328621 -0.90146023 0.0
vn -0.91713524 0.39857608 0.0
vn 0.38194215 0.92418635 0.0
vn 0.9146162 -0.4043231 0.0
vn 0.41882986 0.9080647 0.0
vn 0.91603076 -0.4011079 0.0
vn -0.4011079 -0.91603076 0.0
vn -0.34402516 -0.9389605 0.0
vn -0.9146162 0.4043231 0.0
vn -0.4043231 -0.9146162 0.0
vn -0.40145206 -0.91588014 0.0
vn 0.41566005 0.9095201 0.0
vn 0.91713524 -0.39857608 0.0
vn 0.40145206 0.91588014 0.0
f 208//92 208//92 209//92
f 209//92 208//92 210//92
f 210//92 208//92 211//92
f 212//93 212//93 213//93
f 213//93 212//93 209//93
f 209//93 212//93 208//93
f 214//94 214//94 215//94
f 215//94 214//94 213//94
f 213//94 214//94 212//94
f 210//95 210//95 216//95
f 216//95 210//95 217//95
f 217//95 210//95 215//95
f 218//96 218//96 219//96
f 219//96 218//96 220//96
f 220//96 218//96 221//96
f 222//97 222//97 223//97
f 223//97 222//97 219//97
f 219//97 222//97 218//97
f 224//98 224//98 225//98
f 225//98 224//98 223//98
f 223//98 224//98 222//98
f 220//93 220//93 226//93
f 226//93 220//93 227//93
f 227//93 220//93 225//93
f 228//99 228//99 229//99
f 229//99 228//99 230//99
f 230//99 228//99 231//99
f 232//100 232//100 233//100
f 233//100 232//100 234//100
f 234//100 232//100 229//100
f 235//101 235//101 236//101
f 236//101 235//101 233//101
f 233//101 235//101 237//101
f 211//102 211//102 216//102
f 216//102 211//102 234//102
f 234//102 211//102 228//102
f 221//103 221//103 226//103
f 226//103 221//103 232//103
f 232//103 221//103 237//103
f 231//104 231//104 230//104
f 230//104 231//104 227//104
f 227//104 231//104 224//104
f 235//105 235//105 236//105
f 236//105 235//105 217//105
f 217//105 235//105 214//105
g 10
usemtl 1
v -84.625 38.0 -14.899902
v -84.625 38.0 -2.905182
v -94.0 42.5 -2.905182
v -94.0 42.5 -14.899902
v -76.25 56.0 -14.899902
v -76.25 56.0 -2.905182
v -85.625 60.5 -14.899902
v -85.625 60.5 -2.905182
vn 0.4202002 0.9074314 0.0
vn -0.9074314 0.4202002 0.0
vn -0.4202002 -0.9074314 0.0
vn 0.9074314 -0.4202002 0.0
f 238//106 238//106 239//106
f 239//106 238//106 240//106
f 240//106 238//106 241//106
f 242//107 242//107 243//107
f 243//107 242//107 239//107
f 239//107 242//107 238//107
f 244//108 244//108 245//108
f 245//108 244//108 243//108
f 243//108 244//108 242//108
f 241//109 241//109 240//109
f 240//109 241//109 245//109
f 245//109 241//109 244//109
