mtllib Wall_Hini_0.0_Slope_2.5.mtl
g 1
usemtl 1
v 23.25 -22.0 -14.899902
v 23.25 -22.0 -4.195465
v 23.75 -22.5 -4.195465
v 23.75 -22.5 -14.899902
v 33.375 5.0 -14.899902
v 33.375 5.0 -4.195465
v 42.0 1.5 -14.899902
v 42.0 1.5 -4.195465
v 31.75 -25.5 -14.899902
v 31.75 -25.5 -4.195465
v 40.125 -3.0 -4.195465
v 40.125 -3.0 -2.9222107
v 31.75 -25.5 -2.9222107
v 32.125 0.0 -4.195465
v 32.125 0.0 -2.9222107
v 23.75 -22.5 -2.9222107
v 28.25 -31.5 -14.899902
v 28.25 -31.5 -5.384247
v 28.5 -30.5 -5.384247
v 28.5 -30.5 -14.899902
v 20.5 -28.5 -14.899902
v 20.5 -28.5 -5.384247
v 22.75 -22.0 -14.899902
v 22.75 -22.0 -5.384247
v 23.75 -22.5 -5.384247
v 21.75 -28.0 -5.384247
v 21.75 -28.0 -2.9222107
v 28.5 -30.5 -2.9222107
v 29.75 -31.0 -14.899902
v 29.75 -31.0 -2.9222107
vn -0.5100819 -0.86012584 0.0
vn -0.93551123 0.35329708 0.0
vn 0.35329708 0.93551123 0.0
vn 0.9353944 -0.35360616 0.0
vn -0.9373511 0.34838602 0.0
vn -0.34875795 -0.9372128 0.0
vn 0.9372128 -0.34875795 0.0
vn 0.94239146 -0.33451214 0.0
vn -0.33451214 -0.94239146 0.0
vn -0.9423915 0.33451185 0.0
vn 0.23914497 0.97098386 0.0
vn 0.34875795 0.9372128 0.0
vn -0.9366458 0.35027793 0.0
f 1//1 1//1 2//1
f 2//1 1//1 3//1
f 3//1 1//1 4//1
f 5//2 5//2 6//2
f 6//2 5//2 2//2
f 2//2 5//2 1//2
f 7//3 7//3 8//3
f 8//3 7//3 6//3
f 6//3 7//3 5//3
f 9//4 9//4 10//4
f 10//4 9//4 8//4
f 8//4 9//4 7//4
f 11//5 11//5 12//5
f 12//5 11//5 13//5
f 13//5 11//5 10//5
f 14//6 14//6 15//6
f 15//6 14//6 12//6
f 12//6 14//6 11//6
f 3//7 3//7 16//7
f 16//7 3//7 15//7
f 15//7 3//7 14//7
f 17//8 17//8 18//8
f 18//8 17//8 19//8
f 19//8 17//8 20//8
f 21//9 21//9 22//9
f 22//9 21//9 18//9
f 18//9 21//9 17//9
f 23//10 23//10 24//10
f 24//10 23//10 22//10
f 22//10 23//10 21//10
f 4//11 4//11 25//11
f 25//11 4//11 24//11
f 24//11 4//11 23//11
f 26//7 26//7 27//7
f 27//7 26//7 16//7
f 16//7 26//7 25//7
f 19//12 19//12 28//12
f 28//12 19//12 27//12
f 27//12 19//12 26//12
f 29//12 29//12 30//12
f 30//12 29//12 28//12
f 28//12 29//12 20//12
f 9//13 9//13 13//13
f 13//13 9//13 30//13
f 30//13 9//13 29//13
g 2
usemtl 1
v -76.5 55.5 -14.899902
v -76.5 55.5 -6.9628906
v -77.875 56.5 -6.9628906
v -77.875 56.5 -14.899902
v -84.375 38.0 -14.899902
v -84.375 38.0 -6.9628906
v -91.0 41.0 -14.899902
v -91.0 41.0 -6.9628906
v -90.375 42.5 -14.899902
v -90.375 42.5 -6.9628906
v -85.75 40.5 -6.9628906
v -85.75 40.5 -2.907364
v -90.375 42.5 -2.907364
v -77.875 56.5 -2.907364
v -93.75 44.0 -14.899902
v -93.75 44.0 -2.907364
v -85.75 60.5 -2.907364
v -85.75 60.5 -14.899902
vn 0.50277704 0.8644161 0.0
vn 0.9145977 -0.40436488 0.0
vn -0.40436488 -0.9145977 0.0
vn -0.9145977 0.40436488 0.0
vn 0.44297978 0.8965316 0.0
vn -0.8965316 0.44297978 0.0
vn 0.8965316 -0.44297978 0.0
vn -0.45951107 -0.8881721 0.0
f 31//14 31//14 32//14
f 32//14 31//14 33//14
f 33//14 31//14 34//14
f 35//15 35//15 36//15
f 36//15 35//15 32//15
f 32//15 35//15 31//15
f 37//16 37//16 38//16
f 38//16 37//16 36//16
f 36//16 37//16 35//16
f 39//17 39//17 40//17
f 40//17 39//17 38//17
f 38//17 39//17 37//17
f 41//18 41//18 42//18
f 42//18 41//18 43//18
f 43//18 41//18 40//18
f 33//19 33//19 44//19
f 44//19 33//19 42//19
f 42//19 33//19 41//19
f 45//20 45//20 46//20
f 46//20 45//20 47//20
f 47//20 45//20 48//20
f 48//21 48//21 47//21
f 47//21 48//21 44//21
f 44//21 48//21 34//21
f 39//18 39//18 43//18
f 43//18 39//18 46//18
f 46//18 39//18 45//18
g 3
usemtl 1
v 12.125 -5.0 -14.899902
v 12.125 -5.0 -8.719849
v 14.0 -5.5 -8.719849
v 14.0 -5.5 -14.899902
v 18.625 11.5 -14.899902
v 18.625 11.5 -8.719849
v 20.5 11.0 -14.899902
v 20.5 11.0 -8.719849
v 14.0 -5.5 -3.867508
v 20.5 11.0 -3.867508
v 26.125 8.5 -14.899902
v 26.125 8.5 -8.719849
v 24.375 9.5 -8.719849
v 24.375 9.5 -14.899902
v 19.75 -8.0 -14.899902
v 19.75 -8.0 -8.719849
v 17.875 -7.0 -14.899902
v 17.875 -7.0 -8.719849
v 24.375 9.5 -3.867508
v 17.875 -7.0 -3.867508
vn -0.39978293 -0.9166098 0.0
vn -0.9324349 0.36133796 0.0
vn 0.29602116 0.9551815 0.0
vn 0.931627 -0.363416 0.0
vn 0.4231819 0.9060447 0.0
vn 0.9324349 -0.36133796 0.0
vn -0.32136092 -0.94695675 0.0
vn -0.931627 0.363416 0.0
vn 0.3623781 0.9320312 0.0
vn -0.3623772 -0.9320315 0.0
f 49//22 49//22 50//22
f 50//22 49//22 51//22
f 51//22 49//22 52//22
f 53//23 53//23 54//23
f 54//23 53//23 50//23
f 50//23 53//23 49//23
f 55//24 55//24 56//24
f 56//24 55//24 54//24
f 54//24 55//24 53//24
f 51//25 51//25 57//25
f 57//25 51//25 58//25
f 58//25 51//25 56//25
f 59//26 59//26 60//26
f 60//26 59//26 61//26
f 61//26 59//26 62//26
f 63//27 63//27 64//27
f 64//27 63//27 60//27
f 60//27 63//27 59//27
f 65//28 65//28 66//28
f 66//28 65//28 64//28
f 64//28 65//28 63//28
f 61//29 61//29 67//29
f 67//29 61//29 68//29
f 68//29 61//29 66//29
f 62//30 62//30 67//30
f 67//30 62//30 58//30
f 58//30 62//30 55//30
f 52//31 52//31 57//31
f 57//31 52//31 68//31
f 68//31 52//31 65//31
g 4
usemtl 1
v -0.5 21.0 -14.899902
v -0.5 21.0 -8.637436
v -2.5 22.0 -8.637436
v -2.5 22.0 -14.899902
v -6.875 4.5 -14.899902
v -6.875 4.5 -8.637436
v -15.125 8.0 -14.899902
v -15.125 8.0 -8.637436
v -8.75 24.5 -14.899902
v -8.75 24.5 -8.637436
v -6.625 23.5 -14.899902
v -6.625 23.5 -8.637436
v -13.0 7.0 -8.637436
v -13.0 7.0 -3.0063324
v -6.625 23.5 -3.0063324
v -9.0 5.5 -8.637436
v -9.0 5.5 -3.0063324
v -2.5 22.0 -3.0063324
vn 0.41342708 0.91053724 0.0
vn 0.93302363 -0.35981527 0.0
vn -0.35981527 -0.93302363 0.0
vn -0.93302363 0.35981527 0.0
vn 0.30414313 0.95262635 0.0
vn 0.9322519 -0.36180997 0.0
vn 0.36180997 0.9322519 0.0
vn -0.9322519 0.36180997 0.0
vn -0.36081308 -0.9326382 0.0
f 69//32 69//32 70//32
f 70//32 69//32 71//32
f 71//32 69//32 72//32
f 73//33 73//33 74//33
f 74//33 73//33 70//33
f 70//33 73//33 69//33
f 75//34 75//34 76//34
f 76//34 75//34 74//34
f 74//34 75//34 73//34
f 77//35 77//35 78//35
f 78//35 77//35 76//35
f 76//35 77//35 75//35
f 79//36 79//36 80//36
f 80//36 79//36 78//36
f 78//36 79//36 77//36
f 81//37 81//37 82//37
f 82//37 81//37 83//37
f 83//37 81//37 80//37
f 84//38 84//38 85//38
f 85//38 84//38 82//38
f 82//38 84//38 81//38
f 71//39 71//39 86//39
f 86//39 71//39 85//39
f 85//39 71//39 84//39
f 79//40 79//40 83//40
f 83//40 79//40 86//40
f 86//40 79//40 72//40
g 5
usemtl 1
v 11.375 15.5 -8.562653
v 11.375 15.5 -3.405487
v 5.0 -1.0 -3.405487
v 5.0 -1.0 -8.562653
v 6.875 17.5 -14.899902
v 6.875 17.5 -3.405487
v 11.375 15.5 -14.899902
v 0.5 1.0 -8.562653
v 0.5 1.0 -3.405487
v 6.875 17.5 -8.562653
v 14.375 14.5 -14.899902
v 14.375 14.5 -11.438187
v 13.25 15.0 -11.438187
v 13.25 15.0 -14.899902
v 10.25 3.5 -14.899902
v 10.25 3.5 -11.438187
v 9.125 4.0 -14.899902
v 9.125 4.0 -11.438187
v 13.25 15.0 -8.562653
v 9.125 4.0 -8.562653
v -1.5 1.5 -14.899902
v -1.5 1.5 -8.562653
v 6.875 -2.0 -8.562653
v 6.875 -2.0 -14.899902
v 5.0 18.0 -14.899902
v 5.0 18.0 -8.562653
vn -0.9346497 0.35556987 0.0
vn -0.35738385 -0.9339576 0.0
vn 0.9346497 -0.35556987 0.0
vn 0.35556987 0.9346497 0.0
vn 0.41601288 0.9093587 0.0
vn 0.93319714 -0.35936502 0.0
vn -0.35936502 -0.93319714 0.0
vn -0.9332621 0.35919604 0.0
vn 0.42147622 0.90683943 0.0
vn -0.35919604 -0.9332621 0.0
vn 0.3293709 0.94420063 0.0
vn 0.9332621 -0.35919604 0.0
f 87//41 87//41 88//41
f 88//41 87//41 89//41
f 89//41 87//41 90//41
f 91//42 91//42 92//42
f 92//42 91//42 88//42
f 88//42 91//42 93//42
f 94//43 94//43 95//43
f 95//43 94//43 92//43
f 92//43 94//43 96//43
f 90//44 90//44 89//44
f 89//44 90//44 95//44
f 95//44 90//44 94//44
f 97//45 97//45 98//45
f 98//45 97//45 99//45
f 99//45 97//45 100//45
f 101//46 101//46 102//46
f 102//46 101//46 98//46
f 98//46 101//46 97//46
f 103//47 103//47 104//47
f 104//47 103//47 102//47
f 102//47 103//47 101//47
f 99//48 99//48 105//48
f 105//48 99//48 106//48
f 106//48 99//48 104//48
f 100//49 100//49 105//49
f 105//49 100//49 87//49
f 87//49 100//49 93//49
f 107//50 107//50 108//50
f 108//50 107//50 109//50
f 109//50 107//50 110//50
f 111//48 111//48 112//48
f 112//48 111//48 108//48
f 108//48 111//48 107//48
f 91//51 91//51 96//51
f 96//51 91//51 112//51
f 112//51 91//51 111//51
f 110//52 110//52 109//52
f 109//52 110//52 106//52
f 106//52 110//52 103//52
g 6
usemtl 1
v -13.875 27.5 -14.899902
v -13.875 27.5 -8.87027
v -16.0 28.5 -8.87027
v -16.0 28.5 -14.899902
v -21.0 11.0 -14.899902
v -21.0 11.0 -8.87027
v -23.25 12.0 -14.899902
v -23.25 12.0 -8.87027
v -16.0 28.5 -2.9134674
v -23.25 12.0 -2.9134674
v -30.25 15.0 -14.899902
v -30.25 15.0 -8.87027
v -27.75 14.0 -8.87027
v -27.75 14.0 -14.899902
v -23.125 31.5 -14.899902
v -23.125 31.5 -8.87027
v -20.5 30.5 -14.899902
v -20.5 30.5 -8.87027
v -27.75 14.0 -2.9134674
v -20.5 30.5 -2.9134674
v -27.5 1.0 -14.899902
v -27.5 1.0 -2.9134674
v -27.75 1.5 -2.9134674
v -27.75 1.5 -14.899902
v -28.25 0.5 -14.899902
v -28.25 0.5 -2.9134674
v -27.875 0.5 -14.899902
v -27.875 0.5 -2.9134674
v -29.875 -5.0 -14.899902
v -29.875 -5.0 -2.9134674
v -48.125 2.0 -14.899902
v -48.125 2.0 -2.9134674
v -46.125 7.5 -14.899902
v -46.125 7.5 -2.9134674
v -36.0 3.5 -14.899902
v -36.0 3.5 -2.9134674
v -31.25 5.5 -14.899902
v -31.25 5.5 -2.9134674
vn 0.40882695 0.9126119 0.0
vn 0.92010194 -0.39167896 0.0
vn -0.39167896 -0.92010194 0.0
vn -0.91754025 0.3976431 0.0
vn -0.92010194 0.39167896 0.0
vn 0.37217522 0.9281625 0.0
vn 0.91754025 -0.3976431 0.0
vn 0.95340073 0.3017069 0.0
vn 0.389936 -0.920842 0.0
vn 0.35075808 0.9364662 0.0
vn 0.9364662 -0.35075808 0.0
vn -0.35075808 -0.9364662 0.0
vn -0.9364662 0.35075808 0.0
vn -0.389936 0.920842 0.0
vn 0.39466298 0.9188259 0.0
vn 0.91342723 -0.4070021 0.0
f 113//53 113//53 114//53
f 114//53 113//53 115//53
f 115//53 113//53 116//53
f 117//54 117//54 118//54
f 118//54 117//54 114//54
f 114//54 117//54 113//54
f 119//55 119//55 120//55
f 120//55 119//55 118//55
f 118//55 119//55 117//55
f 115//56 115//56 121//56
f 121//56 115//56 122//56
f 122//56 115//56 120//56
f 123//55 123//55 124//55
f 124//55 123//55 125//55
f 125//55 123//55 126//55
f 127//57 127//57 128//57
f 128//57 127//57 124//57
f 124//57 127//57 123//57
f 129//58 129//58 130//58
f 130//58 129//58 128//58
f 128//58 129//58 127//58
f 125//59 125//59 131//59
f 131//59 125//59 132//59
f 132//59 125//59 130//59
f 133//60 133//60 134//60
f 134//60 133//60 135//60
f 135//60 133//60 136//60
f 137//61 137//61 138//61
f 138//61 137//61 134//61
f 134//61 137//61 133//61
f 139//62 139//62 140//62
f 140//62 139//62 138//62
f 138//62 139//62 137//62
f 141//63 141//63 142//63
f 142//63 141//63 140//63
f 140//63 141//63 139//63
f 143//64 143//64 144//64
f 144//64 143//64 142//64
f 142//64 143//64 141//64
f 145//65 145//65 146//65
f 146//65 145//65 144//65
f 144//65 145//65 143//65
f 147//62 147//62 148//62
f 148//62 147//62 146//62
f 146//62 147//62 145//62
f 149//66 149//66 150//66
f 150//66 149//66 148//66
f 148//66 149//66 147//66
f 116//67 116//67 121//67
f 121//67 116//67 132//67
f 132//67 116//67 129//67
f 136//68 136//68 135//68
f 135//68 136//68 122//68
f 122//68 136//68 119//68
f 126//56 126//56 131//56
f 131//56 126//56 150//56
f 150//56 126//56 149//56
g 7
usemtl 1
v -40.375 39.5 -14.899902
v -40.375 39.5 -11.321838
v -41.5 40.0 -11.321838
v -41.5 40.0 -14.899902
v -44.875 29.5 -14.899902
v -44.875 29.5 -11.321838
v -46.125 30.0 -14.899902
v -46.125 30.0 -11.321838
v -41.5 40.0 -8.102203
v -46.125 30.0 -8.102203
v -50.875 32.0 -14.899902
v -50.875 32.0 -11.321838
v -49.75 31.5 -11.321838
v -49.75 31.5 -14.899902
v -46.25 42.5 -14.899902
v -46.25 42.5 -11.321838
v -45.125 42.0 -14.899902
v -45.125 42.0 -11.321838
v -49.75 31.5 -8.102203
v -45.125 42.0 -8.102203
v -52.625 25.0 -14.899902
v -52.625 25.0 -8.102203
v -49.0 23.5 -8.102203
v -49.0 23.5 -14.899902
vn 0.423391 0.905947 0.0
vn 0.91367614 -0.40644306 0.0
vn -0.40644306 -0.91367614 0.0
vn -0.9133135 0.40725723 0.0
vn -0.91367614 0.40644306 0.0
vn 0.38775808 0.9217612 0.0
vn 0.9133135 -0.40725723 0.0
vn -0.40725723 -0.9133135 0.0
vn 0.40685 0.913495 0.0
f 151//69 151//69 152//69
f 152//69 151//69 153//69
f 153//69 151//69 154//69
f 155//70 155//70 156//70
f 156//70 155//70 152//70
f 152//70 155//70 151//70
f 157//71 157//71 158//71
f 158//71 157//71 156//71
f 156//71 157//71 155//71
f 153//72 153//72 159//72
f 159//72 153//72 160//72
f 160//72 153//72 158//72
f 161//71 161//71 162//71
f 162//71 161//71 163//71
f 163//71 161//71 164//71
f 165//73 165//73 166//73
f 166//73 165//73 162//73
f 162//73 165//73 161//73
f 167//74 167//74 168//74
f 168//74 167//74 166//74
f 166//74 167//74 165//74
f 163//75 163//75 169//75
f 169//75 163//75 170//75
f 170//75 163//75 168//75
f 171//76 171//76 172//76
f 172//76 171//76 173//76
f 173//76 171//76 174//76
f 154//77 154//77 159//77
f 159//77 154//77 170//77
f 170//77 154//77 167//77
f 174//75 174//75 173//75
f 173//75 174//75 160//75
f 160//75 174//75 157//75
f 164//72 164//72 169//72
f 169//72 164//72 172//72
f 172//72 164//72 171//72
g 8
usemtl 1
v -28.5 34.0 -14.899902
v -28.5 34.0 -8.56633
v -30.25 35.0 -8.56633
v -30.25 35.0 -14.899902
v -36.0 17.5 -14.899902
v -36.0 17.5 -8.56633
v -37.75 18.0 -14.899902
v -37.75 18.0 -8.56633
v -30.25 35.0 -3.8694916
v -37.75 18.0 -3.8694916
v -43.25 21.0 -14.899902
v -43.25 21.0 -8.56633
v -41.5 20.0 -8.56633
v -41.5 20.0 -14.899902
v -35.75 37.5 -14.899902
v -35.75 37.5 -8.56633
v -34.0 36.5 -14.899902
v -34.0 36.5 -8.56633
v -41.5 20.0 -3.8694916
v -34.0 36.5 -3.8694916
vn 0.43229392 0.90173274 0.0
vn 0.9115501 -0.41118905 0.0
vn -0.4054161 -0.91413224 0.0
vn -0.91313255 0.40766278 0.0
vn -0.4204438 -0.9073186 0.0
vn -0.9115501 0.41118905 0.0
vn 0.39286214 0.9195974 0.0
vn 0.91313255 -0.40766278 0.0
vn -0.4094261 -0.91234326 0.0
vn 0.4094261 0.91234326 0.0
f 175//78 175//78 176//78
f 176//78 175//78 177//78
f 177//78 175//78 178//78
f 179//79 179//79 180//79
f 180//79 179//79 176//79
f 176//79 179//79 175//79
f 181//80 181//80 182//80
f 182//80 181//80 180//80
f 180//80 181//80 179//80
f 177//81 177//81 183//81
f 183//81 177//81 184//81
f 184//81 177//81 182//81
f 185//82 185//82 186//82
f 186//82 185//82 187//82
f 187//82 185//82 188//82
f 189//83 189//83 190//83
f 190//83 189//83 186//83
f 186//83 189//83 185//83
f 191//84 191//84 192//84
f 192//84 191//84 190//84
f 190//84 191//84 189//84
f 187//85 187//85 193//85
f 193//85 187//85 194//85
f 194//85 187//85 192//85
f 188//86 188//86 193//86
f 193//86 188//86 184//86
f 184//86 188//86 181//86
f 178//87 178//87 183//87
f 183//87 178//87 194//87
f 194//87 178//87 191//87
g 9
usemtl 1
v -64.875 31.0 -14.899902
v -64.875 31.0 -8.617493
v -63.25 30.0 -8.617493
v -63.25 30.0 -14.899902
v -57.5 47.5 -14.899902
v -57.5 47.5 -8.617493
v -58.25 28.0 -14.899902
v -58.25 28.0 -8.617493
v -50.875 44.5 -8.617493
v -50.875 44.5 -14.899902
v -59.875 28.5 -14.899902
v -59.875 28.5 -8.617493
v -52.5 45.0 -8.617493
v -52.5 45.0 -4.04335
v -59.875 28.5 -4.04335
v -55.875 46.5 -14.899902
v -55.875 46.5 -4.04335
v -52.5 45.0 -14.899902
v -63.25 30.0 -4.04335
v -55.875 46.5 -8.617493
vn -0.43685097 -0.8995339 0.0
vn -0.9144748 0.4046429 0.0
vn 0.9144748 -0.4046429 0.0
vn -0.37263 -0.92798 0.0
vn -0.9147161 0.40409705 0.0
vn -0.40409705 -0.9147161 0.0
vn 0.9147161 -0.40409705 0.0
vn 0.40436983 0.9145956 0.0
vn 0.37261412 0.9279864 0.0
vn 0.4377728 0.89908564 0.0
f 195//88 195//88 196//88
f 196//88 195//88 197//88
f 197//88 195//88 198//88
f 199//89 199//89 200//89
f 200//89 199//89 196//89
f 196//89 199//89 195//89
f 201//90 201//90 202//90
f 202//90 201//90 203//90
f 203//90 201//90 204//90
f 205//91 205//91 206//91
f 206//91 205//91 202//91
f 202//91 205//91 201//91
f 207//92 207//92 208//92
f 208//92 207//92 209//92
f 209//92 207//92 206//92
f 210//93 210//93 211//93
f 211//93 210//93 208//93
f 208//93 210//93 212//93
f 197//94 197//94 213//94
f 213//94 197//94 211//94
f 211//94 197//94 214//94
f 205//95 205//95 209//95
f 209//95 205//95 213//95
f 213//95 205//95 198//95
f 204//96 204//96 203//96
f 203//96 204//96 207//96
f 207//96 204//96 212//96
f 210//97 210//97 214//97
f 214//97 210//97 200//97
f 200//97 210//97 199//97
g 10
usemtl 1
v -77.375 36.5 -14.899902
v -77.375 36.5 -8.506653
v -75.875 36.0 -8.506653
v -75.875 36.0 -14.899902
v -70.0 53.0 -14.899902
v -70.0 53.0 -8.506653
v -70.375 33.5 -14.899902
v -70.375 33.5 -8.506653
v -63.125 50.0 -8.506653
v -63.125 50.0 -14.899902
v -72.25 34.0 -14.899902
v -72.25 34.0 -8.506653
v -64.75 51.0 -8.506653
v -64.75 51.0 -4.0934906
v -72.25 34.0 -4.0934906
v -68.5 52.5 -8.506653
v -68.5 52.5 -4.0934906
v -75.875 36.0 -4.0934906
v -68.5 52.5 -14.899902
vn -0.46978223 -0.8827824 0.0
vn -0.9164947 0.40004686 0.0
vn 0.9164947 -0.40004686 0.0
vn -0.33177993 -0.9433568 0.0
vn -0.9126491 0.40874407 0.0
vn -0.40874407 -0.9126491 0.0
vn 0.9126491 -0.40874407 0.0
vn 0.40440008 0.91458225 0.0
vn 0.450891 0.892579 0.0
vn 0.38419086 0.92325366 0.0
f 215//98 215//98 216//98
f 216//98 215//98 217//98
f 217//98 215//98 218//98
f 219//99 219//99 220//99
f 220//99 219//99 216//99
f 216//99 219//99 215//99
f 221//100 221//100 222//100
f 222//100 221//100 223//100
f 223//100 221//100 224//100
f 225//101 225//101 226//101
f 226//101 225//101 222//101
f 222//101 225//101 221//101
f 227//102 227//102 228//102
f 228//102 227//102 229//102
f 229//102 227//102 226//102
f 230//103 230//103 231//103
f 231//103 230//103 228//103
f 228//103 230//103 227//103
f 217//104 217//104 232//104
f 232//104 217//104 231//104
f 231//104 217//104 230//104
f 225//105 225//105 229//105
f 229//105 225//105 232//105
f 232//105 225//105 218//105
f 233//106 233//106 230//106
f 230//106 233//106 220//106
f 220//106 233//106 219//106
f 224//107 224//107 223//107
f 223//107 224//107 230//107
f 230//107 224//107 233//107
