mtllib Wall_Hini_2.0_Slope_1.0.mtl
g 1
usemtl 1
v 35.125 4.5 -14.899902
v 35.125 4.5 -6.615387
v 38.125 3.0 -6.615387
v 38.125 3.0 -14.899902
v 27.625 -25.0 -6.7620697
v 27.625 -25.0 -6.615387
v 24.75 -24.0 -6.615387
v 24.75 -24.0 -6.7620697
v 30.375 -17.5 -6.615387
v 30.375 -17.5 -3.4776917
v 35.875 -3.0 -3.4776917
v 35.875 -3.0 -6.615387
v 29.375 -31.5 -14.899902
v 29.375 -31.5 -9.032394
v 30.125 -29.5 -9.032394
v 30.125 -29.5 -14.899902
v 20.5 -28.5 -14.899902
v 20.5 -28.5 -9.032394
v 30.5 -1.0 -14.899902
v 30.5 -1.0 -9.032394
v 32.875 -1.5 -14.899902
v 32.875 -1.5 -9.032394
v 24.75 -24.0 -9.032394
v 32.875 -1.5 -6.615387
v 23.5 -27.0 -9.032394
v 23.5 -27.0 -6.7620697
v 30.125 -29.5 -6.7620697
v 31.375 -26.5 -14.899902
v 31.375 -26.5 -6.7620697
v 41.875 1.5 -14.899902
v 41.875 1.5 -3.4776917
v 38.125 3.0 -3.4776917
v 31.375 -26.5 -3.4776917
v 27.625 -25.0 -3.4776917
vn -0.3951231 -0.9186282 0.0
vn 0.35139093 0.9362288 0.0
vn 0.93763953 -0.34760922 0.0
vn 0.936124 -0.35167 0.0
vn -0.34027916 -0.9403245 0.0
vn -0.9403245 0.34027916 0.0
vn 0.34027886 0.94032454 0.0
vn 0.93826324 -0.34592208 0.0
vn 0.9350932 -0.3544021 0.0
vn 0.3533539 0.9354897 0.0
vn -0.93195736 0.3625681 0.0
vn 0.38823685 0.92155963 0.0
vn 0.9368662 -0.34968808 0.0
vn -0.38678908 -0.92216825 0.0
vn -0.9376585 0.34755817 0.0
vn -0.93728274 0.3485699 0.0
vn 0.93833625 -0.34572408 0.0
f 1//1 1//1 2//1
f 2//1 1//1 3//1
f 3//1 1//1 4//1
f 5//2 5//2 6//2
f 6//2 5//2 7//2
f 7//2 5//2 8//2
f 9//3 9//3 10//3
f 10//3 9//3 11//3
f 11//3 9//3 12//3
f 13//4 13//4 14//4
f 14//4 13//4 15//4
f 15//4 13//4 16//4
f 17//5 17//5 18//5
f 18//5 17//5 14//5
f 14//5 17//5 13//5
f 19//6 19//6 20//6
f 20//6 19//6 18//6
f 18//6 19//6 17//6
f 21//7 21//7 22//7
f 22//7 21//7 20//7
f 20//7 21//7 19//7
f 23//8 23//8 7//8
f 7//8 23//8 24//8
f 24//8 23//8 22//8
f 25//9 25//9 26//9
f 26//9 25//9 8//9
f 8//9 25//9 23//9
f 15//10 15//10 27//10
f 27//10 15//10 26//10
f 26//10 15//10 25//10
f 28//11 28//11 29//11
f 29//11 28//11 27//11
f 27//11 28//11 16//11
f 30//12 30//12 31//12
f 31//12 30//12 32//12
f 32//12 30//12 4//12
f 28//13 28//13 33//13
f 33//13 28//13 31//13
f 31//13 28//13 30//13
f 5//14 5//14 34//14
f 34//14 5//14 33//14
f 33//14 5//14 29//14
f 3//15 3//15 32//15
f 32//15 3//15 11//15
f 11//15 3//15 12//15
f 9//16 9//16 10//16
f 10//16 9//16 34//16
f 34//16 9//16 6//16
f 21//17 21//17 24//17
f 24//17 21//17 2//17
f 2//17 21//17 1//17
g 2
usemtl 1
v 26.25 9.0 -14.899902
v 26.25 9.0 -10.478149
v 24.625 9.5 -10.478149
v 24.625 9.5 -14.899902
v 19.875 -8.0 -14.899902
v 19.875 -8.0 -10.478149
v 18.25 -7.5 -14.899902
v 18.25 -7.5 -10.478149
v 24.625 9.5 -8.655228
v 18.25 -7.5 -8.655228
v 12.25 -5.0 -14.899902
v 12.25 -5.0 -10.478149
v 14.125 -5.5 -10.478149
v 14.125 -5.5 -14.899902
v 18.625 11.5 -14.899902
v 18.625 11.5 -10.478149
v 20.5 11.0 -14.899902
v 20.5 11.0 -10.478149
v 14.125 -5.5 -8.655228
v 20.5 11.0 -8.655228
vn 0.40057582 0.91626364 0.0
vn 0.9340424 -0.35716218 0.0
vn -0.3144251 -0.94928235 0.0
vn -0.9352969 0.35386398 0.0
vn -0.39688516 -0.9178684 0.0
vn -0.9340424 0.35716218 0.0
vn 0.32022488 0.94734156 0.0
vn 0.9352969 -0.35386398 0.0
vn 0.35551313 0.93467134 0.0
vn -0.355514 -0.934671 0.0
f 35//18 35//18 36//18
f 36//18 35//18 37//18
f 37//18 35//18 38//18
f 39//19 39//19 40//19
f 40//19 39//19 36//19
f 36//19 39//19 35//19
f 41//20 41//20 42//20
f 42//20 41//20 40//20
f 40//20 41//20 39//20
f 37//21 37//21 43//21
f 43//21 37//21 44//21
f 44//21 37//21 42//21
f 45//22 45//22 46//22
f 46//22 45//22 47//22
f 47//22 45//22 48//22
f 49//23 49//23 50//23
f 50//23 49//23 46//23
f 46//23 49//23 45//23
f 51//24 51//24 52//24
f 52//24 51//24 50//24
f 50//24 51//24 49//24
f 47//25 47//25 53//25
f 53//25 47//25 54//25
f 54//25 47//25 52//25
f 38//26 38//26 43//26
f 43//26 38//26 54//26
f 54//26 38//26 51//26
f 48//27 48//27 53//27
f 53//27 48//27 44//27
f 44//27 48//27 41//27
g 3
usemtl 1
v -15.125 8.0 -14.899902
v -15.125 8.0 -10.441879
v -13.25 7.0 -10.441879
v -13.25 7.0 -14.899902
v -8.75 24.5 -14.899902
v -8.75 24.5 -10.441879
v -6.75 23.5 -14.899902
v -6.75 23.5 -10.441879
v -13.25 7.0 -8.351044
v -6.75 23.5 -8.351044
v -0.375 21.0 -14.899902
v -0.375 21.0 -10.441879
v -2.375 22.0 -10.441879
v -2.375 22.0 -14.899902
v -6.75 4.5 -14.899902
v -6.75 4.5 -10.441879
v -8.875 5.5 -14.899902
v -8.875 5.5 -10.441879
v -2.375 22.0 -8.351044
v -8.875 5.5 -8.351044
vn -0.38571706 -0.92261714 0.0
vn -0.93358314 0.35836104 0.0
vn 0.30296612 0.9530014 0.0
vn 0.931969 -0.362538 0.0
vn 0.40844414 0.9127833 0.0
vn 0.93358314 -0.35836104 0.0
vn -0.32788908 -0.9447162 0.0
vn -0.931969 0.362538 0.0
vn 0.36045018 0.9327784 0.0
vn -0.36045018 -0.9327784 0.0
f 55//28 55//28 56//28
f 56//28 55//28 57//28
f 57//28 55//28 58//28
f 59//29 59//29 60//29
f 60//29 59//29 56//29
f 56//29 59//29 55//29
f 61//30 61//30 62//30
f 62//30 61//30 60//30
f 60//30 61//30 59//30
f 57//31 57//31 63//31
f 63//31 57//31 64//31
f 64//31 57//31 62//31
f 65//32 65//32 66//32
f 66//32 65//32 67//32
f 67//32 65//32 68//32
f 69//33 69//33 70//33
f 70//33 69//33 66//33
f 66//33 69//33 65//33
f 71//34 71//34 72//34
f 72//34 71//34 70//34
f 70//34 71//34 69//34
f 67//35 67//35 73//35
f 73//35 67//35 74//35
f 74//35 67//35 72//35
f 68//36 68//36 73//36
f 73//36 68//36 64//36
f 64//36 68//36 61//36
f 58//37 58//37 63//37
f 63//37 58//37 74//37
f 74//37 58//37 71//37
g 4
usemtl 1
v 13.25 15.0 -14.899902
v 13.25 15.0 -10.371979
v 11.375 15.5 -10.371979
v 11.375 15.5 -14.899902
v 6.875 -2.0 -14.899902
v 6.875 -2.0 -10.371979
v 5.0 -1.0 -14.899902
v 5.0 -1.0 -8.426788
v 0.5 0.5 -8.426788
v 0.5 0.5 -14.899902
v 11.375 15.5 -8.426788
v 5.0 -1.0 -10.371979
v -1.5 1.5 -14.899902
v -1.5 1.5 -10.371979
v 0.5 0.5 -10.371979
v 5.0 18.0 -14.899902
v 5.0 18.0 -10.371979
v 6.75 17.5 -14.899902
v 6.75 17.5 -10.371979
v 6.75 17.5 -8.426788
vn 0.402757 0.915307 0.0
vn 0.93293184 -0.36005294 0.0
vn 0.352356 0.935866 0.0
vn -0.93589693 0.35227397 0.0
vn -0.36005294 -0.93293184 0.0
vn -0.93293184 0.36005294 0.0
vn 0.32166696 0.94685286 0.0
vn 0.93690944 -0.34957218 0.0
vn 0.3561659 0.93442273 0.0
vn -0.37944806 -0.9252131 0.0
f 75//38 75//38 76//38
f 76//38 75//38 77//38
f 77//38 75//38 78//38
f 79//39 79//39 80//39
f 80//39 79//39 76//39
f 76//39 79//39 75//39
f 81//40 81//40 82//40
f 82//40 81//40 83//40
f 83//40 81//40 84//40
f 77//41 77//41 85//41
f 85//41 77//41 82//41
f 82//41 77//41 86//41
f 87//42 87//42 88//42
f 88//42 87//42 89//42
f 89//42 87//42 84//42
f 90//43 90//43 91//43
f 91//43 90//43 88//43
f 88//43 90//43 87//43
f 92//44 92//44 93//44
f 93//44 92//44 91//44
f 91//44 92//44 90//44
f 89//45 89//45 83//45
f 83//45 89//45 94//45
f 94//45 89//45 93//45
f 78//46 78//46 85//46
f 85//46 78//46 94//46
f 94//46 78//46 92//46
f 81//47 81//47 86//47
f 86//47 81//47 80//47
f 80//47 81//47 79//47
g 5
usemtl 1
v -30.375 15.0 -14.899902
v -30.375 15.0 -10.517151
v -27.75 14.0 -10.517151
v -27.75 14.0 -14.899902
v -23.125 31.5 -14.899902
v -23.125 31.5 -10.517151
v -21.125 11.0 -14.899902
v -21.125 11.0 -10.517151
v -13.875 27.5 -10.517151
v -13.875 27.5 -14.899902
v -23.25 12.0 -14.899902
v -23.25 12.0 -10.517151
v -16.25 28.5 -10.517151
v -16.25 28.5 -7.3840027
v -23.25 12.0 -7.3840027
v -20.75 30.5 -14.899902
v -20.75 30.5 -7.3840027
v -16.25 28.5 -14.899902
v -27.75 14.0 -7.3840027
v -20.75 30.5 -10.517151
v -29.75 -5.0 -14.899902
v -29.75 -5.0 -7.3840027
v -27.75 1.0 -7.3840027
v -27.75 1.0 -14.899902
v -48.125 2.0 -14.899902
v -48.125 2.0 -7.3840027
v -46.125 7.5 -14.899902
v -46.125 7.5 -7.3840027
v -35.25 3.5 -14.899902
v -35.25 3.5 -7.3840027
v -31.0 6.0 -14.899902
v -31.0 6.0 -7.3840027
vn -0.39766896 -0.9175289 0.0
vn -0.9175289 0.39766896 0.0
vn 0.9175289 -0.39766896 0.0
vn -0.92233 0.386403 0.0
vn -0.386403 -0.92233 0.0
vn 0.92233 -0.386403 0.0
vn 0.9452169 -0.32644296 0.0
vn -0.33938012 -0.94064933 0.0
vn -0.94064933 0.33938012 0.0
vn 0.33938012 0.94064933 0.0
vn -0.5144071 0.85754615 0.0
vn 0.39540905 0.91850513 0.0
vn 0.42010683 0.90747464 0.0
vn 0.9252299 -0.37940693 0.0
f 95//48 95//48 96//48
f 96//48 95//48 97//48
f 97//48 95//48 98//48
f 99//49 99//49 100//49
f 100//49 99//49 96//49
f 96//49 99//49 95//49
f 101//50 101//50 102//50
f 102//50 101//50 103//50
f 103//50 101//50 104//50
f 105//48 105//48 106//48
f 106//48 105//48 102//48
f 102//48 105//48 101//48
f 107//51 107//51 108//51
f 108//51 107//51 109//51
f 109//51 107//51 106//51
f 110//52 110//52 111//52
f 111//52 110//52 108//52
f 108//52 110//52 112//52
f 97//53 97//53 113//53
f 113//53 97//53 111//53
f 111//53 97//53 114//53
f 115//54 115//54 116//54
f 116//54 115//54 117//54
f 117//54 115//54 118//54
f 119//55 119//55 120//55
f 120//55 119//55 116//55
f 116//55 119//55 115//55
f 121//56 121//56 122//56
f 122//56 121//56 120//56
f 120//56 121//56 119//56
f 123//57 123//57 124//57
f 124//57 123//57 122//57
f 122//57 123//57 121//57
f 125//58 125//58 126//58
f 126//58 125//58 124//58
f 124//58 125//58 123//58
f 104//59 104//59 103//59
f 103//59 104//59 107//59
f 107//59 104//59 112//59
f 110//60 110//60 114//60
f 114//60 110//60 100//60
f 100//60 110//60 99//60
f 98//51 98//51 113//51
f 113//51 98//51 126//51
f 126//51 98//51 125//51
f 118//61 118//61 117//61
f 117//61 118//61 109//61
f 109//61 118//61 105//61
g 6
usemtl 1
v -29.125 34.5 -14.899902
v -29.125 34.5 -9.610886
v -33.75 24.0 -9.610886
v -33.75 24.0 -14.899902
v -41.375 27.5 -14.899902
v -41.375 27.5 -11.51059
v -39.625 27.0 -11.51059
v -39.625 27.0 -14.899902
v -36.75 38.0 -14.899902
v -36.75 38.0 -11.51059
v -35.0 37.0 -14.899902
v -35.0 37.0 -11.51059
v -39.625 27.0 -9.610886
v -35.0 37.0 -9.610886
v -42.625 20.5 -14.899902
v -42.625 20.5 -9.610886
v -36.625 18.0 -9.610886
v -36.625 18.0 -14.899902
vn -0.91219425 0.4097581 0.0
vn -0.407964 -0.912998 0.0
vn -0.9129983 0.40796316 0.0
vn 0.36849904 0.92962813 0.0
vn 0.91219425 -0.4097581 0.0
vn -0.4097581 -0.91219425 0.0
vn 0.4088609 0.9125967 0.0
f 127//62 127//62 128//62
f 128//62 127//62 129//62
f 129//62 127//62 130//62
f 131//63 131//63 132//63
f 132//63 131//63 133//63
f 133//63 131//63 134//63
f 135//64 135//64 136//64
f 136//64 135//64 132//64
f 132//64 135//64 131//64
f 137//65 137//65 138//65
f 138//65 137//65 136//65
f 136//65 137//65 135//65
f 133//66 133//66 139//66
f 139//66 133//66 140//66
f 140//66 133//66 138//66
f 141//67 141//67 142//67
f 142//67 141//67 143//67
f 143//67 141//67 144//67
f 127//68 127//68 128//68
f 128//68 127//68 140//68
f 140//68 127//68 137//68
f 144//66 144//66 143//66
f 143//66 144//66 129//66
f 129//66 144//66 130//66
f 134//62 134//62 139//62
f 139//62 134//62 142//62
f 142//62 134//62 141//62
g 7
usemtl 1
v -63.125 37.5 -14.899902
v -63.125 37.5 -11.528702
v -62.125 37.0 -11.528702
v -62.125 37.0 -14.899902
v -58.625 48.0 -14.899902
v -58.625 48.0 -11.528702
v -57.5 47.5 -14.899902
v -57.5 47.5 -11.528702
v -62.125 37.0 -10.411179
v -57.5 47.5 -10.411179
v -64.875 30.5 -14.899902
v -64.875 30.5 -10.411179
v -63.375 30.0 -10.411179
v -63.375 30.0 -14.899902
v -50.875 44.5 -14.899902
v -50.875 44.5 -10.411179
v -58.25 28.0 -14.899902
v -58.25 28.0 -10.411179
v -59.75 28.5 -14.899902
v -59.75 28.5 -8.725708
v -61.25 29.0 -8.725708
v -61.25 29.0 -14.899902
v -52.5 45.0 -10.411179
v -52.5 45.0 -8.725708
v -59.75 28.5 -10.411179
v -56.125 46.5 -10.411179
v -56.125 46.5 -8.725708
v -63.375 30.0 -8.725708
vn -0.394092 -0.919071 0.0
vn -0.919071 0.394092 0.0
vn 0.45998013 0.88792926 0.0
vn 0.9132085 -0.40749276 0.0
vn -0.40392998 -0.9147899 0.0
vn 0.4096989 0.9122208 0.0
vn 0.9147899 -0.40392998 0.0
vn 0.40221593 0.9155448 0.0
vn -0.9155452 0.4022151 0.0
vn -0.4022151 -0.9155452 0.0
vn 0.9155452 -0.4022151 0.0
vn -0.9147899 0.40392998 0.0
vn -0.40560108 -0.9140502 0.0
vn 0.40392998 0.9147899 0.0
f 145//69 145//69 146//69
f 146//69 145//69 147//69
f 147//69 145//69 148//69
f 149//70 149//70 150//70
f 150//70 149//70 146//70
f 146//70 149//70 145//70
f 151//71 151//71 152//71
f 152//71 151//71 150//71
f 150//71 151//71 149//71
f 147//72 147//72 153//72
f 153//72 147//72 154//72
f 154//72 147//72 152//72
f 155//73 155//73 156//73
f 156//73 155//73 157//73
f 157//73 155//73 158//73
f 159//74 159//74 160//74
f 160//74 159//74 154//74
f 154//74 159//74 151//74
f 161//75 161//75 162//75
f 162//75 161//75 160//75
f 160//75 161//75 159//75
f 163//76 163//76 164//76
f 164//76 163//76 165//76
f 165//76 163//76 166//76
f 167//77 167//77 168//77
f 168//77 167//77 164//77
f 164//77 167//77 169//77
f 170//78 170//78 171//78
f 171//78 170//78 168//78
f 168//78 170//78 167//78
f 157//79 157//79 172//79
f 172//79 157//79 171//79
f 171//79 157//79 170//79
f 148//80 148//80 153//80
f 153//80 148//80 156//80
f 156//80 148//80 155//80
f 163//81 163//81 169//81
f 169//81 163//81 162//81
f 162//81 163//81 161//81
f 166//82 166//82 165//82
f 165//82 166//82 172//82
f 172//82 166//82 158//82
g 8
usemtl 1
v -68.25 52.5 -14.899902
v -68.25 52.5 -8.425735
v -64.875 51.0 -8.425735
v -64.875 51.0 -14.899902
v -72.0 34.5 -10.535889
v -72.0 34.5 -8.425735
v -75.5 36.0 -8.425735
v -75.5 36.0 -10.535889
v -75.5 44.0 -14.899902
v -75.5 44.0 -11.698273
v -74.625 43.5 -11.698273
v -74.625 43.5 -14.899902
v -71.125 53.5 -14.899902
v -71.125 53.5 -11.698273
v -69.125 52.5 -14.899902
v -69.125 52.5 -11.698273
v -70.375 53.0 -14.899902
v -70.375 53.0 -11.698273
v -74.625 43.5 -10.535889
v -70.375 53.0 -10.535889
v -63.25 49.5 -14.899902
v -63.25 49.5 -10.535889
v -65.125 50.5 -10.535889
v -65.125 50.5 -14.899902
v -70.375 33.5 -14.899902
v -70.375 33.5 -10.535889
v -77.625 36.5 -14.899902
v -77.625 36.5 -10.535889
v -68.5 52.0 -14.899902
v -68.5 52.0 -10.535889
v -68.5 52.0 -8.425735
v -65.125 50.5 -8.425735
vn -0.39647314 -0.91804636 0.0
vn 0.39647314 0.91804636 0.0
vn -0.41094708 -0.91165924 0.0
vn -0.91165924 0.41094708 0.0
vn 0.49221173 0.87047553 0.0
vn -0.2535109 -0.96733254 0.0
vn 0.9161983 -0.40072516 0.0
vn 0.40072516 0.9161983 0.0
vn -0.40072516 -0.9161983 0.0
vn 0.91804636 -0.39647314 0.0
vn -0.91804636 0.39647314 0.0
vn -0.918046 0.396474 0.0
vn -0.9161985 0.40072477 0.0
f 173//83 173//83 174//83
f 174//83 173//83 175//83
f 175//83 173//83 176//83
f 177//84 177//84 178//84
f 178//84 177//84 179//84
f 179//84 177//84 180//84
f 181//85 181//85 182//85
f 182//85 181//85 183//85
f 183//85 181//85 184//85
f 185//86 185//86 186//86
f 186//86 185//86 182//86
f 182//86 185//86 181//86
f 187//87 187//87 188//87
f 188//87 187//87 186//87
f 186//87 187//87 185//87
f 189//88 189//88 190//88
f 190//88 189//88 188//88
f 188//88 189//88 187//88
f 183//89 183//89 191//89
f 191//89 183//89 192//89
f 192//89 183//89 190//89
f 193//90 193//90 194//90
f 194//90 193//90 195//90
f 195//90 193//90 196//90
f 197//89 197//89 198//89
f 198//89 197//89 194//89
f 194//89 197//89 193//89
f 199//91 199//91 200//91
f 200//91 199//91 198//91
f 198//91 199//91 197//91
f 201//90 201//90 202//90
f 202//90 201//90 192//90
f 192//90 201//90 189//90
f 180//92 180//92 179//92
f 179//92 180//92 203//92
f 203//92 180//92 202//92
f 195//93 195//93 204//93
f 204//93 195//93 178//93
f 178//93 195//93 177//93
f 176//94 176//94 175//94
f 175//94 176//94 204//94
f 204//94 176//94 196//94
f 201//92 201//92 203//92
f 203//92 201//92 174//92
f 174//92 201//92 173//92
f 184//95 184//95 191//95
f 191//95 184//95 200//95
f 200//95 184//95 199//95
g 9
usemtl 1
v -85.75 60.5 -14.899902
v -85.75 60.5 -4.9265594
v -80.625 58.0 -4.9265594
v -80.625 58.0 -14.899902
v -92.125 47.0 -14.899902
v -92.125 47.0 -4.9265594
v -76.375 56.0 -14.899902
v -76.375 56.0 -9.653702
v -78.375 57.0 -9.653702
v -78.375 57.0 -14.899902
v -84.375 38.0 -14.899902
v -84.375 38.0 -9.653702
v -93.625 42.0 -14.899902
v -93.625 42.0 -9.653702
v -91.75 46.5 -14.899902
v -91.75 46.5 -9.653702
v -87.125 44.5 -9.653702
v -87.125 44.5 -4.9265594
v -91.75 46.5 -4.9265594
v -82.25 54.5 -9.653702
v -82.25 54.5 -4.9265594
v -87.625 43.0 -9.653702
v -87.625 43.0 -7.4141083
v -82.25 54.5 -7.4141083
v -85.25 42.0 -9.653702
v -85.25 42.0 -7.4141083
v -78.375 57.0 -7.4141083
v -80.625 58.0 -7.4141083
vn -0.4215902 -0.90678644 0.0
vn 0.9033591 -0.42888507 0.0
vn 0.42521393 0.9050929 0.0
vn 0.91452825 -0.4045221 0.0
vn -0.4045221 -0.91452825 0.0
vn -0.91452825 0.4045221 0.0
vn 0.42888507 0.9033591 0.0
vn -0.9033591 0.42888507 0.0
vn 0.90886927 -0.4170811 0.0
vn 0.4170811 0.90886927 0.0
vn -0.90886927 0.4170811 0.0
vn -0.4179382 -0.9084754 0.0
vn 0.42888585 0.9033587 0.0
vn -0.9061657 0.42292285 0.0
f 205//96 205//96 206//96
f 206//96 205//96 207//96
f 207//96 205//96 208//96
f 209//97 209//97 210//97
f 210//97 209//97 206//97
f 206//97 209//97 205//97
f 211//98 211//98 212//98
f 212//98 211//98 213//98
f 213//98 211//98 214//98
f 215//99 215//99 216//99
f 216//99 215//99 212//99
f 212//99 215//99 211//99
f 217//100 217//100 218//100
f 218//100 217//100 216//100
f 216//100 217//100 215//100
f 219//101 219//101 220//101
f 220//101 219//101 218//101
f 218//101 219//101 217//101
f 221//102 221//102 222//102
f 222//102 221//102 223//102
f 223//102 221//102 220//102
f 224//103 224//103 225//103
f 225//103 224//103 222//103
f 222//103 224//103 221//103
f 226//104 226//104 227//104
f 227//104 226//104 228//104
f 228//104 226//104 224//104
f 229//105 229//105 230//105
f 230//105 229//105 227//105
f 227//105 229//105 226//105
f 213//106 213//106 231//106
f 231//106 213//106 230//106
f 230//106 213//106 229//106
f 208//107 208//107 232//107
f 232//107 208//107 231//107
f 231//107 208//107 214//107
f 219//108 219//108 223//108
f 223//108 219//108 210//108
f 210//108 219//108 209//108
f 232//109 232//109 207//109
f 207//109 232//109 225//109
f 225//109 232//109 228//109
