mtllib Wall_Hini_6.0_Slope_1.5.mtl
g 1
usemtl 1
v 32.75 5.0 -14.899902
v 32.75 5.0 -2.9263306
v 22.875 -23.0 -2.9263306
v 22.875 -23.0 -14.899902
v 41.75 1.5 -14.899902
v 41.75 1.5 -2.9263306
v 31.5 -26.0 -14.899902
v 31.5 -26.0 -2.9263306
v 29.5 -31.0 -14.899902
v 29.5 -31.0 -2.9263306
v 21.25 -28.0 -14.899902
v 21.25 -28.0 -2.9263306
vn -0.9415329 0.33692098 0.0
vn 0.343365 0.939202 0.0
vn 0.9379317 -0.3468199 0.0
vn 0.93549085 -0.35335094 0.0
vn -0.33446297 -0.9424089 0.0
vn -0.95409256 0.29951188 0.0
f 1//1 1//1 2//1
f 2//1 1//1 3//1
f 3//1 1//1 4//1
f 5//2 5//2 6//2
f 6//2 5//2 2//2
f 2//2 5//2 1//2
f 7//3 7//3 8//3
f 8//3 7//3 6//3
f 6//3 7//3 5//3
f 9//4 9//4 10//4
f 10//4 9//4 8//4
f 8//4 9//4 7//4
f 11//5 11//5 12//5
f 12//5 11//5 10//5
f 10//5 11//5 9//5
f 4//6 4//6 3//6
f 3//6 4//6 12//6
f 12//6 4//6 11//6
g 2
usemtl 1
v 27.0 8.5 -14.899902
v 27.0 8.5 -6.8078156
v 26.25 9.0 -6.8078156
v 26.25 9.0 -14.899902
v 23.25 -2.0 -14.899902
v 23.25 -2.0 -6.8078156
v 22.25 -2.0 -14.899902
v 22.25 -2.0 -6.8078156
v 26.25 9.0 -5.3017426
v 22.25 -2.0 -5.3017426
v 24.75 9.5 -5.3017426
v 24.75 9.5 -14.899902
v 18.25 -7.5 -14.899902
v 18.25 -7.5 -5.3017426
v 20.0 -8.0 -5.3017426
v 20.0 -8.0 -14.899902
v 24.75 9.5 -2.9075623
v 18.25 -7.5 -2.9075623
v 12.25 -5.0 -14.899902
v 12.25 -5.0 -5.3017426
v 13.5 -5.5 -5.3017426
v 13.5 -5.5 -14.899902
v 18.5 12.0 -14.899902
v 18.5 12.0 -5.3017426
v 20.125 11.5 -14.899902
v 20.125 11.5 -5.3017426
v 13.5 -5.5 -2.9075623
v 20.125 11.5 -2.9075623
vn 0.42844695 0.9035669 0.0
vn 0.9436518 -0.33093995 0.0
vn -0.33093995 -0.9436518 0.0
vn -0.93584913 0.35240102 0.0
vn 0.44265178 0.8966936 0.0
vn -0.3209321 -0.94710225 0.0
vn -0.9315407 0.36363688 0.0
vn -0.37399784 -0.9274296 0.0
vn 0.29191297 0.95644486 0.0
vn 0.9315407 -0.36363688 0.0
vn -0.358025 -0.933712 0.0
vn 0.358025 0.933712 0.0
vn 0.93584913 -0.35240102 0.0
f 13//7 13//7 14//7
f 14//7 13//7 15//7
f 15//7 13//7 16//7
f 17//8 17//8 18//8
f 18//8 17//8 14//8
f 14//8 17//8 13//8
f 19//9 19//9 20//9
f 20//9 19//9 18//9
f 18//9 19//9 17//9
f 15//10 15//10 21//10
f 21//10 15//10 22//10
f 22//10 15//10 20//10
f 16//11 16//11 21//11
f 21//11 16//11 23//11
f 23//11 16//11 24//11
f 25//12 25//12 26//12
f 26//12 25//12 27//12
f 27//12 25//12 28//12
f 23//13 23//13 29//13
f 29//13 23//13 30//13
f 30//13 23//13 26//13
f 31//14 31//14 32//14
f 32//14 31//14 33//14
f 33//14 31//14 34//14
f 35//10 35//10 36//10
f 36//10 35//10 32//10
f 32//10 35//10 31//10
f 37//15 37//15 38//15
f 38//15 37//15 36//15
f 36//15 37//15 35//15
f 33//16 33//16 39//16
f 39//16 33//16 40//16
f 40//16 33//16 38//16
f 34//17 34//17 39//17
f 39//17 34//17 30//17
f 30//17 34//17 25//17
f 24//18 24//18 29//18
f 29//18 24//18 40//18
f 40//18 24//18 37//18
f 28//19 28//19 27//19
f 27//19 28//19 22//19
f 22//19 28//19 19//19
g 3
usemtl 1
v -0.375 21.0 -14.899902
v -0.375 21.0 -5.2574615
v -1.875 22.0 -5.2574615
v -1.875 22.0 -14.899902
v -6.75 4.5 -14.899902
v -6.75 4.5 -5.2574615
v -8.25 5.0 -14.899902
v -8.25 5.0 -5.2574615
v -1.875 22.0 -2.9120483
v -8.25 5.0 -2.9120483
v -15.125 8.0 -14.899902
v -15.125 8.0 -5.2574615
v -13.625 7.0 -5.2574615
v -13.625 7.0 -14.899902
v -8.75 24.5 -14.899902
v -8.75 24.5 -5.2574615
v -7.25 24.0 -14.899902
v -7.25 24.0 -5.2574615
v -13.625 7.0 -2.9120483
v -7.25 24.0 -2.9120483
vn 0.3983769 0.9172218 0.0
vn 0.9336986 -0.35805985 0.0
vn -0.31706402 -0.94840413 0.0
vn -0.93449396 0.35597897 0.0
vn -0.39856216 -0.9171414 0.0
vn -0.9336986 0.35805985 0.0
vn 0.3222819 0.94664377 0.0
vn 0.9344944 -0.35597813 0.0
vn 0.35701904 0.9340971 0.0
vn -0.35701904 -0.9340971 0.0
f 41//20 41//20 42//20
f 42//20 41//20 43//20
f 43//20 41//20 44//20
f 45//21 45//21 46//21
f 46//21 45//21 42//21
f 42//21 45//21 41//21
f 47//22 47//22 48//22
f 48//22 47//22 46//22
f 46//22 47//22 45//22
f 43//23 43//23 49//23
f 49//23 43//23 50//23
f 50//23 43//23 48//23
f 51//24 51//24 52//24
f 52//24 51//24 53//24
f 53//24 51//24 54//24
f 55//25 55//25 56//25
f 56//25 55//25 52//25
f 52//25 55//25 51//25
f 57//26 57//26 58//26
f 58//26 57//26 56//26
f 56//26 57//26 55//26
f 53//27 53//27 59//27
f 59//27 53//27 60//27
f 60//27 53//27 58//27
f 44//28 44//28 49//28
f 49//28 44//28 60//28
f 60//28 44//28 57//28
f 54//29 54//29 59//29
f 59//29 54//29 50//29
f 50//29 54//29 47//29
g 4
usemtl 1
v 0.125 8.5 -14.899902
v 0.125 8.5 -7.078171
v 1.125 8.0 -7.078171
v 1.125 8.0 -14.899902
v 4.0 19.0 -14.899902
v 4.0 19.0 -7.078171
v 5.875 18.5 -14.899902
v 5.875 18.5 -7.078171
v 5.625 18.0 -14.899902
v 5.625 18.0 -7.078171
v 5.0 18.0 -7.078171
v 5.0 18.0 -5.118988
v 5.625 18.0 -5.118988
v 1.125 8.0 -5.118988
v -1.5 1.5 -14.899902
v -1.5 1.5 -5.118988
v -0.125 1.0 -5.118988
v -0.125 1.0 -14.899902
v -0.125 1.0 -2.903946
v 6.375 17.5 -2.903946
v 6.375 17.5 -5.118988
v 14.375 14.5 -14.899902
v 14.375 14.5 -6.955658
v 13.25 15.0 -6.955658
v 13.25 15.0 -14.899902
v 10.25 4.0 -14.899902
v 10.25 4.0 -6.955658
v 9.25 4.5 -14.899902
v 9.25 4.5 -6.955658
v 13.25 15.0 -5.118988
v 9.25 4.5 -5.118988
v 11.875 15.5 -5.118988
v 11.875 15.5 -14.899902
v 5.375 -1.5 -14.899902
v 5.375 -1.5 -5.118988
v 6.875 -2.0 -5.118988
v 6.875 -2.0 -14.899902
v 11.875 15.5 -2.903946
v 5.375 -1.5 -2.903946
v 6.375 17.5 -14.899902
vn -0.35454708 -0.9350382 0.0
vn -0.93503785 0.35454798 0.0
vn 0.35454798 0.93503785 0.0
vn 0.93503785 -0.35454798 0.0
vn -0.35952687 -0.9331347 0.0
vn 0.9331347 -0.35952687 0.0
vn -0.4067441 -0.9135422 0.0
vn 0.93234926 -0.3615591 0.0
vn 0.41294906 0.91075414 0.0
vn 0.9296777 -0.36837387 0.0
vn -0.36837304 -0.92967814 0.0
vn -0.9331347 0.35952687 0.0
vn 0.42426506 0.90553814 0.0
vn -0.308424 -0.951249 0.0
vn -0.93234926 0.3615591 0.0
vn 0.36054286 0.9327426 0.0
vn -0.36054286 -0.9327426 0.0
vn 0.29872298 0.95433986 0.0
f 61//30 61//30 62//30
f 62//30 61//30 63//30
f 63//30 61//30 64//30
f 65//31 65//31 66//31
f 66//31 65//31 62//31
f 62//31 65//31 61//31
f 67//32 67//32 68//32
f 68//32 67//32 66//32
f 66//32 67//32 65//32
f 69//33 69//33 70//33
f 70//33 69//33 68//33
f 68//33 69//33 67//33
f 71//34 71//34 72//34
f 72//34 71//34 73//34
f 73//34 71//34 70//34
f 63//35 63//35 74//35
f 74//35 63//35 72//35
f 72//35 63//35 71//35
f 75//36 75//36 76//36
f 76//36 75//36 77//36
f 77//36 75//36 78//36
f 77//37 77//37 79//37
f 79//37 77//37 80//37
f 80//37 77//37 81//37
f 82//38 82//38 83//38
f 83//38 82//38 84//38
f 84//38 82//38 85//38
f 86//39 86//39 87//39
f 87//39 86//39 83//39
f 83//39 86//39 82//39
f 88//40 88//40 89//40
f 89//40 88//40 87//40
f 87//40 88//40 86//40
f 84//41 84//41 90//41
f 90//41 84//41 91//41
f 91//41 84//41 89//41
f 85//42 85//42 90//42
f 90//42 85//42 92//42
f 92//42 85//42 93//42
f 94//43 94//43 95//43
f 95//43 94//43 96//43
f 96//43 94//43 97//43
f 92//44 92//44 98//44
f 98//44 92//44 99//44
f 99//44 92//44 95//44
f 93//45 93//45 98//45
f 98//45 93//45 80//45
f 80//45 93//45 100//45
f 78//46 78//46 79//46
f 79//46 78//46 99//46
f 99//46 78//46 94//46
f 64//41 64//41 74//41
f 74//41 64//41 76//41
f 76//41 64//41 75//41
f 100//47 100//47 81//47
f 81//47 100//47 73//47
f 73//47 100//47 69//47
f 97//35 97//35 96//35
f 96//35 97//35 91//35
f 91//35 97//35 88//35
g 5
usemtl 1
v -13.625 27.5 -14.899902
v -13.625 27.5 -5.654709
v -16.625 29.0 -5.654709
v -16.625 29.0 -14.899902
v -20.75 11.0 -14.899902
v -20.75 11.0 -5.654709
v -23.25 12.0 -14.899902
v -23.25 12.0 -5.654709
v -16.625 29.0 -2.912857
v -23.25 12.0 -2.912857
v -30.375 15.0 -14.899902
v -30.375 15.0 -5.654709
v -27.75 14.0 -5.654709
v -27.75 14.0 -14.899902
v -23.25 31.5 -14.899902
v -23.25 31.5 -5.654709
v -21.125 30.5 -14.899902
v -21.125 30.5 -2.912857
v -19.25 30.0 -2.912857
v -19.25 30.0 -14.899902
v -27.75 14.0 -2.912857
v -21.125 30.5 -5.654709
v -29.75 -5.0 -14.899902
v -29.75 -5.0 -2.912857
v -27.75 0.5 -2.912857
v -27.75 0.5 -14.899902
v -48.125 2.0 -14.899902
v -48.125 2.0 -2.912857
v -46.125 7.5 -14.899902
v -46.125 7.5 -2.912857
v -35.875 3.5 -14.899902
v -35.875 3.5 -2.912857
v -30.875 5.5 -14.899902
v -30.875 5.5 -2.912857
vn 0.400179 0.916437 0.0
vn 0.9209359 -0.38971397 0.0
vn -0.38971397 -0.9209359 0.0
vn -0.93120927 0.36448509 0.0
vn -0.9209359 0.38971397 0.0
vn -0.36448509 -0.93120927 0.0
vn 0.93120927 -0.36448509 0.0
vn 0.939346 -0.342971 0.0
vn -0.34562492 -0.93837273 0.0
vn -0.93837273 0.34562492 0.0
vn 0.34562492 0.93837273 0.0
vn -0.4039488 0.91478163 0.0
vn 0.41172424 0.9113085 0.0
vn 0.37713683 0.9261576 0.0
vn 0.9288241 -0.37052104 0.0
f 101//48 101//48 102//48
f 102//48 101//48 103//48
f 103//48 101//48 104//48
f 105//49 105//49 106//49
f 106//49 105//49 102//49
f 102//49 105//49 101//49
f 107//50 107//50 108//50
f 108//50 107//50 106//50
f 106//50 107//50 105//50
f 103//51 103//51 109//51
f 109//51 103//51 110//51
f 110//51 103//51 108//51
f 111//50 111//50 112//50
f 112//50 111//50 113//50
f 113//50 111//50 114//50
f 115//52 115//52 116//52
f 116//52 115//52 112//52
f 112//52 115//52 111//52
f 117//53 117//53 118//53
f 118//53 117//53 119//53
f 119//53 117//53 120//53
f 113//54 113//54 121//54
f 121//54 113//54 118//54
f 118//54 113//54 122//54
f 123//55 123//55 124//55
f 124//55 123//55 125//55
f 125//55 123//55 126//55
f 127//56 127//56 128//56
f 128//56 127//56 124//56
f 124//56 127//56 123//56
f 129//57 129//57 130//57
f 130//57 129//57 128//57
f 128//57 129//57 127//57
f 131//58 131//58 132//58
f 132//58 131//58 130//58
f 130//58 131//58 129//58
f 133//59 133//59 134//59
f 134//59 133//59 132//59
f 132//59 133//59 131//59
f 117//60 117//60 122//60
f 122//60 117//60 116//60
f 116//60 117//60 115//60
f 114//51 114//51 121//51
f 121//51 114//51 134//51
f 134//51 114//51 133//51
f 104//61 104//61 109//61
f 109//61 104//61 119//61
f 119//61 104//61 120//61
f 126//62 126//62 125//62
f 125//62 126//62 110//62
f 110//62 126//62 107//62
g 6
usemtl 1
v -51.0 32.0 -14.899902
v -51.0 32.0 -6.8221283
v -50.0 31.5 -6.8221283
v -50.0 31.5 -14.899902
v -46.5 42.5 -14.899902
v -46.5 42.5 -6.8221283
v -45.375 42.0 -14.899902
v -45.375 42.0 -6.8221283
v -50.0 31.5 -5.1298523
v -45.375 42.0 -5.1298523
v -40.25 39.5 -14.899902
v -40.25 39.5 -6.7471313
v -41.375 40.0 -6.7471313
v -41.375 40.0 -14.899902
v -45.0 29.0 -14.899902
v -45.0 29.0 -6.7471313
v -46.0 29.5 -14.899902
v -46.0 29.5 -6.7471313
v -41.375 40.0 -5.1298523
v -46.0 29.5 -5.1298523
v -48.75 23.5 -14.899902
v -48.75 23.5 -5.1298523
v -52.75 25.0 -5.1298523
v -52.75 25.0 -14.899902
vn -0.4006312 -0.91623944 0.0
vn -0.91623944 0.4006312 0.0
vn 0.3586979 0.9334537 0.0
vn 0.9134376 -0.4069788 0.0
vn 0.41862994 0.9081569 0.0
vn 0.9112869 -0.41177195 0.0
vn -0.41177115 -0.9112873 0.0
vn -0.9134376 0.4069788 0.0
vn 0.4069788 0.9134376 0.0
vn -0.39791593 -0.9174219 0.0
f 135//63 135//63 136//63
f 136//63 135//63 137//63
f 137//63 135//63 138//63
f 139//64 139//64 140//64
f 140//64 139//64 136//64
f 136//64 139//64 135//64
f 141//65 141//65 142//65
f 142//65 141//65 140//65
f 140//65 141//65 139//65
f 137//66 137//66 143//66
f 143//66 137//66 144//66
f 144//66 137//66 142//66
f 145//67 145//67 146//67
f 146//67 145//67 147//67
f 147//67 145//67 148//67
f 149//68 149//68 150//68
f 150//68 149//68 146//68
f 146//68 149//68 145//68
f 151//69 151//69 152//69
f 152//69 151//69 150//69
f 150//69 151//69 149//69
f 147//70 147//70 153//70
f 153//70 147//70 154//70
f 154//70 147//70 152//70
f 155//71 155//71 156//71
f 156//71 155//71 157//71
f 157//71 155//71 158//71
f 141//72 141//72 144//72
f 144//72 141//72 153//72
f 153//72 141//72 148//72
f 158//66 158//66 157//66
f 157//66 158//66 143//66
f 143//66 158//66 138//66
f 151//70 151//70 154//70
f 154//70 151//70 156//70
f 156//70 151//70 155//70
g 7
usemtl 1
v -43.375 20.5 -14.899902
v -43.375 20.5 -3.0027924
v -36.0 17.5 -3.0027924
v -36.0 17.5 -14.899902
v -35.75 37.5 -14.899902
v -35.75 37.5 -3.0027924
v -28.375 34.0 -14.899902
v -28.375 34.0 -3.0027924
v -41.875 20.5 -5.2273254
v -41.875 20.5 -3.0027924
v -34.375 36.5 -3.0027924
v -34.375 36.5 -5.2273254
v -37.25 18.5 -5.2273254
v -37.25 18.5 -3.0027924
v -29.75 34.5 -5.2273254
v -29.75 34.5 -3.0027924
vn -0.41357788 -0.9104687 0.0
vn -0.9104687 0.41357788 0.0
vn 0.41357788 0.9104687 0.0
vn 0.9104687 -0.41357788 0.0
vn 0.90958726 -0.4155131 0.0
vn 0.4155131 0.90958726 0.0
vn -0.90958726 0.4155131 0.0
vn -0.4155131 -0.90958726 0.0
f 159//73 159//73 160//73
f 160//73 159//73 161//73
f 161//73 159//73 162//73
f 163//74 163//74 164//74
f 164//74 163//74 160//74
f 160//74 163//74 159//74
f 165//75 165//75 166//75
f 166//75 165//75 164//75
f 164//75 165//75 163//75
f 162//76 162//76 161//76
f 161//76 162//76 166//76
f 166//76 162//76 165//76
f 167//77 167//77 168//77
f 168//77 167//77 169//77
f 169//77 167//77 170//77
f 171//78 171//78 172//78
f 172//78 171//78 168//78
f 168//78 171//78 167//78
f 173//79 173//79 174//79
f 174//79 173//79 172//79
f 172//79 173//79 171//79
f 170//80 170//80 169//80
f 169//80 170//80 174//80
f 174//80 170//80 173//80
g 8
usemtl 1
v -63.125 37.5 -14.899902
v -63.125 37.5 -6.796585
v -61.875 37.0 -6.796585
v -61.875 37.0 -14.899902
v -58.625 48.0 -14.899902
v -58.625 48.0 -6.796585
v -49.875 44.0 -14.899902
v -49.875 44.0 -6.796585
v -54.375 34.0 -14.899902
v -54.375 34.0 -6.796585
v -55.5 34.5 -14.899902
v -55.5 34.5 -6.796585
v -51.125 44.5 -6.796585
v -51.125 44.5 -4.913452
v -55.5 34.5 -4.913452
v -57.5 47.0 -6.796585
v -57.5 47.0 -4.913452
v -61.875 37.0 -4.913452
v -58.375 28.0 -14.899902
v -58.375 28.0 -4.913452
v -64.75 30.5 -4.913452
v -64.75 30.5 -14.899902
vn -0.40248197 -0.9154279 0.0
vn -0.9154279 0.40248197 0.0
vn 0.40248197 0.9154279 0.0
vn 0.9154279 -0.40248197 0.0
vn -0.915163 0.403084 0.0
vn -0.40308318 -0.9151634 0.0
vn 0.915163 -0.403084 0.0
vn 0.40308318 0.9151634 0.0
f 175//81 175//81 176//81
f 176//81 175//81 177//81
f 177//81 175//81 178//81
f 179//82 179//82 180//82
f 180//82 179//82 176//82
f 176//82 179//82 175//82
f 181//83 181//83 182//83
f 182//83 181//83 180//83
f 180//83 181//83 179//83
f 183//84 183//84 184//84
f 184//84 183//84 182//84
f 182//84 183//84 181//84
f 185//81 185//81 186//81
f 186//81 185//81 184//81
f 184//81 185//81 183//81
f 187//85 187//85 188//85
f 188//85 187//85 189//85
f 189//85 187//85 186//85
f 190//86 190//86 191//86
f 191//86 190//86 188//86
f 188//86 190//86 187//86
f 177//87 177//87 192//87
f 192//87 177//87 191//87
f 191//87 177//87 190//87
f 193//88 193//88 194//88
f 194//88 193//88 195//88
f 195//88 193//88 196//88
f 196//87 196//87 195//87
f 195//87 196//87 192//87
f 192//87 196//87 178//87
f 185//85 185//85 189//85
f 189//85 185//85 194//85
f 194//85 185//85 193//85
g 9
usemtl 1
v -63.0 50.0 -14.899902
v -63.0 50.0 -5.410263
v -64.375 51.0 -5.410263
v -64.375 51.0 -14.899902
v -70.375 33.5 -14.899902
v -70.375 33.5 -5.410263
v -71.875 34.0 -14.899902
v -71.875 34.0 -5.410263
v -64.375 51.0 -2.9099426
v -71.875 34.0 -2.9099426
v -77.625 36.5 -14.899902
v -77.625 36.5 -5.410263
v -76.25 36.0 -5.410263
v -76.25 36.0 -14.899902
v -70.25 53.5 -14.899902
v -70.25 53.5 -5.410263
v -68.75 52.5 -14.899902
v -68.75 52.5 -5.410263
v -76.25 36.0 -2.9099426
v -68.75 52.5 -2.9099426
vn 0.40485618 0.91438043 0.0
vn 0.9157739 -0.40169397 0.0
vn -0.3774022 -0.9260494 0.0
vn -0.9138949 0.40595093 0.0
vn -0.4204121 -0.90733325 0.0
vn -0.9157739 0.40169397 0.0
vn 0.39260918 0.9197054 0.0
vn 0.9138949 -0.40595093 0.0
vn 0.40382388 0.9148367 0.0
vn -0.40382388 -0.9148367 0.0
f 197//89 197//89 198//89
f 198//89 197//89 199//89
f 199//89 197//89 200//89
f 201//90 201//90 202//90
f 202//90 201//90 198//90
f 198//90 201//90 197//90
f 203//91 203//91 204//91
f 204//91 203//91 202//91
f 202//91 203//91 201//91
f 199//92 199//92 205//92
f 205//92 199//92 206//92
f 206//92 199//92 204//92
f 207//93 207//93 208//93
f 208//93 207//93 209//93
f 209//93 207//93 210//93
f 211//94 211//94 212//94
f 212//94 211//94 208//94
f 208//94 211//94 207//94
f 213//95 213//95 214//95
f 214//95 213//95 212//95
f 212//95 213//95 211//95
f 209//96 209//96 215//96
f 215//96 209//96 216//96
f 216//96 209//96 214//96
f 200//97 200//97 205//97
f 205//97 200//97 216//97
f 216//97 200//97 213//97
f 210//98 210//98 215//98
f 215//98 210//98 206//98
f 206//98 210//98 203//98
g 10
usemtl 1
v -76.875 54.5 -14.899902
v -76.875 54.5 -4.3770447
v -77.625 55.0 -4.3770447
v -77.625 55.0 -14.899902
v -84.125 38.0 -14.899902
v -84.125 38.0 -4.3770447
v -91.375 41.5 -14.899902
v -91.375 41.5 -4.3770447
v -91.125 42.0 -14.899902
v -91.125 42.0 -4.3770447
v -85.0 39.0 -4.3770447
v -85.0 39.0 -2.9074097
v -91.125 42.0 -2.9074097
v -77.625 55.0 -2.9074097
v -85.75 60.5 -14.899902
v -85.75 60.5 -2.9074097
v -77.0 56.5 -2.9074097
v -77.0 56.5 -14.899902
v -93.75 43.5 -14.899902
v -93.75 43.5 -2.9074097
vn 0.40504614 0.91429627 0.0
vn 0.91429627 -0.40504614 0.0
vn -0.40504614 -0.91429627 0.0
vn -0.91429645 0.40504575 0.0
vn 0.42412406 0.9056041 0.0
vn -0.9056041 0.42412406 0.0
vn -0.42412406 -0.9056041 0.0
vn 0.9056041 -0.42412406 0.0
f 217//99 217//99 218//99
f 218//99 217//99 219//99
f 219//99 217//99 220//99
f 221//100 221//100 222//100
f 222//100 221//100 218//100
f 218//100 221//100 217//100
f 223//101 223//101 224//101
f 224//101 223//101 222//101
f 222//101 223//101 221//101
f 225//102 225//102 226//102
f 226//102 225//102 224//102
f 224//102 225//102 223//102
f 227//103 227//103 228//103
f 228//103 227//103 229//103
f 229//103 227//103 226//103
f 219//104 219//104 230//104
f 230//104 219//104 228//104
f 228//104 219//104 227//104
f 231//105 231//105 232//105
f 232//105 231//105 233//105
f 233//105 231//105 234//105
f 235//106 235//106 236//106
f 236//106 235//106 232//106
f 232//106 235//106 231//106
f 234//104 234//104 233//104
f 233//104 234//104 230//104
f 230//104 234//104 220//104
f 225//103 225//103 229//103
f 229//103 225//103 236//103
f 236//103 225//103 235//103
