mtllib Wall_Hini_2.0_Slope_1.5.mtl
g 1
usemtl 1
v 42.0 1.5 -14.899902
v 42.0 1.5 -2.9228973
v 31.375 -26.5 -2.9228973
v 31.375 -26.5 -14.899902
v 35.75 4.0 -14.899902
v 35.75 4.0 -2.9228973
v 31.375 -26.5 -4.851303
v 25.25 -24.0 -2.9228973
v 25.25 -24.0 -4.851303
v 25.5 -23.5 -4.851303
v 25.5 -23.5 -2.9228973
v 26.375 -21.0 -2.9228973
v 26.375 -21.0 -4.851303
v 22.5 -22.5 -14.899902
v 22.5 -22.5 -7.3890686
v 24.125 -23.0 -7.3890686
v 24.125 -23.0 -14.899902
v 32.625 5.5 -14.899902
v 32.625 5.5 -7.3890686
v 35.75 4.5 -14.899902
v 35.75 4.5 -7.3890686
v 31.375 -8.0 -14.899902
v 31.375 -8.0 -7.3890686
v 29.875 -7.0 -7.3890686
v 29.875 -7.0 -4.851303
v 31.375 -8.0 -4.851303
v 24.125 -23.0 -4.851303
v 29.75 -30.5 -14.899902
v 29.75 -30.5 -4.851303
v 22.375 -27.5 -14.899902
v 22.375 -27.5 -4.851303
v 31.375 -8.0 -2.9228973
vn -0.9341414 0.35690317 0.0
vn -0.35264888 -0.9357557 0.0
vn 0.35264888 0.9357557 0.0
vn 0.9374177 -0.3482069 0.0
vn -0.343756 -0.939059 0.0
vn -0.939059 0.343756 0.0
vn 0.343756 0.939059 0.0
vn 0.9408185 -0.33891115 0.0
vn -0.34186086 -0.93975055 0.0
vn 0.93975055 -0.34186086 0.0
vn 0.9283529 -0.37169996 0.0
vn 0.9338577 -0.3576449 0.0
vn 0.92652386 -0.37623593 0.0
vn -0.93975055 0.34186086 0.0
f 1//1 1//1 2//1
f 2//1 1//1 3//1
f 3//1 1//1 4//1
f 5//2 5//2 6//2
f 6//2 5//2 2//2
f 2//2 5//2 1//2
f 7//3 7//3 3//3
f 3//3 7//3 8//3
f 8//3 7//3 9//3
f 10//4 10//4 11//4
f 11//4 10//4 12//4
f 12//4 10//4 13//4
f 14//5 14//5 15//5
f 15//5 14//5 16//5
f 16//5 14//5 17//5
f 18//6 18//6 19//6
f 19//6 18//6 15//6
f 15//6 18//6 14//6
f 20//7 20//7 21//7
f 21//7 20//7 19//7
f 19//7 20//7 18//7
f 22//8 22//8 23//8
f 23//8 22//8 21//8
f 21//8 22//8 20//8
f 24//9 24//9 25//9
f 25//9 24//9 26//9
f 26//9 24//9 23//9
f 16//10 16//10 27//10
f 27//10 16//10 25//10
f 25//10 16//10 24//10
f 28//11 28//11 29//11
f 29//11 28//11 7//11
f 7//11 28//11 4//11
f 30//9 30//9 31//9
f 31//9 30//9 29//9
f 29//9 30//9 28//9
f 22//12 22//12 32//12
f 32//12 22//12 6//12
f 6//12 22//12 5//12
f 9//13 9//13 8//13
f 8//13 9//13 11//13
f 11//13 9//13 10//13
f 13//4 13//4 12//4
f 12//4 13//4 32//4
f 32//4 13//4 26//4
f 17//14 17//14 27//14
f 27//14 17//14 31//14
f 31//14 17//14 30//14
g 2
usemtl 1
v -76.5 56.0 -14.899902
v -76.5 56.0 -7.7331085
v -85.625 60.5 -7.7331085
v -85.625 60.5 -14.899902
v -84.5 38.0 -14.899902
v -84.5 38.0 -7.7331085
v -93.625 42.5 -14.899902
v -93.625 42.5 -7.7331085
v -92.125 45.5 -14.899902
v -92.125 45.5 -7.7331085
v -86.875 42.5 -7.7331085
v -86.875 42.5 -3.0382538
v -92.125 45.5 -3.0382538
v -79.5 57.0 -7.7331085
v -79.5 57.0 -3.0382538
v -85.625 60.5 -3.0382538
v -93.25 46.0 -14.899902
v -93.25 46.0 -3.0382538
vn 0.406713 0.913556 0.0
vn 0.91394144 -0.40584618 0.0
vn -0.40584618 -0.91394144 0.0
vn -0.91394144 0.40584618 0.0
vn 0.46136 0.887213 0.0
vn -0.887213 0.46136 0.0
vn -0.46136 -0.887213 0.0
vn 0.8828086 -0.4697328 0.0
f 33//15 33//15 34//15
f 34//15 33//15 35//15
f 35//15 33//15 36//15
f 37//16 37//16 38//16
f 38//16 37//16 34//16
f 34//16 37//16 33//16
f 39//17 39//17 40//17
f 40//17 39//17 38//17
f 38//17 39//17 37//17
f 41//18 41//18 42//18
f 42//18 41//18 40//18
f 40//18 41//18 39//18
f 43//19 43//19 44//19
f 44//19 43//19 45//19
f 45//19 43//19 42//19
f 46//20 46//20 47//20
f 47//20 46//20 44//20
f 44//20 46//20 43//20
f 35//21 35//21 48//21
f 48//21 35//21 47//21
f 47//21 35//21 46//21
f 49//22 49//22 50//22
f 50//22 49//22 48//22
f 48//22 49//22 36//22
f 41//19 41//19 45//19
f 45//19 41//19 50//19
f 50//19 41//19 49//19
g 3
usemtl 1
v 26.25 9.0 -14.899902
v 26.25 9.0 -9.284988
v 24.5 9.5 -9.284988
v 24.5 9.5 -14.899902
v 20.0 -8.0 -14.899902
v 20.0 -8.0 -9.284988
v 18.0 -7.0 -14.899902
v 18.0 -7.0 -9.284988
v 24.5 9.5 -6.3674774
v 18.0 -7.0 -6.3674774
v 12.25 -5.0 -14.899902
v 12.25 -5.0 -9.284988
v 14.0 -5.5 -9.284988
v 14.0 -5.5 -14.899902
v 18.625 12.0 -14.899902
v 18.625 12.0 -9.284988
v 20.5 11.0 -14.899902
v 20.5 11.0 -9.284988
v 14.0 -5.5 -6.3674774
v 20.5 11.0 -6.3674774
vn 0.39028794 0.92069286 0.0
vn 0.9356136 -0.35302582 0.0
vn -0.32169688 -0.9468427 0.0
vn -0.934524 0.3559 0.0
vn -0.38297284 -0.92375964 0.0
vn -0.9356136 0.35302582 0.0
vn 0.31150007 0.9502462 0.0
vn 0.934524 -0.3559 0.0
vn -0.35446304 -0.9350701 0.0
vn 0.35446304 0.9350701 0.0
f 51//23 51//23 52//23
f 52//23 51//23 53//23
f 53//23 51//23 54//23
f 55//24 55//24 56//24
f 56//24 55//24 52//24
f 52//24 55//24 51//24
f 57//25 57//25 58//25
f 58//25 57//25 56//25
f 56//25 57//25 55//25
f 53//26 53//26 59//26
f 59//26 53//26 60//26
f 60//26 53//26 58//26
f 61//27 61//27 62//27
f 62//27 61//27 63//27
f 63//27 61//27 64//27
f 65//28 65//28 66//28
f 66//28 65//28 62//28
f 62//28 65//28 61//28
f 67//29 67//29 68//29
f 68//29 67//29 66//29
f 66//29 67//29 65//29
f 63//30 63//30 69//30
f 69//30 63//30 70//30
f 70//30 63//30 68//30
f 64//31 64//31 69//31
f 69//31 64//31 60//31
f 60//31 64//31 57//31
f 54//32 54//32 59//32
f 59//32 54//32 70//32
f 70//32 54//32 67//32
g 4
usemtl 1
v -0.375 21.0 -14.899902
v -0.375 21.0 -9.22406
v -2.25 22.0 -9.22406
v -2.25 22.0 -14.899902
v -6.75 4.5 -14.899902
v -6.75 4.5 -9.22406
v -8.875 5.5 -14.899902
v -8.875 5.5 -9.22406
v -2.25 22.0 -6.1220245
v -8.875 5.5 -6.1220245
v -15.125 8.0 -14.899902
v -15.125 8.0 -9.22406
v -13.375 7.0 -9.22406
v -13.375 7.0 -14.899902
v -8.75 24.5 -14.899902
v -8.75 24.5 -9.22406
v -6.75 23.5 -14.899902
v -6.75 23.5 -9.22406
v -13.375 7.0 -6.1220245
v -6.75 23.5 -6.1220245
vn 0.40300983 0.91519564 0.0
vn 0.93316936 -0.3594371 0.0
vn -0.31158388 -0.9502186 0.0
vn -0.931399 0.364 0.0
vn -0.40424898 -0.91464895 0.0
vn -0.93316936 0.3594371 0.0
vn 0.310486 0.950578 0.0
vn 0.931399 -0.364 0.0
vn -0.36171994 -0.9322868 0.0
vn 0.36171994 0.9322868 0.0
f 71//33 71//33 72//33
f 72//33 71//33 73//33
f 73//33 71//33 74//33
f 75//34 75//34 76//34
f 76//34 75//34 72//34
f 72//34 75//34 71//34
f 77//35 77//35 78//35
f 78//35 77//35 76//35
f 76//35 77//35 75//35
f 73//36 73//36 79//36
f 79//36 73//36 80//36
f 80//36 73//36 78//36
f 81//37 81//37 82//37
f 82//37 81//37 83//37
f 83//37 81//37 84//37
f 85//38 85//38 86//38
f 86//38 85//38 82//38
f 82//38 85//38 81//38
f 87//39 87//39 88//39
f 88//39 87//39 86//39
f 86//39 87//39 85//39
f 83//40 83//40 89//40
f 89//40 83//40 90//40
f 90//40 83//40 88//40
f 84//41 84//41 89//41
f 89//41 84//41 80//41
f 80//41 84//41 77//41
f 74//42 74//42 79//42
f 79//42 74//42 90//42
f 90//42 74//42 87//42
g 5
usemtl 1
v -1.375 1.5 -14.899902
v -1.375 1.5 -9.119751
v 0.375 0.5 -9.119751
v 0.375 0.5 -14.899902
v 4.875 18.0 -14.899902
v 4.875 18.0 -9.119751
v 6.875 17.5 -14.899902
v 6.875 17.5 -9.119751
v 0.375 0.5 -6.2454224
v 6.875 17.5 -6.2454224
v 13.25 15.0 -14.899902
v 13.25 15.0 -9.119751
v 11.5 15.5 -9.119751
v 11.5 15.5 -14.899902
v 7.0 -1.5 -14.899902
v 7.0 -1.5 -9.119751
v 5.0 -1.0 -14.899902
v 5.0 -1.0 -9.119751
v 11.5 15.5 -6.2454224
v 5.0 -1.0 -6.2454224
vn -0.4106651 -0.91178626 0.0
vn -0.9351281 0.35431004 0.0
vn 0.29759806 0.95469123 0.0
vn 0.9317361 -0.36313602 0.0
vn 0.409244 0.912425 0.0
vn 0.9351281 -0.35431004 0.0
vn -0.28458706 -0.95865023 0.0
vn -0.9317361 0.36313602 0.0
vn 0.35872683 0.9334426 0.0
vn -0.35872683 -0.9334426 0.0
f 91//43 91//43 92//43
f 92//43 91//43 93//43
f 93//43 91//43 94//43
f 95//44 95//44 96//44
f 96//44 95//44 92//44
f 92//44 95//44 91//44
f 97//45 97//45 98//45
f 98//45 97//45 96//45
f 96//45 97//45 95//45
f 93//46 93//46 99//46
f 99//46 93//46 100//46
f 100//46 93//46 98//46
f 101//47 101//47 102//47
f 102//47 101//47 103//47
f 103//47 101//47 104//47
f 105//48 105//48 106//48
f 106//48 105//48 102//48
f 102//48 105//48 101//48
f 107//49 107//49 108//49
f 108//49 107//49 106//49
f 106//49 107//49 105//49
f 103//50 103//50 109//50
f 109//50 103//50 110//50
f 110//50 103//50 108//50
f 104//51 104//51 109//51
f 109//51 104//51 100//51
f 100//51 104//51 97//51
f 94//52 94//52 99//52
f 99//52 94//52 110//52
f 110//52 94//52 107//52
g 6
usemtl 1
v -13.75 27.5 -14.899902
v -13.75 27.5 -9.491119
v -16.25 28.5 -9.491119
v -16.25 28.5 -14.899902
v -20.75 11.0 -14.899902
v -20.75 11.0 -9.491119
v -23.375 12.0 -14.899902
v -23.375 12.0 -9.491119
v -16.25 28.5 -5.2729187
v -23.375 12.0 -5.2729187
v -30.375 15.0 -14.899902
v -30.375 15.0 -9.491119
v -27.625 14.0 -9.491119
v -27.625 14.0 -14.899902
v -23.25 31.5 -14.899902
v -23.25 31.5 -9.491119
v -20.625 30.5 -14.899902
v -20.625 30.5 -9.491119
v -27.625 14.0 -5.2729187
v -20.625 30.5 -5.2729187
v -30.5 6.0 -5.2729187
v -30.5 6.0 -4.609543
v -27.875 1.5 -4.609543
v -27.875 1.5 -5.2729187
v -31.0 6.0 -5.2729187
v -31.0 6.0 -4.609543
v -28.0 0.5 -14.899902
v -28.0 0.5 -4.609543
v -27.625 1.0 -4.609543
v -27.625 1.0 -14.899902
v -29.875 -5.0 -14.899902
v -29.875 -5.0 -4.609543
v -48.125 2.0 -14.899902
v -48.125 2.0 -4.609543
v -46.125 7.5 -14.899902
v -46.125 7.5 -4.609543
v -35.25 3.5 -14.899902
v -35.25 3.5 -4.609543
v -31.0 6.0 -14.899902
v -27.875 1.5 -14.899902
vn 0.40772492 0.9131048 0.0
vn 0.9206449 -0.39040095 0.0
vn -0.3904018 -0.9206446 0.0
vn -0.9215751 0.38820007 0.0
vn -0.39040095 -0.9206449 0.0
vn -0.9206449 0.39040095 0.0
vn 0.37484017 0.9270894 0.0
vn 0.9215751 -0.38820007 0.0
vn 0.38930085 0.92111063 0.0
vn -0.8691811 -0.49449405 0.0
vn 0.48672125 -0.8735574 0.0
vn 0.71665394 -0.69742894 0.0
vn 0.94876885 -0.31597096 0.0
vn -0.3497951 -0.9368262 0.0
vn -0.9368262 0.3497951 0.0
vn 0.34297308 0.93934524 0.0
vn 0.9188964 -0.39449915 0.0
vn -0.5092113 0.86064154 0.0
vn 0.91165143 0.41096422 0.0
f 111//53 111//53 112//53
f 112//53 111//53 113//53
f 113//53 111//53 114//53
f 115//54 115//54 116//54
f 116//54 115//54 112//54
f 112//54 115//54 111//54
f 117//55 117//55 118//55
f 118//55 117//55 116//55
f 116//55 117//55 115//55
f 113//56 113//56 119//56
f 119//56 113//56 120//56
f 120//56 113//56 118//56
f 121//57 121//57 122//57
f 122//57 121//57 123//57
f 123//57 121//57 124//57
f 125//58 125//58 126//58
f 126//58 125//58 122//58
f 122//58 125//58 121//58
f 127//59 127//59 128//59
f 128//59 127//59 126//59
f 126//59 127//59 125//59
f 123//60 123//60 129//60
f 129//60 123//60 130//60
f 130//60 123//60 128//60
f 114//61 114//61 119//61
f 119//61 114//61 130//61
f 130//61 114//61 127//61
f 131//62 131//62 132//62
f 132//62 131//62 133//62
f 133//62 131//62 134//62
f 135//63 135//63 136//63
f 136//63 135//63 132//63
f 132//63 135//63 131//63
f 137//64 137//64 138//64
f 138//64 137//64 139//64
f 139//64 137//64 140//64
f 141//65 141//65 142//65
f 142//65 141//65 138//65
f 138//65 141//65 137//65
f 143//66 143//66 144//66
f 144//66 143//66 142//66
f 142//66 143//66 141//66
f 145//67 145//67 146//67
f 146//67 145//67 144//67
f 144//67 145//67 143//67
f 147//68 147//68 148//68
f 148//68 147//68 146//68
f 146//68 147//68 145//68
f 124//56 124//56 129//56
f 129//56 124//56 135//56
f 135//56 124//56 149//56
f 150//69 150//69 134//69
f 134//69 150//69 120//69
f 120//69 150//69 117//69
f 149//70 149//70 136//70
f 136//70 149//70 148//70
f 148//70 149//70 147//70
f 140//71 140//71 139//71
f 139//71 140//71 133//71
f 133//71 140//71 150//71
g 7
usemtl 1
v -41.25 40.0 -14.899902
v -41.25 40.0 -9.152451
v -48.75 23.5 -9.152451
v -48.75 23.5 -14.899902
v -45.375 42.0 -14.899902
v -45.375 42.0 -9.152451
v -52.875 25.0 -14.899902
v -52.875 25.0 -9.152451
vn -0.9142143 0.40523115 0.0
vn -0.40523115 -0.9142143 0.0
vn 0.9142143 -0.40523115 0.0
vn 0.40523115 0.9142143 0.0
f 151//72 151//72 152//72
f 152//72 151//72 153//72
f 153//72 151//72 154//72
f 155//73 155//73 156//73
f 156//73 155//73 152//73
f 152//73 155//73 151//73
f 157//74 157//74 158//74
f 158//74 157//74 156//74
f 156//74 157//74 155//74
f 154//75 154//75 153//75
f 153//75 154//75 158//75
f 158//75 154//75 157//75
g 8
usemtl 1
v -28.5 34.0 -14.899902
v -28.5 34.0 -9.1813965
v -30.25 35.0 -9.1813965
v -30.25 35.0 -14.899902
v -36.0 17.5 -14.899902
v -36.0 17.5 -9.1813965
v -37.875 18.5 -14.899902
v -37.875 18.5 -9.1813965
v -30.25 35.0 -6.218231
v -37.875 18.5 -6.218231
v -43.375 21.0 -14.899902
v -43.375 21.0 -9.1813965
v -41.5 20.0 -9.1813965
v -41.5 20.0 -14.899902
v -35.875 37.5 -14.899902
v -35.875 37.5 -9.1813965
v -34.0 36.5 -14.899902
v -34.0 36.5 -9.1813965
v -41.5 20.0 -6.218231
v -34.0 36.5 -6.218231
vn 0.4449498 0.89555556 0.0
vn 0.9115153 -0.41126615 0.0
vn -0.40677923 -0.91352654 0.0
vn -0.91096574 0.4124819 0.0
vn -0.41467115 -0.9099713 0.0
vn -0.9115153 0.41126615 0.0
vn 0.37525693 0.92692083 0.0
vn 0.91096574 -0.4124819 0.0
vn 0.41187394 0.9112408 0.0
vn -0.41187394 -0.9112408 0.0
f 159//76 159//76 160//76
f 160//76 159//76 161//76
f 161//76 159//76 162//76
f 163//77 163//77 164//77
f 164//77 163//77 160//77
f 160//77 163//77 159//77
f 165//78 165//78 166//78
f 166//78 165//78 164//78
f 164//78 165//78 163//78
f 161//79 161//79 167//79
f 167//79 161//79 168//79
f 168//79 161//79 166//79
f 169//80 169//80 170//80
f 170//80 169//80 171//80
f 171//80 169//80 172//80
f 173//81 173//81 174//81
f 174//81 173//81 170//81
f 170//81 173//81 169//81
f 175//82 175//82 176//82
f 176//82 175//82 174//82
f 174//82 175//82 173//82
f 171//83 171//83 177//83
f 177//83 171//83 178//83
f 178//83 171//83 176//83
f 162//84 162//84 167//84
f 167//84 162//84 178//84
f 178//84 162//84 175//84
f 172//85 172//85 177//85
f 177//85 172//85 168//85
f 168//85 172//85 165//85
g 9
usemtl 1
v -64.875 31.0 -14.899902
v -64.875 31.0 -9.082001
v -63.0 30.0 -9.082001
v -63.0 30.0 -14.899902
v -57.5 47.5 -14.899902
v -57.5 47.5 -9.082001
v -55.75 46.5 -14.899902
v -55.75 46.5 -9.082001
v -63.0 30.0 -6.066803
v -55.75 46.5 -6.066803
v -49.875 44.0 -14.899902
v -49.875 44.0 -10.83255
v -51.0 44.5 -10.83255
v -51.0 44.5 -14.899902
v -54.375 34.0 -14.899902
v -54.375 34.0 -10.83255
v -55.5 34.5 -14.899902
v -55.5 34.5 -10.83255
v -51.0 44.5 -9.082001
v -55.5 34.5 -9.082001
v -52.875 45.5 -9.082001
v -52.875 45.5 -14.899902
v -60.125 28.5 -14.899902
v -60.125 28.5 -9.082001
v -58.25 28.0 -9.082001
v -58.25 28.0 -14.899902
v -52.875 45.5 -6.066803
v -60.125 28.5 -6.066803
vn -0.42293176 -0.90616155 0.0
vn -0.9164297 0.40019584 0.0
vn 0.392207 0.919877 0.0
vn 0.91801095 -0.39655498 0.0
vn 0.41452497 0.91003793 0.0
vn 0.9158283 -0.40157014 0.0
vn -0.40156895 -0.9158288 0.0
vn 0.41789594 0.9084949 0.0
vn -0.37943393 -0.9252188 0.0
vn -0.91801095 0.39655498 0.0
vn -0.39837605 -0.91722214 0.0
vn 0.39837605 0.91722214 0.0
vn 0.9164297 -0.40019584 0.0
f 179//86 179//86 180//86
f 180//86 179//86 181//86
f 181//86 179//86 182//86
f 183//87 183//87 184//87
f 184//87 183//87 180//87
f 180//87 183//87 179//87
f 185//88 185//88 186//88
f 186//88 185//88 184//88
f 184//88 185//88 183//88
f 181//89 181//89 187//89
f 187//89 181//89 188//89
f 188//89 181//89 186//89
f 189//90 189//90 190//90
f 190//90 189//90 191//90
f 191//90 189//90 192//90
f 193//91 193//91 194//91
f 194//91 193//91 190//91
f 190//91 193//91 189//91
f 195//92 195//92 196//92
f 196//92 195//92 194//92
f 194//92 195//92 193//92
f 191//87 191//87 197//87
f 197//87 191//87 198//87
f 198//87 191//87 196//87
f 192//93 192//93 197//93
f 197//93 192//93 199//93
f 199//93 192//93 200//93
f 201//94 201//94 202//94
f 202//94 201//94 203//94
f 203//94 201//94 204//94
f 199//95 199//95 205//95
f 205//95 199//95 206//95
f 206//95 199//95 202//95
f 182//96 182//96 187//96
f 187//96 182//96 206//96
f 206//96 182//96 201//96
f 200//97 200//97 205//97
f 205//97 200//97 188//97
f 188//97 200//97 185//97
f 204//98 204//98 203//98
f 203//98 204//98 198//98
f 198//98 204//98 195//98
g 10
usemtl 1
v -70.125 53.0 -14.899902
v -70.125 53.0 -9.2174225
v -77.5 36.5 -9.2174225
v -77.5 36.5 -14.899902
v -70.375 33.5 -14.899902
v -70.375 33.5 -9.2174225
v -63.125 50.0 -9.2174225
v -63.125 50.0 -14.899902
v -68.25 52.5 -14.899902
v -68.25 52.5 -9.2174225
v -64.875 51.0 -9.2174225
v -64.875 51.0 -14.899902
v -72.25 34.5 -14.899902
v -72.25 34.5 -9.2174225
vn -0.9155549 0.40219295 0.0
vn 0.9155549 -0.40219295 0.0
vn -0.4074318 -0.91323566 0.0
vn -0.43937412 -0.8983042 0.0
vn -0.3885251 -0.9214382 0.0
vn 0.40592515 0.9139063 0.0
vn 0.38824385 0.92155665 0.0
f 207//99 207//99 208//99
f 208//99 207//99 209//99
f 209//99 207//99 210//99
f 211//100 211//100 212//100
f 212//100 211//100 213//100
f 213//100 211//100 214//100
f 215//101 215//101 216//101
f 216//101 215//101 217//101
f 217//101 215//101 218//101
f 219//102 219//102 220//102
f 220//102 219//102 212//102
f 212//102 219//102 211//102
f 210//103 210//103 209//103
f 209//103 210//103 220//103
f 220//103 210//103 219//103
f 215//104 215//104 216//104
f 216//104 215//104 208//104
f 208//104 215//104 207//104
f 214//105 214//105 213//105
f 213//105 214//105 217//105
f 217//105 214//105 218//105
