mtllib Wall_Hini_2.0_Slope_2.5.mtl
g 1
usemtl 1
v 29.25 -31.5 -14.899902
v 29.25 -31.5 -2.9134521
v 35.75 -14.0 -2.9134521
v 35.75 -14.0 -14.899902
v 20.625 -28.5 -14.899902
v 20.625 -28.5 -2.9134521
v 27.125 -11.0 -14.899902
v 27.125 -11.0 -2.9134521
v 33.0 5.0 -14.899902
v 33.0 5.0 -2.9134521
v 41.75 1.5 -14.899902
v 41.75 1.5 -2.9134521
vn 0.9346169 -0.35565597 0.0
vn -0.353906 -0.935281 0.0
vn -0.9372034 0.34878317 0.0
vn -0.9382261 0.34602302 0.0
vn 0.35165283 0.9361305 0.0
vn 0.935405 -0.353578 0.0
f 1//1 1//1 2//1
f 2//1 1//1 3//1
f 3//1 1//1 4//1
f 5//2 5//2 6//2
f 6//2 5//2 2//2
f 2//2 5//2 1//2
f 7//3 7//3 8//3
f 8//3 7//3 6//3
f 6//3 7//3 5//3
f 9//4 9//4 10//4
f 10//4 9//4 8//4
f 8//4 9//4 7//4
f 11//5 11//5 12//5
f 12//5 11//5 10//5
f 10//5 11//5 9//5
f 4//6 4//6 3//6
f 3//6 4//6 12//6
f 12//6 4//6 11//6
g 2
usemtl 1
v 26.125 8.5 -14.899902
v 26.125 8.5 -6.8825684
v 24.875 9.5 -6.8825684
v 24.875 9.5 -14.899902
v 19.875 -8.0 -14.899902
v 19.875 -8.0 -6.8825684
v 12.25 -5.0 -14.899902
v 12.25 -5.0 -6.8825684
v 18.5 11.5 -14.899902
v 18.5 11.5 -6.8825684
v 20.0 11.0 -14.899902
v 20.0 11.0 -6.8825684
v 13.875 -5.5 -6.8825684
v 13.875 -5.5 -3.042923
v 20.0 11.0 -3.042923
v 18.75 -7.0 -6.8825684
v 18.75 -7.0 -3.042923
v 24.875 9.5 -3.042923
vn 0.46942988 0.88296974 0.0
vn 0.93282026 -0.3603421 0.0
vn -0.3603421 -0.93282026 0.0
vn -0.93282026 0.3603421 0.0
vn 0.26220995 0.9650108 0.0
vn 0.9370706 -0.34913984 0.0
vn 0.34913984 0.9370706 0.0
vn -0.9370706 0.34913984 0.0
vn -0.35474712 -0.93496233 0.0
f 13//7 13//7 14//7
f 14//7 13//7 15//7
f 15//7 13//7 16//7
f 17//8 17//8 18//8
f 18//8 17//8 14//8
f 14//8 17//8 13//8
f 19//9 19//9 20//9
f 20//9 19//9 18//9
f 18//9 19//9 17//9
f 21//10 21//10 22//10
f 22//10 21//10 20//10
f 20//10 21//10 19//10
f 23//11 23//11 24//11
f 24//11 23//11 22//11
f 22//11 23//11 21//11
f 25//12 25//12 26//12
f 26//12 25//12 27//12
f 27//12 25//12 24//12
f 28//13 28//13 29//13
f 29//13 28//13 26//13
f 26//13 28//13 25//13
f 15//14 15//14 30//14
f 30//14 15//14 29//14
f 29//14 15//14 28//14
f 23//15 23//15 27//15
f 27//15 23//15 30//15
f 30//15 23//15 16//15
g 3
usemtl 1
v -15.25 8.0 -14.899902
v -15.25 8.0 -6.746277
v -13.75 7.0 -6.746277
v -13.75 7.0 -14.899902
v -8.75 24.5 -14.899902
v -8.75 24.5 -6.746277
v -7.25 24.0 -14.899902
v -7.25 24.0 -6.746277
v -13.75 7.0 -2.924347
v -7.25 24.0 -2.924347
v -0.375 21.0 -14.899902
v -0.375 21.0 -6.746277
v -1.75 22.0 -6.746277
v -1.75 22.0 -14.899902
v -6.875 4.5 -14.899902
v -6.875 4.5 -6.746277
v -8.375 5.0 -14.899902
v -8.375 5.0 -6.746277
v -1.75 22.0 -2.924347
v -8.375 5.0 -2.924347
vn -0.40414992 -0.91469276 0.0
vn -0.9321439 0.36208797 0.0
vn 0.321266 0.946989 0.0
vn 0.93109375 -0.36477992 0.0
vn 0.39821795 0.9172908 0.0
vn 0.9321439 -0.36208797 0.0
vn -0.31592596 -0.9487839 0.0
vn -0.93109375 0.36477992 0.0
vn -0.36343396 -0.93161994 0.0
vn 0.36343396 0.93161994 0.0
f 31//16 31//16 32//16
f 32//16 31//16 33//16
f 33//16 31//16 34//16
f 35//17 35//17 36//17
f 36//17 35//17 32//17
f 32//17 35//17 31//17
f 37//18 37//18 38//18
f 38//18 37//18 36//18
f 36//18 37//18 35//18
f 33//19 33//19 39//19
f 39//19 33//19 40//19
f 40//19 33//19 38//19
f 41//20 41//20 42//20
f 42//20 41//20 43//20
f 43//20 41//20 44//20
f 45//21 45//21 46//21
f 46//21 45//21 42//21
f 42//21 45//21 41//21
f 47//22 47//22 48//22
f 48//22 47//22 46//22
f 46//22 47//22 45//22
f 43//23 43//23 49//23
f 49//23 43//23 50//23
f 50//23 43//23 48//23
f 34//24 34//24 39//24
f 39//24 34//24 50//24
f 50//24 34//24 47//24
f 44//25 44//25 49//25
f 49//25 44//25 40//25
f 40//25 44//25 37//25
g 4
usemtl 1
v 13.375 15.0 -14.899902
v 13.375 15.0 -6.641632
v 12.0 15.5 -6.641632
v 12.0 15.5 -14.899902
v 6.875 -2.0 -14.899902
v 6.875 -2.0 -6.641632
v 5.5 -1.5 -14.899902
v 5.5 -1.5 -6.641632
v 12.0 15.5 -2.9127197
v 5.5 -1.5 -2.9127197
v 0.0 8.5 -14.899902
v 0.0 8.5 -9.403839
v 1.125 8.0 -9.403839
v 1.125 8.0 -14.899902
v 4.0 19.0 -14.899902
v 4.0 19.0 -9.403839
v 5.5 18.5 -14.899902
v 5.5 18.5 -9.403839
v 5.125 18.0 -14.899902
v 5.125 18.0 -9.403839
v 1.125 8.0 -6.641632
v 5.125 18.0 -6.641632
v -1.5 1.5 -14.899902
v -1.5 1.5 -6.641632
v -0.125 1.0 -6.641632
v -0.125 1.0 -14.899902
v 6.375 17.5 -14.899902
v 6.375 17.5 -6.641632
v -0.125 1.0 -2.9127197
v 6.375 17.5 -2.9127197
vn 0.4022758 0.9155185 0.0
vn 0.93309194 -0.35963798 0.0
vn -0.3304 -0.943841 0.0
vn -0.93240386 0.36141798 0.0
vn -0.34990594 -0.9367848 0.0
vn -0.9367848 0.34990594 0.0
vn 0.34990594 0.9367848 0.0
vn 0.71118194 -0.70300794 0.0
vn 0.9249274 -0.38014376 0.0
vn -0.3852009 -0.9228327 0.0
vn 0.306151 0.951983 0.0
vn 0.93240386 -0.36141798 0.0
vn 0.3605281 0.9327484 0.0
vn -0.3605281 -0.9327484 0.0
vn -0.93309194 0.35963798 0.0
f 51//26 51//26 52//26
f 52//26 51//26 53//26
f 53//26 51//26 54//26
f 55//27 55//27 56//27
f 56//27 55//27 52//27
f 52//27 55//27 51//27
f 57//28 57//28 58//28
f 58//28 57//28 56//28
f 56//28 57//28 55//28
f 53//29 53//29 59//29
f 59//29 53//29 60//29
f 60//29 53//29 58//29
f 61//30 61//30 62//30
f 62//30 61//30 63//30
f 63//30 61//30 64//30
f 65//31 65//31 66//31
f 66//31 65//31 62//31
f 62//31 65//31 61//31
f 67//32 67//32 68//32
f 68//32 67//32 66//32
f 66//32 67//32 65//32
f 69//33 69//33 70//33
f 70//33 69//33 68//33
f 68//33 69//33 67//33
f 63//34 63//34 71//34
f 71//34 63//34 72//34
f 72//34 63//34 70//34
f 73//35 73//35 74//35
f 74//35 73//35 75//35
f 75//35 73//35 76//35
f 77//36 77//36 78//36
f 78//36 77//36 72//36
f 72//36 77//36 69//36
f 75//37 75//37 79//37
f 79//37 75//37 80//37
f 80//37 75//37 78//37
f 54//38 54//38 59//38
f 59//38 54//38 80//38
f 80//38 54//38 77//38
f 76//39 76//39 79//39
f 79//39 76//39 60//39
f 60//39 76//39 57//39
f 64//40 64//40 71//40
f 71//40 64//40 74//40
f 74//40 64//40 73//40
g 5
usemtl 1
v -30.375 15.0 -14.899902
v -30.375 15.0 -7.127945
v -27.75 14.0 -7.127945
v -27.75 14.0 -14.899902
v -23.25 31.5 -14.899902
v -23.25 31.5 -7.127945
v -13.75 27.5 -14.899902
v -13.75 27.5 -7.127945
v -20.875 11.0 -14.899902
v -20.875 11.0 -7.127945
v -21.875 11.0 -14.899902
v -21.875 11.0 -7.127945
v -15.25 28.0 -7.127945
v -15.25 28.0 -3.2045593
v -21.875 11.0 -3.2045593
v -16.75 28.5 -7.127945
v -16.75 28.5 -3.2045593
v -23.25 12.0 -3.2045593
v -23.25 12.0 -2.9141235
v -16.75 28.5 -2.9141235
v -21.25 30.5 -7.127945
v -21.25 30.5 -2.9141235
v -27.75 14.0 -2.9141235
v -23.25 12.0 -14.899902
v -29.75 -5.0 -14.899902
v -29.75 -5.0 -2.9141235
v -27.625 1.0 -2.9141235
v -27.625 1.0 -14.899902
v -48.125 2.0 -14.899902
v -48.125 2.0 -2.9141235
v -46.125 7.5 -14.899902
v -46.125 7.5 -2.9141235
v -35.875 3.5 -14.899902
v -35.875 3.5 -2.9141235
v -31.125 5.5 -14.899902
v -31.125 5.5 -2.9141235
vn -0.394099 -0.919068 0.0
vn -0.919068 0.394099 0.0
vn 0.394099 0.919068 0.0
vn 0.919068 -0.394099 0.0
vn -0.2749459 -0.9614597 0.0
vn -0.93148524 0.3637791 0.0
vn -0.36164704 -0.9323151 0.0
vn 0.93188965 -0.3627419 0.0
vn -0.3612332 -0.9324755 0.0
vn 0.93220025 -0.3619431 0.0
vn 0.4075459 0.9131847 0.0
vn 0.93675494 -0.34998596 0.0
vn -0.33866292 -0.9409077 0.0
vn -0.9409077 0.33866292 0.0
vn 0.33866292 0.9409077 0.0
vn -0.3344472 0.9424145 0.0
vn -0.92930984 0.36930093 0.0
vn 0.92978734 -0.36809713 0.0
f 81//41 81//41 82//41
f 82//41 81//41 83//41
f 83//41 81//41 84//41
f 85//42 85//42 86//42
f 86//42 85//42 82//42
f 82//42 85//42 81//42
f 87//43 87//43 88//43
f 88//43 87//43 86//43
f 86//43 87//43 85//43
f 89//44 89//44 90//44
f 90//44 89//44 88//44
f 88//44 89//44 87//44
f 91//45 91//45 92//45
f 92//45 91//45 90//45
f 90//45 91//45 89//45
f 93//46 93//46 94//46
f 94//46 93//46 95//46
f 95//46 93//46 92//46
f 96//47 96//47 97//47
f 97//47 96//47 94//47
f 94//47 96//47 93//47
f 98//48 98//48 99//48
f 99//48 98//48 100//48
f 100//48 98//48 97//48
f 101//49 101//49 102//49
f 102//49 101//49 100//49
f 100//49 101//49 96//49
f 83//50 83//50 103//50
f 103//50 83//50 102//50
f 102//50 83//50 101//50
f 91//51 91//51 95//51
f 95//51 91//51 98//51
f 98//51 91//51 104//51
f 105//52 105//52 106//52
f 106//52 105//52 107//52
f 107//52 105//52 108//52
f 109//53 109//53 110//53
f 110//53 109//53 106//53
f 106//53 109//53 105//53
f 111//54 111//54 112//54
f 112//54 111//54 110//54
f 110//54 111//54 109//54
f 113//55 113//55 114//55
f 114//55 113//55 112//55
f 112//55 113//55 111//55
f 115//56 115//56 116//56
f 116//56 115//56 114//56
f 114//56 115//56 113//56
f 84//57 84//57 103//57
f 103//57 84//57 116//57
f 116//57 84//57 115//57
f 108//58 108//58 107//58
f 107//58 108//58 99//58
f 99//58 108//58 104//58
g 6
usemtl 1
v -40.25 39.5 -14.899902
v -40.25 39.5 -9.414154
v -41.375 40.0 -9.414154
v -41.375 40.0 -14.899902
v -44.875 29.5 -14.899902
v -44.875 29.5 -9.414154
v -46.0 30.0 -14.899902
v -46.0 30.0 -9.414154
v -41.375 40.0 -6.3693085
v -46.0 30.0 -6.3693085
v -50.875 32.0 -14.899902
v -50.875 32.0 -9.414154
v -49.75 31.5 -9.414154
v -49.75 31.5 -14.899902
v -46.25 42.5 -14.899902
v -46.25 42.5 -9.414154
v -45.125 42.0 -14.899902
v -45.125 42.0 -9.414154
v -49.75 31.5 -6.3693085
v -45.125 42.0 -6.3693085
v -52.75 25.0 -14.899902
v -52.75 25.0 -6.3693085
v -48.875 23.5 -6.3693085
v -48.875 23.5 -14.899902
vn 0.41472006 0.9099491 0.0
vn 0.91122276 -0.4119139 0.0
vn -0.4119139 -0.91122276 0.0
vn -0.9112104 0.4119412 0.0
vn -0.91122276 0.4119139 0.0
vn 0.40916884 0.9124587 0.0
vn 0.9112104 -0.4119412 0.0
vn -0.4119412 -0.9112104 0.0
vn 0.41192695 0.91121686 0.0
f 117//59 117//59 118//59
f 118//59 117//59 119//59
f 119//59 117//59 120//59
f 121//60 121//60 122//60
f 122//60 121//60 118//60
f 118//60 121//60 117//60
f 123//61 123//61 124//61
f 124//61 123//61 122//61
f 122//61 123//61 121//61
f 119//62 119//62 125//62
f 125//62 119//62 126//62
f 126//62 119//62 124//62
f 127//61 127//61 128//61
f 128//61 127//61 129//61
f 129//61 127//61 130//61
f 131//63 131//63 132//63
f 132//63 131//63 128//63
f 128//63 131//63 127//63
f 133//64 133//64 134//64
f 134//64 133//64 132//64
f 132//64 133//64 131//64
f 129//65 129//65 135//65
f 135//65 129//65 136//65
f 136//65 129//65 134//65
f 137//66 137//66 138//66
f 138//66 137//66 139//66
f 139//66 137//66 140//66
f 120//67 120//67 125//67
f 125//67 120//67 136//67
f 136//67 120//67 133//67
f 140//65 140//65 139//65
f 139//65 140//65 126//65
f 126//65 140//65 123//65
f 130//62 130//62 135//62
f 135//62 130//62 138//62
f 138//62 130//62 137//62
g 7
usemtl 1
v -28.5 34.0 -14.899902
v -28.5 34.0 -6.644043
v -29.75 35.0 -6.644043
v -29.75 35.0 -14.899902
v -36.0 17.5 -14.899902
v -36.0 17.5 -6.644043
v -37.375 18.0 -14.899902
v -37.375 18.0 -6.644043
v -29.75 35.0 -2.905304
v -37.375 18.0 -2.905304
v -35.75 37.5 -14.899902
v -35.75 37.5 -6.644043
v -43.25 20.5 -6.644043
v -43.25 20.5 -14.899902
v -34.375 37.0 -14.899902
v -34.375 37.0 -6.644043
v -41.875 20.0 -6.644043
v -41.875 20.0 -2.905304
v -34.375 37.0 -2.905304
v -41.125 20.0 -14.899902
v -41.125 20.0 -2.905304
v -41.875 20.0 -14.899902
vn 0.4332491 0.90127426 0.0
vn 0.91267943 -0.4086762 0.0
vn -0.4066042 -0.91360444 0.0
vn -0.91201675 0.4101529 0.0
vn -0.91267943 0.4086762 0.0
vn 0.38118905 0.9244971 0.0
vn 0.91201675 -0.4101529 0.0
vn 0.4101529 0.91201675 0.0
vn 0.4094151 0.9123482 0.0
vn -0.40781114 -0.9130663 0.0
vn -0.4094139 -0.91234875 0.0
f 141//68 141//68 142//68
f 142//68 141//68 143//68
f 143//68 141//68 144//68
f 145//69 145//69 146//69
f 146//69 145//69 142//69
f 142//69 145//69 141//69
f 147//70 147//70 148//70
f 148//70 147//70 146//70
f 146//70 147//70 145//70
f 143//71 143//71 149//71
f 149//71 143//71 150//71
f 150//71 143//71 148//71
f 151//72 151//72 152//72
f 152//72 151//72 153//72
f 153//72 151//72 154//72
f 155//73 155//73 156//73
f 156//73 155//73 152//73
f 152//73 155//73 151//73
f 157//74 157//74 158//74
f 158//74 157//74 159//74
f 159//74 157//74 156//74
f 160//75 160//75 161//75
f 161//75 160//75 158//75
f 158//75 160//75 162//75
f 144//76 144//76 149//76
f 149//76 144//76 159//76
f 159//76 144//76 155//76
f 154//77 154//77 153//77
f 153//77 154//77 157//77
f 157//77 154//77 162//77
f 160//78 160//78 161//78
f 161//78 160//78 150//78
f 150//78 160//78 147//78
g 8
usemtl 1
v -63.0 37.5 -14.899902
v -63.0 37.5 -9.230682
v -61.25 37.0 -9.230682
v -61.25 37.0 -14.899902
v -58.375 48.0 -14.899902
v -58.375 48.0 -9.230682
v -56.625 47.0 -14.899902
v -56.625 47.0 -9.230682
v -61.25 37.0 -4.2789154
v -56.625 47.0 -4.2789154
v -49.875 44.0 -14.899902
v -49.875 44.0 -9.230682
v -51.75 45.0 -9.230682
v -51.75 45.0 -14.899902
v -54.625 34.0 -14.899902
v -54.625 34.0 -9.230682
v -56.25 34.5 -14.899902
v -56.25 34.5 -9.230682
v -51.75 45.0 -4.2789154
v -56.25 34.5 -4.2789154
v -64.0 30.5 -14.899902
v -64.0 30.5 -4.2789154
v -59.125 28.0 -4.2789154
v -59.125 28.0 -14.899902
vn -0.412859 -0.910795 0.0
vn -0.910795 0.412859 0.0
vn 0.4083902 0.9128074 0.0
vn 0.9148671 -0.40375507 0.0
vn 0.42937192 0.9031278 0.0
vn 0.910795 -0.412859 0.0
vn -0.9148671 0.40375507 0.0
vn -0.40375507 -0.9148671 0.0
vn 0.4083122 0.9128424 0.0
f 163//79 163//79 164//79
f 164//79 163//79 165//79
f 165//79 163//79 166//79
f 167//80 167//80 168//80
f 168//80 167//80 164//80
f 164//80 167//80 163//80
f 169//81 169//81 170//81
f 170//81 169//81 168//81
f 168//81 169//81 167//81
f 165//82 165//82 171//82
f 171//82 165//82 172//82
f 172//82 165//82 170//82
f 173//83 173//83 174//83
f 174//83 173//83 175//83
f 175//83 173//83 176//83
f 177//84 177//84 178//84
f 178//84 177//84 174//84
f 174//84 177//84 173//84
f 179//79 179//79 180//79
f 180//79 179//79 178//79
f 178//79 179//79 177//79
f 175//85 175//85 181//85
f 181//85 175//85 182//85
f 182//85 175//85 180//85
f 183//86 183//86 184//86
f 184//86 183//86 185//86
f 185//86 183//86 186//86
f 176//87 176//87 181//87
f 181//87 176//87 172//87
f 172//87 176//87 169//87
f 186//82 186//82 185//82
f 185//82 186//82 182//82
f 182//82 186//82 179//82
f 166//85 166//85 171//85
f 171//85 166//85 184//85
f 184//85 166//85 183//85
g 9
usemtl 1
v -77.625 36.5 -14.899902
v -77.625 36.5 -6.779953
v -76.25 36.0 -6.779953
v -76.25 36.0 -14.899902
v -70.125 53.5 -14.899902
v -70.125 53.5 -6.779953
v -68.75 52.5 -14.899902
v -68.75 52.5 -6.779953
v -76.25 36.0 -2.9802094
v -68.75 52.5 -2.9802094
v -62.125 49.5 -14.899902
v -62.125 49.5 -9.434525
v -63.0 50.0 -9.434525
v -63.0 50.0 -14.899902
v -66.625 39.0 -14.899902
v -66.625 39.0 -9.434525
v -67.625 39.5 -14.899902
v -67.625 39.5 -9.434525
v -63.0 50.0 -6.779953
v -67.625 39.5 -6.779953
v -64.375 50.5 -6.779953
v -64.375 50.5 -14.899902
v -71.875 34.0 -14.899902
v -71.875 34.0 -6.779953
v -70.5 33.5 -6.779953
v -70.5 33.5 -14.899902
v -64.375 50.5 -2.9802094
v -71.875 34.0 -2.9802094
vn -0.40732715 -0.9132823 0.0
vn -0.91458315 0.40439805 0.0
vn 0.39448395 0.9189028 0.0
vn 0.9132163 -0.40747514 0.0
vn 0.44581506 0.8951251 0.0
vn 0.9167171 -0.39953706 0.0
vn -0.39953786 -0.91671664 0.0
vn 0.44117182 0.8974227 0.0
vn -0.3970599 -0.9177927 0.0
vn -0.9132163 0.40747514 0.0
vn 0.40593705 0.9139011 0.0
vn -0.40593705 -0.9139011 0.0
vn 0.91458315 -0.40439805 0.0
f 187//88 187//88 188//88
f 188//88 187//88 189//88
f 189//88 187//88 190//88
f 191//89 191//89 192//89
f 192//89 191//89 188//89
f 188//89 191//89 187//89
f 193//90 193//90 194//90
f 194//90 193//90 192//90
f 192//90 193//90 191//90
f 189//91 189//91 195//91
f 195//91 189//91 196//91
f 196//91 189//91 194//91
f 197//92 197//92 198//92
f 198//92 197//92 199//92
f 199//92 197//92 200//92
f 201//93 201//93 202//93
f 202//93 201//93 198//93
f 198//93 201//93 197//93
f 203//94 203//94 204//94
f 204//94 203//94 202//94
f 202//94 203//94 201//94
f 199//89 199//89 205//89
f 205//89 199//89 206//89
f 206//89 199//89 204//89
f 200//95 200//95 205//95
f 205//95 200//95 207//95
f 207//95 200//95 208//95
f 209//96 209//96 210//96
f 210//96 209//96 211//96
f 211//96 209//96 212//96
f 207//97 207//97 213//97
f 213//97 207//97 214//97
f 214//97 207//97 210//97
f 208//98 208//98 213//98
f 213//98 208//98 196//98
f 196//98 208//98 193//98
f 190//99 190//99 195//99
f 195//99 190//99 214//99
f 214//99 190//99 209//99
f 212//100 212//100 211//100
f 211//100 212//100 206//100
f 206//100 212//100 203//100
g 10
usemtl 1
v -77.5 53.5 -14.899902
v -77.5 53.5 -4.8733063
v -78.125 54.0 -4.8733063
v -78.125 54.0 -14.899902
v -84.375 38.0 -14.899902
v -84.375 38.0 -4.8733063
v -92.75 41.5 -14.899902
v -92.75 41.5 -4.8733063
v -92.375 42.5 -14.899902
v -92.375 42.5 -4.8733063
v -85.25 39.0 -4.8733063
v -85.25 39.0 -2.900116
v -92.375 42.5 -2.900116
v -78.125 54.0 -2.900116
v -85.75 60.5 -14.899902
v -85.75 60.5 -2.900116
v -77.0 56.0 -2.900116
v -77.0 56.0 -14.899902
v -93.875 43.5 -14.899902
v -93.875 43.5 -2.900116
vn 0.40567395 0.91401786 0.0
vn 0.9140183 -0.40567315 0.0
vn -0.40567315 -0.9140183 0.0
vn -0.9140183 0.40567315 0.0
vn 0.43074006 0.90247613 0.0
vn -0.90247643 0.4307392 0.0
vn -0.43074006 -0.90247613 0.0
vn 0.90247643 -0.4307392 0.0
vn 0.4307392 0.90247643 0.0
vn -0.90247613 0.43074006 0.0
f 215//101 215//101 216//101
f 216//101 215//101 217//101
f 217//101 215//101 218//101
f 219//102 219//102 220//102
f 220//102 219//102 216//102
f 216//102 219//102 215//102
f 221//103 221//103 222//103
f 222//103 221//103 220//103
f 220//103 221//103 219//103
f 223//104 223//104 224//104
f 224//104 223//104 222//104
f 222//104 223//104 221//104
f 225//105 225//105 226//105
f 226//105 225//105 227//105
f 227//105 225//105 224//105
f 217//106 217//106 228//106
f 228//106 217//106 226//106
f 226//106 217//106 225//106
f 229//107 229//107 230//107
f 230//107 229//107 231//107
f 231//107 229//107 232//107
f 233//108 233//108 234//108
f 234//108 233//108 230//108
f 230//108 233//108 229//108
f 223//109 223//109 227//109
f 227//109 223//109 234//109
f 234//109 223//109 233//109
f 232//110 232//110 231//110
f 231//110 232//110 228//110
f 228//110 232//110 218//110
