mtllib Wall_Hini_4.0_Slope_1.5.mtl
g 1
usemtl 1
v 29.875 -30.5 -14.899902
v 29.875 -30.5 -2.9097748
v 22.375 -27.5 -2.9097748
v 22.375 -27.5 -14.899902
v 40.25 -2.5 -14.899902
v 40.25 -2.5 -2.9097748
v 22.25 -23.5 -14.899902
v 22.25 -23.5 -5.2332306
v 23.625 -24.0 -5.2332306
v 23.625 -24.0 -14.899902
v 32.25 4.0 -14.899902
v 32.25 4.0 -5.2332306
v 33.875 3.5 -14.899902
v 33.875 3.5 -5.2332306
v 32.625 1.0 -5.2332306
v 32.625 1.0 -3.0876617
v 33.875 3.5 -3.0876617
v 39.625 -2.5 -5.2332306
v 39.625 -2.5 -3.0876617
v 32.875 0.0 -5.2332306
v 32.875 0.0 -2.9097748
v 39.625 -2.5 -2.9097748
v 23.625 -24.0 -2.9097748
v 42.0 1.5 -14.899902
v 42.0 1.5 -3.0876617
v 40.25 -2.5 -3.0876617
v 34.375 5.0 -14.899902
v 34.375 5.0 -3.0876617
vn 0.3533089 0.9355067 0.0
vn -0.93715435 0.34891513 0.0
vn -0.33881798 -0.9408519 0.0
vn -0.9408519 0.33881798 0.0
vn 0.33881798 0.9408519 0.0
vn 0.9124206 -0.4092538 0.0
vn 0.41962892 0.9076958 0.0
vn -0.34176603 -0.9397851 0.0
vn 0.9355067 -0.3533089 0.0
vn -0.92506444 0.37981018 0.0
vn -0.4092538 -0.9124206 0.0
vn -0.3759051 -0.9266582 0.0
vn 0.9124209 -0.40925297 0.0
f 1//1 1//1 2//1
f 2//1 1//1 3//1
f 3//1 1//1 4//1
f 5//2 5//2 6//2
f 6//2 5//2 2//2
f 2//2 5//2 1//2
f 7//3 7//3 8//3
f 8//3 7//3 9//3
f 9//3 7//3 10//3
f 11//4 11//4 12//4
f 12//4 11//4 8//4
f 8//4 11//4 7//4
f 13//5 13//5 14//5
f 14//5 13//5 12//5
f 12//5 13//5 11//5
f 15//6 15//6 16//6
f 16//6 15//6 17//6
f 17//6 15//6 14//6
f 18//7 18//7 19//7
f 19//7 18//7 16//7
f 16//7 18//7 15//7
f 20//8 20//8 21//8
f 21//8 20//8 22//8
f 22//8 20//8 18//8
f 9//9 9//9 23//9
f 23//9 9//9 21//9
f 21//9 9//9 20//9
f 24//10 24//10 25//10
f 25//10 24//10 26//10
f 26//10 24//10 5//10
f 27//11 27//11 28//11
f 28//11 27//11 25//11
f 25//11 27//11 24//11
f 19//12 19//12 22//12
f 22//12 19//12 6//12
f 6//12 19//12 26//12
f 4//9 4//9 3//9
f 3//9 4//9 23//9
f 23//9 4//9 10//9
f 13//13 13//13 17//13
f 17//13 13//13 28//13
f 28//13 13//13 27//13
g 2
usemtl 1
v -76.75 55.5 -14.899902
v -76.75 55.5 -5.937317
v -78.375 56.5 -5.937317
v -78.375 56.5 -14.899902
v -84.5 38.0 -14.899902
v -84.5 38.0 -5.937317
v -92.625 41.5 -14.899902
v -92.625 41.5 -5.937317
v -91.625 44.0 -14.899902
v -91.625 44.0 -5.937317
v -86.5 41.0 -5.937317
v -86.5 41.0 -2.9063263
v -91.625 44.0 -2.9063263
v -78.375 56.5 -2.9063263
v -85.75 60.5 -14.899902
v -85.75 60.5 -2.9063263
v -93.875 45.0 -14.899902
v -93.875 45.0 -2.9063263
vn 0.47398376 0.8805336 0.0
vn 0.91205585 -0.41006595 0.0
vn -0.41006595 -0.91205585 0.0
vn -0.91205585 0.41006595 0.0
vn 0.4653198 0.8851427 0.0
vn -0.8851427 0.4653198 0.0
vn -0.47973713 -0.87741226 0.0
vn 0.8851427 -0.4653198 0.0
vn 0.4653202 0.88514245 0.0
f 29//14 29//14 30//14
f 30//14 29//14 31//14
f 31//14 29//14 32//14
f 33//15 33//15 34//15
f 34//15 33//15 30//15
f 30//15 33//15 29//15
f 35//16 35//16 36//16
f 36//16 35//16 34//16
f 34//16 35//16 33//16
f 37//17 37//17 38//17
f 38//17 37//17 36//17
f 36//17 37//17 35//17
f 39//18 39//18 40//18
f 40//18 39//18 41//18
f 41//18 39//18 38//18
f 31//19 31//19 42//19
f 42//19 31//19 40//19
f 40//19 31//19 39//19
f 43//20 43//20 44//20
f 44//20 43//20 42//20
f 42//20 43//20 32//20
f 45//21 45//21 46//21
f 46//21 45//21 44//21
f 44//21 45//21 43//21
f 37//22 37//22 41//22
f 41//22 37//22 46//22
f 46//22 37//22 45//22
g 3
usemtl 1
v 26.25 9.0 -14.899902
v 26.25 9.0 -7.287735
v 24.375 9.5 -7.287735
v 24.375 9.5 -14.899902
v 19.875 -8.0 -14.899902
v 19.875 -8.0 -7.287735
v 18.0 -7.0 -14.899902
v 18.0 -7.0 -7.287735
v 24.375 9.5 -4.245163
v 18.0 -7.0 -4.245163
v 12.25 -5.0 -14.899902
v 12.25 -5.0 -7.287735
v 14.25 -6.0 -7.287735
v 14.25 -6.0 -14.899902
v 18.625 12.0 -14.899902
v 18.625 12.0 -7.287735
v 20.5 11.0 -14.899902
v 20.5 11.0 -7.287735
v 14.25 -6.0 -4.245163
v 20.5 11.0 -4.245163
vn 0.38609794 0.9224578 0.0
vn 0.9345831 -0.35574502 0.0
vn -0.33215493 -0.94322485 0.0
vn -0.93599397 0.35201597 0.0
vn -0.38054684 -0.92476165 0.0
vn -0.9345831 0.35574502 0.0
vn 0.32946286 0.9441685 0.0
vn 0.93599397 -0.35201597 0.0
vn 0.35388204 0.9352901 0.0
vn -0.35388118 -0.9352904 0.0
f 47//23 47//23 48//23
f 48//23 47//23 49//23
f 49//23 47//23 50//23
f 51//24 51//24 52//24
f 52//24 51//24 48//24
f 48//24 51//24 47//24
f 53//25 53//25 54//25
f 54//25 53//25 52//25
f 52//25 53//25 51//25
f 49//26 49//26 55//26
f 55//26 49//26 56//26
f 56//26 49//26 54//26
f 57//27 57//27 58//27
f 58//27 57//27 59//27
f 59//27 57//27 60//27
f 61//28 61//28 62//28
f 62//28 61//28 58//28
f 58//28 61//28 57//28
f 63//29 63//29 64//29
f 64//29 63//29 62//29
f 62//29 63//29 61//29
f 59//30 59//30 65//30
f 65//30 59//30 66//30
f 66//30 59//30 64//30
f 50//31 50//31 55//31
f 55//31 50//31 66//31
f 66//31 50//31 63//31
f 60//32 60//32 65//32
f 65//32 60//32 56//32
f 56//32 60//32 53//32
g 4
usemtl 1
v -0.375 21.0 -14.899902
v -0.375 21.0 -7.237152
v -2.375 22.0 -7.237152
v -2.375 22.0 -14.899902
v -6.75 4.5 -14.899902
v -6.75 4.5 -7.237152
v -8.875 5.5 -14.899902
v -8.875 5.5 -7.237152
v -2.375 22.0 -3.9835358
v -8.875 5.5 -3.9835358
v -15.125 8.0 -14.899902
v -15.125 8.0 -7.237152
v -13.25 7.0 -7.237152
v -13.25 7.0 -14.899902
v -8.75 24.5 -14.899902
v -8.75 24.5 -7.237152
v -6.75 24.0 -14.899902
v -6.75 24.0 -7.237152
v -13.25 7.0 -3.9835358
v -6.75 24.0 -3.9835358
vn 0.39382887 0.91918373 0.0
vn 0.93356425 -0.3584101 0.0
vn -0.33024088 -0.94389665 0.0
vn -0.9322821 0.36173204 0.0
vn -0.38430595 -0.9232058 0.0
vn -0.93356425 0.3584101 0.0
vn 0.3188522 0.9478045 0.0
vn 0.9322821 -0.36173204 0.0
vn -0.36007097 -0.93292487 0.0
vn 0.36007184 0.93292457 0.0
f 67//33 67//33 68//33
f 68//33 67//33 69//33
f 69//33 67//33 70//33
f 71//34 71//34 72//34
f 72//34 71//34 68//34
f 68//34 71//34 67//34
f 73//35 73//35 74//35
f 74//35 73//35 72//35
f 72//35 73//35 71//35
f 69//36 69//36 75//36
f 75//36 69//36 76//36
f 76//36 69//36 74//36
f 77//37 77//37 78//37
f 78//37 77//37 79//37
f 79//37 77//37 80//37
f 81//38 81//38 82//38
f 82//38 81//38 78//38
f 78//38 81//38 77//38
f 83//39 83//39 84//39
f 84//39 83//39 82//39
f 82//39 83//39 81//39
f 79//40 79//40 85//40
f 85//40 79//40 86//40
f 86//40 79//40 84//40
f 80//41 80//41 85//41
f 85//41 80//41 76//41
f 76//41 80//41 73//41
f 70//42 70//42 75//42
f 75//42 70//42 86//42
f 86//42 70//42 83//42
g 5
usemtl 1
v 13.375 14.5 -14.899902
v 13.375 14.5 -7.1120605
v 11.5 15.5 -7.1120605
v 11.5 15.5 -14.899902
v 6.875 -2.0 -14.899902
v 6.875 -2.0 -7.1120605
v 5.0 -1.0 -14.899902
v 5.0 -1.0 -7.1120605
v 11.5 15.5 -4.086136
v 5.0 -1.0 -4.086136
v 0.125 8.5 -14.899902
v 0.125 8.5 -8.796555
v 1.125 8.0 -8.796555
v 1.125 8.0 -14.899902
v 4.0 19.0 -14.899902
v 4.0 19.0 -8.796555
v 5.75 18.5 -14.899902
v 5.75 18.5 -8.796555
v 5.625 18.0 -14.899902
v 5.625 18.0 -8.796555
v 5.0 18.0 -8.796555
v 5.0 18.0 -7.1120605
v 5.625 18.0 -7.1120605
v 1.125 8.0 -7.1120605
v -1.5 1.5 -14.899902
v -1.5 1.5 -7.1120605
v 0.375 0.5 -7.1120605
v 0.375 0.5 -14.899902
v 0.375 0.5 -4.086136
v 6.875 17.5 -4.086136
v 6.875 17.5 -7.1120605
v 6.875 17.5 -14.899902
vn 0.41838005 0.90827215 0.0
vn 0.93115413 -0.36462602 0.0
vn -0.3460851 -0.9382032 0.0
vn -0.93188137 0.3627631 0.0
vn -0.35140398 -0.9362239 0.0
vn -0.9362239 0.35140398 0.0
vn 0.35140398 0.9362239 0.0
vn 0.9362239 -0.35140398 0.0
vn -0.36462688 -0.9311537 0.0
vn -0.38526088 -0.9228077 0.0
vn 0.93188137 -0.3627631 0.0
vn -0.36369503 -0.93151814 0.0
vn 0.36369503 0.93151814 0.0
vn -0.93115413 0.36462602 0.0
vn 0.2874469 0.9577966 0.0
f 87//43 87//43 88//43
f 88//43 87//43 89//43
f 89//43 87//43 90//43
f 91//44 91//44 92//44
f 92//44 91//44 88//44
f 88//44 91//44 87//44
f 93//45 93//45 94//45
f 94//45 93//45 92//45
f 92//45 93//45 91//45
f 89//46 89//46 95//46
f 95//46 89//46 96//46
f 96//46 89//46 94//46
f 97//47 97//47 98//47
f 98//47 97//47 99//47
f 99//47 97//47 100//47
f 101//48 101//48 102//48
f 102//48 101//48 98//48
f 98//48 101//48 97//48
f 103//49 103//49 104//49
f 104//49 103//49 102//49
f 102//49 103//49 101//49
f 105//50 105//50 106//50
f 106//50 105//50 104//50
f 104//50 105//50 103//50
f 107//51 107//51 108//51
f 108//51 107//51 109//51
f 109//51 107//51 106//51
f 99//44 99//44 110//44
f 110//44 99//44 108//44
f 108//44 99//44 107//44
f 111//52 111//52 112//52
f 112//52 111//52 113//52
f 113//52 111//52 114//52
f 113//53 113//53 115//53
f 115//53 113//53 116//53
f 116//53 113//53 117//53
f 114//54 114//54 115//54
f 115//54 114//54 96//54
f 96//54 114//54 93//54
f 90//55 90//55 95//55
f 95//55 90//55 116//55
f 116//55 90//55 118//55
f 100//56 100//56 110//56
f 110//56 100//56 112//56
f 112//56 100//56 111//56
f 118//57 118//57 117//57
f 117//57 118//57 109//57
f 109//57 118//57 105//57
g 6
usemtl 1
v -30.25 15.0 -14.899902
v -30.25 15.0 -7.572815
v -27.75 14.0 -7.572815
v -27.75 14.0 -14.899902
v -23.375 31.5 -14.899902
v -23.375 31.5 -7.572815
v -20.75 30.5 -14.899902
v -20.75 30.5 -7.572815
v -27.75 14.0 -2.9078827
v -20.75 30.5 -2.9078827
v -13.75 27.5 -14.899902
v -13.75 27.5 -7.572815
v -16.25 28.5 -7.572815
v -16.25 28.5 -14.899902
v -20.625 11.0 -14.899902
v -20.625 11.0 -7.572815
v -23.25 12.0 -14.899902
v -23.25 12.0 -7.572815
v -16.25 28.5 -2.9078827
v -23.25 12.0 -2.9078827
v -31.125 5.5 -14.899902
v -31.125 5.5 -2.9078827
v -35.875 3.5 -2.9078827
v -35.875 3.5 -14.899902
v -29.875 -5.0 -14.899902
v -29.875 -5.0 -2.9078827
v -27.875 0.5 -2.9078827
v -27.875 0.5 -14.899902
v -48.125 2.0 -14.899902
v -48.125 2.0 -2.9078827
v -46.125 7.5 -14.899902
v -46.125 7.5 -2.9078827
vn -0.38485005 -0.9229791 0.0
vn -0.9229791 0.38485005 0.0
vn 0.3525432 0.93579555 0.0
vn 0.92231584 -0.38643694 0.0
vn 0.41555178 0.90956956 0.0
vn 0.9229791 -0.38485005 0.0
vn -0.92231584 0.38643694 0.0
vn -0.4108822 0.91168845 0.0
vn 0.38564384 0.92264766 0.0
vn 0.9471578 -0.32076794 0.0
vn -0.3476071 -0.93764037 0.0
vn -0.93764037 0.3476071 0.0
vn 0.3476071 0.93764037 0.0
vn 0.9233314 -0.38400415 0.0
f 119//58 119//58 120//58
f 120//58 119//58 121//58
f 121//58 119//58 122//58
f 123//59 123//59 124//59
f 124//59 123//59 120//59
f 120//59 123//59 119//59
f 125//60 125//60 126//60
f 126//60 125//60 124//60
f 124//60 125//60 123//60
f 121//61 121//61 127//61
f 127//61 121//61 128//61
f 128//61 121//61 126//61
f 129//62 129//62 130//62
f 130//62 129//62 131//62
f 131//62 129//62 132//62
f 133//63 133//63 134//63
f 134//63 133//63 130//63
f 130//63 133//63 129//63
f 135//58 135//58 136//58
f 136//58 135//58 134//58
f 134//58 135//58 133//58
f 131//64 131//64 137//64
f 137//64 131//64 138//64
f 138//64 131//64 136//64
f 139//65 139//65 140//65
f 140//65 139//65 141//65
f 141//65 139//65 142//65
f 132//66 132//66 137//66
f 137//66 132//66 128//66
f 128//66 132//66 125//66
f 143//67 143//67 144//67
f 144//67 143//67 145//67
f 145//67 143//67 146//67
f 147//68 147//68 148//68
f 148//68 147//68 144//68
f 144//68 147//68 143//68
f 149//69 149//69 150//69
f 150//69 149//69 148//69
f 148//69 149//69 147//69
f 142//70 142//70 141//70
f 141//70 142//70 150//70
f 150//70 142//70 149//70
f 122//64 122//64 127//64
f 127//64 122//64 140//64
f 140//64 122//64 139//64
f 146//71 146//71 145//71
f 145//71 146//71 138//71
f 138//71 146//71 135//71
g 7
usemtl 1
v -50.875 32.0 -14.899902
v -50.875 32.0 -8.866943
v -49.875 31.5 -8.866943
v -49.875 31.5 -14.899902
v -46.25 42.5 -14.899902
v -46.25 42.5 -8.866943
v -40.25 39.5 -14.899902
v -40.25 39.5 -8.866943
v -45.0 29.5 -14.899902
v -45.0 29.5 -8.866943
v -46.0 29.5 -14.899902
v -46.0 29.5 -8.866943
v -41.375 40.0 -8.866943
v -41.375 40.0 -7.1141357
v -46.0 29.5 -7.1141357
v -45.375 41.5 -8.866943
v -45.375 41.5 -7.1141357
v -49.875 31.5 -7.1141357
v -48.75 23.5 -14.899902
v -48.75 23.5 -7.1141357
v -52.75 25.0 -7.1141357
v -52.75 25.0 -14.899902
vn -0.41443294 -0.91007984 0.0
vn -0.91007984 0.41443294 0.0
vn 0.41443294 0.91007984 0.0
vn 0.91007984 -0.41443294 0.0
vn -0.9129953 0.40797016 0.0
vn -0.40797016 -0.9129953 0.0
vn 0.9129953 -0.40797016 0.0
vn 0.40797016 0.9129953 0.0
f 151//72 151//72 152//72
f 152//72 151//72 153//72
f 153//72 151//72 154//72
f 155//73 155//73 156//73
f 156//73 155//73 152//73
f 152//73 155//73 151//73
f 157//74 157//74 158//74
f 158//74 157//74 156//74
f 156//74 157//74 155//74
f 159//75 159//75 160//75
f 160//75 159//75 158//75
f 158//75 159//75 157//75
f 161//72 161//72 162//72
f 162//72 161//72 160//72
f 160//72 161//72 159//72
f 163//76 163//76 164//76
f 164//76 163//76 165//76
f 165//76 163//76 162//76
f 166//77 166//77 167//77
f 167//77 166//77 164//77
f 164//77 166//77 163//77
f 153//78 153//78 168//78
f 168//78 153//78 167//78
f 167//78 153//78 166//78
f 169//79 169//79 170//79
f 170//79 169//79 171//79
f 171//79 169//79 172//79
f 161//76 161//76 165//76
f 165//76 161//76 170//76
f 170//76 161//76 169//76
f 172//78 172//78 171//78
f 171//78 172//78 168//78
f 168//78 172//78 154//78
g 8
usemtl 1
v -35.75 37.5 -14.899902
v -35.75 37.5 -7.1578217
v -43.25 20.5 -7.1578217
v -43.25 20.5 -14.899902
v -36.0 17.5 -14.899902
v -36.0 17.5 -7.1578217
v -28.375 34.5 -7.1578217
v -28.375 34.5 -14.899902
v -37.75 18.0 -14.899902
v -37.75 18.0 -7.1578217
v -30.125 35.0 -7.1578217
v -30.125 35.0 -4.3370514
v -37.75 18.0 -4.3370514
v -34.0 36.5 -14.899902
v -34.0 36.5 -4.3370514
v -30.125 35.0 -14.899902
v -41.625 20.0 -7.1578217
v -41.625 20.0 -4.3370514
v -34.0 36.5 -7.1578217
v -39.375 19.0 -14.899902
v -39.375 19.0 -4.3370514
v -41.625 20.0 -14.899902
vn -0.9125407 0.40898588 0.0
vn 0.9125407 -0.40898588 0.0
vn -0.40898588 -0.9125407 0.0
vn -0.91135824 0.4116141 0.0
vn -0.4116141 -0.91135824 0.0
vn 0.91135824 -0.4116141 0.0
vn 0.4116141 0.91135824 0.0
vn -0.40545994 -0.9141128 0.0
vn 0.44366488 0.8961928 0.0
vn 0.36658898 0.93038297 0.0
vn 0.40898588 0.9125407 0.0
f 173//80 173//80 174//80
f 174//80 173//80 175//80
f 175//80 173//80 176//80
f 177//81 177//81 178//81
f 178//81 177//81 179//81
f 179//81 177//81 180//81
f 181//82 181//82 182//82
f 182//82 181//82 178//82
f 178//82 181//82 177//82
f 183//83 183//83 184//83
f 184//83 183//83 185//83
f 185//83 183//83 182//83
f 186//84 186//84 187//84
f 187//84 186//84 184//84
f 184//84 186//84 188//84
f 189//85 189//85 190//85
f 190//85 189//85 187//85
f 187//85 189//85 191//85
f 192//86 192//86 193//86
f 193//86 192//86 190//86
f 190//86 192//86 194//86
f 176//87 176//87 175//87
f 175//87 176//87 189//87
f 189//87 176//87 194//87
f 186//88 186//88 191//88
f 191//88 186//88 174//88
f 174//88 186//88 173//88
f 180//89 180//89 179//89
f 179//89 180//89 183//89
f 183//89 180//89 188//89
f 181//90 181//90 185//90
f 185//90 181//90 193//90
f 193//90 181//90 192//90
g 9
usemtl 1
v -52.5 45.5 -7.2253265
v -52.5 45.5 -4.3963623
v -59.875 28.5 -4.3963623
v -59.875 28.5 -7.2253265
v -55.875 47.0 -14.899902
v -55.875 47.0 -4.3963623
v -52.5 45.5 -14.899902
v -63.25 30.0 -7.2253265
v -63.25 30.0 -4.3963623
v -55.875 47.0 -7.2253265
v -59.875 28.5 -14.899902
v -63.25 30.0 -14.899902
v -63.125 37.5 -14.899902
v -63.125 37.5 -8.991348
v -62.0 37.0 -8.991348
v -62.0 37.0 -14.899902
v -58.625 48.0 -14.899902
v -58.625 48.0 -8.991348
v -57.5 47.5 -14.899902
v -57.5 47.5 -8.991348
v -62.0 37.0 -7.2253265
v -57.5 47.5 -7.2253265
v -50.75 44.5 -14.899902
v -50.75 44.5 -7.2253265
v -58.25 28.0 -14.899902
v -58.25 28.0 -7.2253265
v -64.875 30.5 -14.899902
v -64.875 30.5 -7.2253265
vn -0.9149197 0.4036359 0.0
vn -0.40479806 -0.9144061 0.0
vn 0.9149197 -0.4036359 0.0
vn 0.4036359 0.9149197 0.0
vn -0.40456015 -0.9145113 0.0
vn -0.9145113 0.40456015 0.0
vn 0.37135413 0.92849135 0.0
vn 0.91389084 -0.40595993 0.0
vn 0.41290507 0.9107741 0.0
vn 0.37950405 0.9251901 0.0
vn -0.36454403 -0.93118614 0.0
vn -0.45111176 -0.8924675 0.0
vn -0.91389084 0.40595993 0.0
f 195//91 195//91 196//91
f 196//91 195//91 197//91
f 197//91 195//91 198//91
f 199//92 199//92 200//92
f 200//92 199//92 196//92
f 196//92 199//92 201//92
f 202//93 202//93 203//93
f 203//93 202//93 200//93
f 200//93 202//93 204//93
f 205//94 205//94 197//94
f 197//94 205//94 203//94
f 203//94 205//94 206//94
f 207//95 207//95 208//95
f 208//95 207//95 209//95
f 209//95 207//95 210//95
f 211//96 211//96 212//96
f 212//96 211//96 208//96
f 208//96 211//96 207//96
f 213//97 213//97 214//97
f 214//97 213//97 212//97
f 212//97 213//97 211//97
f 209//98 209//98 215//98
f 215//98 209//98 216//98
f 216//98 209//98 214//98
f 217//99 217//99 218//99
f 218//99 217//99 195//99
f 195//99 217//99 201//99
f 219//98 219//98 220//98
f 220//98 219//98 218//98
f 218//98 219//98 217//98
f 199//100 199//100 204//100
f 204//100 199//100 216//100
f 216//100 199//100 213//100
f 221//101 221//101 222//101
f 222//101 221//101 202//101
f 202//101 221//101 206//101
f 205//102 205//102 198//102
f 198//102 205//102 220//102
f 220//102 205//102 219//102
f 210//103 210//103 215//103
f 215//103 210//103 222//103
f 222//103 210//103 221//103
g 10
usemtl 1
v -63.0 50.0 -14.899902
v -63.0 50.0 -7.2435455
v -64.625 51.0 -7.2435455
v -64.625 51.0 -14.899902
v -70.375 33.5 -14.899902
v -70.375 33.5 -7.2435455
v -77.5 36.5 -14.899902
v -77.5 36.5 -7.2435455
v -70.25 53.0 -14.899902
v -70.25 53.0 -7.2435455
v -68.625 52.5 -14.899902
v -68.625 52.5 -7.2435455
v -76.0 36.0 -7.2435455
v -76.0 36.0 -4.6202087
v -68.625 52.5 -4.6202087
v -72.0 34.0 -7.2435455
v -72.0 34.0 -4.6202087
v -64.625 51.0 -4.6202087
vn 0.4211719 0.9069808 0.0
vn 0.915752 -0.401744 0.0
vn -0.401744 -0.915752 0.0
vn -0.915752 0.401744 0.0
vn 0.37590095 0.9266598 0.0
vn 0.9136308 -0.40654492 0.0
vn 0.40654492 0.9136308 0.0
vn -0.9136304 0.40654573 0.0
vn -0.40414616 -0.9146944 0.0
f 223//104 223//104 224//104
f 224//104 223//104 225//104
f 225//104 223//104 226//104
f 227//105 227//105 228//105
f 228//105 227//105 224//105
f 224//105 227//105 223//105
f 229//106 229//106 230//106
f 230//106 229//106 228//106
f 228//106 229//106 227//106
f 231//107 231//107 232//107
f 232//107 231//107 230//107
f 230//107 231//107 229//107
f 233//108 233//108 234//108
f 234//108 233//108 232//108
f 232//108 233//108 231//108
f 235//109 235//109 236//109
f 236//109 235//109 237//109
f 237//109 235//109 234//109
f 238//110 238//110 239//110
f 239//110 238//110 236//110
f 236//110 238//110 235//110
f 225//111 225//111 240//111
f 240//111 225//111 239//111
f 239//111 225//111 238//111
f 233//112 233//112 237//112
f 237//112 233//112 240//112
f 240//112 233//112 226//112
